<?xml version="1.0" encoding="UTF-8" standalone="no"?>
<!-- Created with Inkscape (http://www.inkscape.org/) -->

<svg
   version="1.1"
   id="svg11608"
   width="39.10825"
   height="27.869186"
   viewBox="0 0 39.108249 27.869186"
   xml:space="preserve"
   xmlns="http://www.w3.org/2000/svg"
   xmlns:svg="http://www.w3.org/2000/svg"><defs
     id="defs11612" /><path
     style="opacity:1;fill:none;stroke:#000000;stroke-width:1.4;stroke-linecap:round;stroke-linejoin:round"
     d="m 14.621117,6.1844171 c 0.47609,1.9692401 3.678537,1.7011175 5.12731,0.0553 C 21.1972,4.5938996 20.939112,3.1293283 19.490857,1.9025071 18.042602,0.67568596 15.699035,0.67754081 13.729507,0.71668713 11.759979,0.75583343 8.9753462,1.5552191 7.6245091,2.9767072 c -1.350837,1.4214875 -2.212562,3.2321178 -2.0878,5.05904 0.124762,1.826922 2.2494701,3.2420848 3.5222101,3.4957918 1.2727378,0.253707 4.1635758,0.263065 2.3009078,0.29229 -1.8626658,0.02923 -5.5388589,1.846851 -7.1113579,2.84096 -1.5724989,0.994109 -3.33645011,2.177292 -3.53159014,4.82205 -0.19514,2.644758 1.50145514,5.513755 3.09670014,6.29865 1.595245,0.784895 2.48861,0.972235 4.9959901,1.31049 2.5073778,0.338255 5.6791248,-0.799924 8.0274978,-1.95756 1.191858,-0.587529 1.48319,-0.572422 3.518315,-2.477859 1.618668,-1.515517 0.829325,-5.589531 0.847375,-6.121721"
     id="path11988"
     class="ampersand" /></svg>
