    <svg
            xmlns="http://www.w3.org/2000/svg"
            xmlns:bx="https://boxy-svg.com"
            viewBox="0 0 460.989 122.666"
          >
            <path
              id="path"
              style="
                fill: rgb(216, 216, 216);
                stroke: rgb(0, 0, 0);
                fill-opacity: 0;
              "
              d="M 0 7.451 L 18.698666666666664 26.330833333333334 C 37.39733333333333 45.21066666666667 74.79466666666666 82.97033333333333 115.62650000000001 102.548 C 156.45833333333334 122.12566666666667 200.72466666666665 123.52133333333335 233.23583333333332 106.50450000000001 C 265.747 89.48766666666667 286.503 54.05833333333334 282.15883333333335 31.345333333333333 C 277.81466666666665 8.632333333333333 248.37033333333332 -1.3643333333333334 225.97566666666668 0.14933333333333287 C 203.581 1.6629999999999991 188.236 14.686999999999998 186.28549999999998 34.50933333333333 C 184.335 54.33166666666667 195.779 80.95233333333333 217.06316666666666 99.0675 C 238.34733333333335 117.18266666666666 269.47166666666664 126.79233333333332 304.3188333333333 120.969 C 339.166 115.14566666666666 377.73600000000005 93.88933333333334 401.15166666666664 77.317 C 424.56733333333335 60.74466666666666 432.8286666666666 48.85633333333334 440.2758333333333 42.258 C 447.72299999999996 35.65966666666667 454.356 34.351333333333336 457.67249999999996 33.69716666666667 L 460.989 33.043"
              class="path"
              bx:d="M 0 7.451 U 112.192 120.73 U 244.991 124.917 U 307.259 18.629 U 218.926 -11.361 U 172.891 27.711 U 207.223 107.573 U 300.596 136.402 U 416.306 72.633 U 441.09 36.968 U 460.989 33.043 1@7b3ec7d9"
            />
            <path
              style="
                fill: #fef1e5;
                fill-opacity: 0;
                stroke-width: 4px;
                stroke: #fef1e5;
              "
              d="M 0 7.451 L 18.698666666666664 26.330833333333334 C 37.39733333333333 45.21066666666667 74.79466666666666 82.97033333333333 115.62650000000001 102.548 C 156.45833333333334 122.12566666666667 200.72466666666665 123.52133333333335 233.23583333333332 106.50450000000001 C 265.747 89.48766666666667 286.503 54.05833333333334 282.15883333333335 31.345333333333333 C 277.81466666666665 8.632333333333333 248.37033333333332 -1.3643333333333334 225.97566666666668 0.14933333333333287 C 203.581 1.6629999999999991 188.236 14.686999999999998 186.28549999999998 34.50933333333333 C 184.335 54.33166666666667 195.779 80.95233333333333 217.06316666666666 99.0675 C 238.34733333333335 117.18266666666666 269.47166666666664 126.79233333333332 304.3188333333333 120.969 C 339.166 115.14566666666666 377.73600000000005 93.88933333333334 401.15166666666664 77.317 C 424.56733333333335 60.74466666666666 432.8286666666666 48.85633333333334 440.2758333333333 42.258 C 447.72299999999996 35.65966666666667 454.356 34.351333333333336 457.67249999999996 33.69716666666667 L 460.989 33.043"
              class="dashed"
              bx:d="M 0 7.451 U 112.192 120.73 U 244.991 124.917 U 307.259 18.629 U 218.926 -11.361 U 172.891 27.711 U 207.223 107.573 U 300.596 136.402 U 416.306 72.633 U 441.09 36.968 U 460.989 33.043 1@7b3ec7d9"
            />
            <path
              id="plane"
              d="M 27,3 H 21 L 13,15 H 9 L 12,3 H 5 L 3,7 H -1 L 1,0 -1,-7 H 3 L 5,-3 H 12 L 9,-15 H 13 L 21,-3 H 27 C 33,-3 33,3 27,3 Z"
              fill="white"
              stroke="black"
              stroke-width="1.5"
            ></path>
          </svg>