<?xml version="1.0" encoding="UTF-8" standalone="no"?>
<svg
   viewBox="0 0 282.43905 415.72322"
   version="1.1"
   id="svg6"
   width="282.43906"
   height="415.72324"
   xml:space="preserve"
   xmlns:xlink="http://www.w3.org/1999/xlink"
   xmlns="http://www.w3.org/2000/svg"
   xmlns:svg="http://www.w3.org/2000/svg"
   xmlns:bx="https://boxy-svg.com"><defs
     id="defs10"><linearGradient
       id="linearGradient4092"><stop
         style="stop-color:#000000;stop-opacity:1;"
         offset="0"
         id="stop4090" /></linearGradient><linearGradient
       xlink:href="#linearGradient4092"
       id="linearGradient4094"
       x1="59.259647"
       y1="255.99971"
       x2="452.74023"
       y2="255.99971"
       gradientUnits="userSpaceOnUse" /></defs><path
     style="display:inline;fill:none;fill-opacity:0;stroke:#000000;stroke-width:1"
     d="M 61.016676,14.122082 C 49.736549,83.091039 308.47791,82.643673 45.291253,168.0098 c -71.135364,23.63364 -45.75378722,92.50978 -4.921897,112.08748 40.831889,19.5777 85.098294,20.97336 117.609504,3.9565 32.51121,-17.01685 53.26724,-52.44623 48.92307,-75.15927 -4.34417,-22.71303 -33.78855,-32.70971 -56.18324,-31.19604 -22.39471,1.51366 -37.73973,14.53768 -39.69023,34.36005 -1.9505,19.82236 9.49351,46.44306 30.77771,64.55825 21.28419,18.1152 49.18993,15.72805 87.25579,21.90153 167.81649,31.70527 -119.0975,51.31437 -99.83249,117.06435"
     class="dashed"
     bx:d="M 0 7.451 U 112.192 120.73 U 244.991 124.917 U 307.259 18.629 U 218.926 -11.361 U 172.891 27.711 U 207.223 107.573 U 300.596 136.402 U 416.306 72.633 U 441.09 36.968 U 460.989 33.043 1@7b3ec7d9"
     id="path3-7" /><path
     style="display:inline;fill:#c4def4;fill-opacity:0;stroke:#c4def4;stroke-width:4.00001px;stroke-opacity:1"
     d="M 60.800966,14.703552 C 49.520839,83.672509 308.2622,83.225143 45.075543,168.59127 c -71.135364,23.63364 -45.75379752,92.50979 -4.921898,112.08748 40.83189,19.5777 85.098295,20.97336 117.609505,3.9565 32.51121,-17.01685 53.26724,-52.44623 48.92307,-75.15927 -4.34417,-22.71303 -33.78855,-32.70971 -56.18324,-31.19604 -22.39471,1.51366 -37.73973,14.53768 -39.69023,34.36005 -1.9505,19.82236 9.49351,46.44307 30.77771,64.55825 21.28419,18.1152 49.18992,15.72806 87.25579,21.90153 167.81649,31.70527 -119.0975,51.31437 -99.8325,117.06436"
     class="dashed"
     bx:d="M 0 7.451 U 112.192 120.73 U 244.991 124.917 U 307.259 18.629 U 218.926 -11.361 U 172.891 27.711 U 207.223 107.573 U 300.596 136.402 U 416.306 72.633 U 441.09 36.968 U 460.989 33.043 1@7b3ec7d9"
     id="path3" /><g
     aria-label="...e poi"
     id="text1849"
     style="font-size:24px;font-family:'Moon Dance';-inkscape-font-specification:'Moon Dance';fill:none;fill-opacity:0;stroke:#000000;stroke-width:1;stroke-linecap:round;stroke-linejoin:round;stroke-miterlimit:1078.7"
     transform="translate(-1.7141624,3.3563821)"><path
       d="m 51.334046,102.77549 q -0.192,0 -0.36,-0.288 -0.144,-0.288 -0.144,-0.456 0,-0.432 0.432,-0.6 0.096,-0.12 0.384,-0.288 0.288,-0.168 0.576,-0.312 0.312,-0.144 0.456,-0.144 0.024,0 0.072,0.048 -0.072,0.096 -0.192,0.216 -0.096,0.096 -0.168,0.216 -0.144,0.216 -0.264,0.6 -0.12,0.384 -0.288,0.696 -0.168,0.312 -0.504,0.312 z"
       style="font-size:24px;stroke:#074467;stroke-width:1"
       id="path4369" /><path
       d="m 55.534028,102.77549 q -0.192,0 -0.36,-0.288 -0.144,-0.288 -0.144,-0.456 0,-0.432 0.432,-0.6 0.096,-0.12 0.384,-0.288 0.288,-0.168 0.576,-0.312 0.312,-0.144 0.456,-0.144 0.024,0 0.072,0.048 -0.072,0.096 -0.192,0.216 -0.096,0.096 -0.168,0.216 -0.144,0.216 -0.264,0.6 -0.12,0.384 -0.288,0.696 -0.168,0.312 -0.504,0.312 z"
       style="font-size:24px;stroke:#074467;stroke-width:1"
       id="path4371" /><path
       d="m 59.73401,102.77549 q -0.192,0 -0.36,-0.288 -0.144,-0.288 -0.144,-0.456 0,-0.432 0.432,-0.6 0.096,-0.12 0.384,-0.288 0.288,-0.168 0.576,-0.312 0.312,-0.144 0.456,-0.144 0.024,0 0.072,0.048 -0.072,0.096 -0.192,0.216 -0.096,0.096 -0.168,0.216 -0.144,0.216 -0.264,0.6 -0.12,0.384 -0.288,0.696 -0.168,0.312 -0.504,0.312 z"
       style="font-size:24px;stroke:#074467;stroke-width:1"
       id="path4373" /><path
       d="m 67.653991,97.111489 q -0.12,0 -0.12,-0.12 0,-0.072 0.024,-0.12 0.144,-0.384 0.216,-0.72 0.096,-0.36 0.096,-0.744 0,-0.144 -0.024,-0.384 0,-0.264 -0.096,-0.48 -0.072,-0.216 -0.288,-0.216 -0.096,0 -0.168,0.024 -0.072,0 -0.168,0 -0.24,0 -0.24,-0.192 0,-0.096 0.216,-0.168 0.24,-0.072 0.504,-0.12 0.264,-0.048 0.36,-0.048 0.6,0 0.744,0.456 0.168,0.432 0.168,0.912 0,0.456 -0.168,0.96 -0.144,0.504 -0.552,0.768 -0.096,0.072 -0.24,0.144 -0.144,0.048 -0.264,0.048 z m -3.576,5.472001 q -0.696,0 -0.984,-0.336 -0.264,-0.336 -0.264,-0.984 0,-0.72 0.168,-1.440001 0.168,-0.72 0.408,-1.392 l -0.216,0.072 q -0.12,-0.072 -0.12,-0.24 0,-0.216 0.192,-0.408 0.216,-0.216 0.432,-0.24 0.144,-0.36 0.408,-0.936 0.264,-0.576 0.6,-1.152 0.36,-0.576 0.792,-0.96 0.432,-0.384 0.936,-0.384 0.216,0 0.216,0.192 0,0.072 -0.096,0.192 -0.096,0.096 -0.144,0.144 -0.312,0.288 -0.6,0.816 -0.288,0.504 -0.528,1.056 -0.24,0.528 -0.408,0.936 0.672,-0.096 1.32,-0.144 0.672,-0.048 1.344,-0.048 0.072,0 0.36,0.024 0.288,0 0.648,0.048 0.36,0.024 0.6,0.096 0.264,0.072 0.264,0.192 0,0.096 -0.12,0.12 -0.096,0.024 -0.144,0.024 -0.312,0 -0.6,-0.048 -0.288,-0.048 -0.6,-0.048 -0.816,0 -1.656,0.12 -0.84,0.12 -1.656,0.288 -0.24,0.624 -0.48,1.416 -0.216,0.792001 -0.216,1.488001 0,0.384 0.144,0.744 0.144,0.336 0.6,0.336 0.648,0 1.224,-0.504 0.6,-0.528 1.104,-1.176 0.504,-0.672001 0.84,-1.104001 h 0.024 q 0.096,0 0.096,0.096 0.024,0.096 0.024,0.144 0,0.408 -0.192,0.768001 -0.192,0.336 -0.48,0.624 -0.648,0.6 -1.488,1.104 -0.816,0.504 -1.752,0.504 z"
       style="font-size:24px;stroke:#074467;stroke-width:1"
       id="path4375" /><path
       d="m 75.309913,112.01549 q -0.336,0 -0.624,-0.168 -0.288,-0.144 -0.528,-0.384 -0.288,-0.336 -0.36,-0.816 -0.096,-0.48 -0.096,-0.888 0,-0.912 0.216,-2.04 0.216,-1.128 0.576,-2.328 0.336,-1.176 0.72,-2.28 0.384,-1.08 0.696,-1.944 -0.144,-0.36 -0.144,-0.768 0,-0.504001 0.216,-0.696001 0.24,-0.216 0.648,-0.408 0.504,-1.272 1.056,-2.568 0.576,-1.296 1.128,-2.544 -0.192,-0.216 -0.432,-0.408 -0.24,-0.192 -0.48,-0.36 -0.144,-0.072 -0.144,-0.192 0,-0.216 0.216,-0.384 0.24,-0.192 0.432,-0.192 0.192,0 0.456,0.264 0.264,0.24 0.384,0.36 0.096,-0.216 0.24,-0.576 0.144,-0.36 0.264,-0.528 0.144,-0.192 0.432,-0.336 0.288,-0.168 0.528,-0.168 0.312,0 0.312,0.24 0,0.072 -0.144,0.384 -0.144,0.288 -0.336,0.648 -0.192,0.36 -0.36,0.672 -0.168,0.312 -0.216,0.432 0.576,0.648 1.152,1.512 0.6,0.84 1.008,1.776 0.408,0.912 0.408,1.8 0,0.912001 -0.48,1.704001 -0.48,0.792 -1.272,1.272 -0.768,0.48 -1.704,0.48 -0.624,0 -1.32,-0.12 -0.672,-0.12 -1.2,-0.504 -0.288,0.792 -0.672,1.8 -0.36,1.032 -0.672,2.136 -0.336,1.128 -0.552,2.184 -0.216,1.056 -0.216,1.896 0,0.264 0.048,0.624 0.048,0.384 0.24,0.648 0.168,0.288 0.528,0.288 0.36,0 0.552,-0.264 0.192,-0.24 0.288,-0.24 0.024,0 0.024,0.048 0,0.096 -0.216,0.288 -0.192,0.216 -0.264,0.336 0.024,0.024 0.024,0.096 0,0.096 -0.048,0.192 -0.072,0.024 -0.168,0.024 -0.072,0 -0.144,0 z m 3.936,-9.984 q 0.936,0 1.656,-0.48 0.72,-0.504 0.72,-1.536 0,-1.008001 -0.336,-1.920001 -0.312,-0.912 -0.816,-1.704 -0.48,-0.816 -0.984,-1.464 -0.432,0.888 -0.864,1.896 -0.408,1.008 -0.792,1.944 0.048,0 0.072,0 0.024,-0.024 0.048,-0.024 0.168,0 0.168,0.168 0,0.312 -0.192,0.408 -0.192,0.096 -0.408,0.216 -0.168,0.384 -0.336,0.768001 -0.144,0.36 -0.288,0.768 l 0.024,0.024 q 0.528,0.528 1.08,0.744 0.552,0.192 1.248,0.192 z"
       style="font-size:24px;stroke:#074467;stroke-width:1"
       id="path4377" /><path
       d="m 85.005907,102.65549 q -0.888,0 -1.2,-0.504 -0.312,-0.528 -0.312,-1.344 0,-0.864001 0.264,-1.656001 0.264,-0.792 0.576,-1.584 -0.168,-0.12 -0.312,-0.312 -0.12,-0.192 -0.12,-0.552 0,-0.408 0.48,-1.032 0.48,-0.648 1.08,-1.128 0.264,-0.216 0.696,-0.456 0.432,-0.264 0.888,-0.432 0.456,-0.192 0.744,-0.192 1.008,0 1.344,0.816 0.336,0.816 0.24,1.944 0.096,-0.048 0.336,-0.144 0.264,-0.096 0.504,-0.168 0.24,-0.096 0.288,-0.096 0.12,0 0.24,0.12 0.12,0.12 0.12,0.24 0,0.072 -0.072,0.12 l -1.512,0.576 q -0.144,0.744 -0.48,1.728 -0.312,0.984 -0.864,1.920001 -0.528,0.912 -1.272,1.536 -0.72,0.6 -1.656,0.6 z m 1.152,-5.640001 q 0.6,0 1.152,-0.12 0.552,-0.144 1.2,-0.36 0.024,-0.12 0.024,-0.264 0.024,-0.144 0.024,-0.264 0,-0.288 -0.072,-0.648 -0.048,-0.36 -0.24,-0.624 -0.168,-0.288 -0.528,-0.288 -0.408,0 -0.792,0.312 -0.384,0.312 -0.72,0.744 -0.312,0.432 -0.552,0.84 -0.216,0.408 -0.312,0.6 0.432,0.072 0.816,0.072 z m -0.936,4.992001 q 0.672,0 1.176,-0.432 0.528,-0.456 0.912,-1.176 0.384,-0.720001 0.648,-1.560001 0.288,-0.84 0.456,-1.656 -0.72,0.24 -1.656,0.48 -0.912,0.216 -1.68,0.12 -0.24,0.648 -0.432,1.464 -0.168,0.816001 -0.168,1.512001 0,0.384 0.12,0.816 0.144,0.432 0.624,0.432 z"
       style="font-size:24px;stroke:#074467;stroke-width:1"
       id="path4379" /><path
       d="m 93.333868,92.911489 q -0.096,0 -0.192,-0.192 -0.072,-0.192 -0.12,-0.408 -0.024,-0.24 -0.024,-0.336 0,-0.048 0,-0.12 0.024,-0.096 0.096,-0.12 0.408,-0.048 0.768,-0.144 0.384,-0.096 0.768,-0.216 0.048,-0.024 0.168,-0.024 0.192,0 0.192,0.216 0,0.48 -0.456,0.792 -0.264,0.168 -0.576,0.36 -0.288,0.192 -0.624,0.192 z m -2.352,9.672001 q -0.36,0 -0.36,-0.384 0,-0.408 0.144,-1.056 0.144,-0.672 0.336,-1.344001 0.192,-0.672 0.288,-1.056 0.024,-0.096 0.144,-0.504 0.12,-0.432 0.264,-0.936 0.144,-0.504 0.24,-0.888 0.12,-0.408 0.12,-0.48 0,-0.12 -0.144,-0.216 -0.12,-0.096 -0.12,-0.216 0,-0.072 0.024,-0.144 0.024,-0.072 0.048,-0.12 0.072,-0.12 0.36,-0.312 0.288,-0.192 0.6,-0.336 0.336,-0.168 0.456,-0.168 0.072,0 0.096,0.024 0.024,0.048 0.024,0.168 0,0.216 -0.12,0.648 -0.096,0.432 -0.264,0.96 -0.144,0.504 -0.288,0.936 -0.144,0.432 -0.216,0.648 -0.12,0.36 -0.336,1.032 -0.216,0.672 -0.384,1.344001 -0.168,0.672 -0.168,1.056 0,0.048 0.024,0.216 0.024,0.144 0.12,0.144 0.12,0 0.432,-0.192 0.336,-0.216 0.696,-0.408 0.36,-0.192 0.552,-0.192 0.096,0 0.12,0.048 0,0.096 -0.312,0.336 -0.312,0.216 -0.672,0.456 -0.336,0.216 -0.456,0.336 -0.24,0.216 -0.576,0.408 -0.336,0.192 -0.672,0.192 z"
       style="font-size:24px;stroke:#074467;stroke-width:1"
       id="path4381" /></g><g
     aria-label="voleremo "
     id="text1903"
     style="font-size:24px;fill:none;fill-opacity:0;stroke:#000000;stroke-width:1;stroke-linecap:round;stroke-linejoin:round;stroke-miterlimit:1078.7"
     transform="translate(-1.7141624,3.3563821)"><path
       d="m 193.36807,148.65192 q -0.096,0 -0.216,-0.048 -0.096,-0.024 -0.096,-0.12 0,-0.192 0.12,-0.36 0.144,-0.168 0.24,-0.288 0.024,-0.024 0.024,-0.216 0,-0.6 -0.024,-1.488 0,-0.912 -0.048,-1.776 -0.024,-0.888 -0.096,-1.41601 -0.168,0 -0.312,-0.36 -0.144,-0.36 -0.24,-0.768 -0.072,-0.432 -0.072,-0.576 0,-0.24 0.24,-0.6 0.264,-0.384 0.576,-0.552 0.12,-0.072 0.24,-0.096 0.144,-0.024 0.24,-0.024 0.072,0 0.12,0.144 0.144,0.6 0.192,1.848 0.048,1.224 0.048,2.49601 0,1.104 0,1.728 0,0.624 -0.024,1.176 1.248,-1.056 2.04,-2.4 0.79201,-1.344 1.22401,-2.90401 0.048,-0.12 0.048,-0.264 0.024,-0.144 0.048,-0.264 -0.096,-0.336 -0.216,-0.696 -0.096,-0.384 -0.096,-0.696 0,-0.288 0.144,-0.576 0.144,-0.288 0.456,-0.288 0.048,0 0.12,0 0.072,0 0.12,0.024 0.192,0.072 0.264,0.456 0.072,0.384 0.072,0.816 0.024,0.432 0.048,0.624 0.048,0.384 0.288,0.744 0.264,0.336 0.504,0.576 0.24,0.216 0.24,0.288 0,0.096 -0.096,0.168 -0.072,0.072 -0.168,0.072 -0.24,0 -0.576,-0.312 -0.336,-0.312 -0.504,-0.48 -0.288,1.008 -0.984,2.11201 -0.69601,1.08 -1.53601,2.064 -0.84,0.96 -1.656,1.632 -0.072,0.144 -0.288,0.312 -0.192,0.168 -0.312,0.288 z"
       style="font-family:'Moon Dance';-inkscape-font-specification:'Moon Dance';stroke:#074467;stroke-width:1"
       id="path4384" /><path
       d="m 201.28807,148.60392 q -0.888,0 -1.2,-0.504 -0.312,-0.528 -0.312,-1.344 0,-0.864 0.264,-1.656 0.264,-0.792 0.576,-1.584 -0.168,-0.12 -0.312,-0.31201 -0.12,-0.192 -0.12,-0.552 0,-0.408 0.48,-1.032 0.48,-0.648 1.08001,-1.128 0.264,-0.216 0.696,-0.456 0.432,-0.264 0.888,-0.432 0.456,-0.192 0.744,-0.192 1.008,0 1.344,0.816 0.336,0.816 0.24,1.944 0.096,-0.048 0.336,-0.144 0.264,-0.096 0.504,-0.168 0.24,-0.096 0.288,-0.096 0.12,0 0.24,0.12 0.12,0.12 0.12,0.24 0,0.072 -0.072,0.12 l -1.512,0.576 q -0.144,0.74401 -0.48,1.72801 -0.312,0.984 -0.864,1.92 -0.528,0.912 -1.272,1.536 -0.72,0.6 -1.65601,0.6 z m 1.15201,-5.64001 q 0.6,0 1.152,-0.12 0.552,-0.144 1.2,-0.36 0.024,-0.12 0.024,-0.264 0.024,-0.144 0.024,-0.264 0,-0.288 -0.072,-0.648 -0.048,-0.36 -0.24,-0.624 -0.168,-0.288 -0.528,-0.288 -0.408,0 -0.792,0.312 -0.384,0.312 -0.72,0.744 -0.312,0.432 -0.552,0.84 -0.216,0.408 -0.312,0.6 0.432,0.072 0.816,0.072 z m -0.936,4.99201 q 0.672,0 1.176,-0.432 0.528,-0.456 0.912,-1.176 0.384,-0.72 0.648,-1.56 0.288,-0.84 0.456,-1.65601 -0.72,0.24 -1.656,0.48001 -0.912,0.216 -1.68,0.12 -0.24001,0.648 -0.43201,1.464 -0.168,0.816 -0.168,1.512 0,0.384 0.12,0.816 0.144,0.432 0.62401,0.432 z"
       style="font-family:'Moon Dance';-inkscape-font-specification:'Moon Dance';stroke:#074467;stroke-width:1"
       id="path4386" /><path
       d="m 207.26404,148.33992 q -0.216,0 -0.384,-0.12 -0.144,-0.12 -0.144,-0.36 0,-0.336 0.048,-0.84 0.048,-0.504 0.096,-0.864 0.192,-1.152 0.432,-2.304 0.26401,-1.17601 0.57601,-2.30401 0.288,-1.104 0.672,-2.328 0.384,-1.248 0.936,-2.424 0.552,-1.17601 1.344,-2.11201 0.816,-0.96 1.944,-1.464 0.288,-0.12 0.6,-0.192 0.312,-0.096 0.624,-0.096 0.288,0 0.67201,0.12 0.408,0.12 0.696,0.36 0.288,0.216 0.288,0.576 0,0.144 -0.072,0.216 -0.048,0.072 -0.384,0.312 -0.312,0.216 -0.36,0.24 -0.048,-0.048 -0.048,-0.072 0,-0.072 0.072,-0.144 0.072,-0.072 0.072,-0.168 0,-0.24 -0.264,-0.432 -0.26401,-0.216 -0.60001,-0.336 -0.336,-0.144 -0.552,-0.144 -0.792,0 -1.464,0.672 -0.648,0.672 -1.176,1.728 -0.528,1.03201 -0.936,2.20801 -0.408,1.152 -0.696,2.184 -0.288,1.032 -0.456,1.656 -0.192,0.696 -0.408,1.56001 -0.216,0.864 -0.384,1.752 -0.144,0.864 -0.144,1.608 0,0.216 0.072,0.456 0.096,0.216 0.36,0.216 0.36,0 0.744,-0.24 0.408,-0.24 0.768,-0.552 0.384,-0.336 0.648,-0.576 0.288,-0.24 0.384,-0.24 0.048,0 0.048,0.048 0,0.168 -0.096,0.336 -0.096,0.168 -0.216,0.288 -0.312,0.312 -0.888,0.744 -0.576,0.408 -1.224,0.72 -0.648,0.312 -1.20001,0.312 z"
       style="font-family:'Moon Dance';-inkscape-font-specification:'Moon Dance';stroke:#074467;stroke-width:1"
       id="path4388" /><path
       d="m 216.33605,143.05991 q -0.12,0 -0.12,-0.12 0,-0.072 0.024,-0.12 0.144,-0.384 0.216,-0.72 0.096,-0.36 0.096,-0.744 0,-0.144 -0.024,-0.384 0,-0.264 -0.096,-0.48 -0.072,-0.216 -0.288,-0.216 -0.096,0 -0.168,0.024 -0.072,0 -0.168,0 -0.24,0 -0.24,-0.192 0,-0.096 0.216,-0.168 0.24,-0.072 0.504,-0.12 0.264,-0.048 0.36,-0.048 0.6,0 0.744,0.456 0.168,0.432 0.168,0.912 0,0.456 -0.168,0.96 -0.144,0.504 -0.552,0.768 -0.096,0.072 -0.24,0.144 -0.144,0.048 -0.264,0.048 z m -3.576,5.47201 q -0.696,0 -0.984,-0.336 -0.264,-0.336 -0.264,-0.984 0,-0.72 0.168,-1.44 0.168,-0.72 0.408,-1.392 l -0.216,0.072 q -0.12,-0.072 -0.12,-0.24 0,-0.216 0.192,-0.408 0.216,-0.216 0.432,-0.24 0.144,-0.36001 0.408,-0.93601 0.264,-0.576 0.6,-1.152 0.36,-0.576 0.792,-0.96 0.432,-0.384 0.936,-0.384 0.216,0 0.216,0.192 0,0.072 -0.096,0.192 -0.096,0.096 -0.144,0.144 -0.312,0.288 -0.6,0.816 -0.288,0.504 -0.528,1.056 -0.24,0.528 -0.408,0.93601 0.672,-0.096 1.32,-0.14401 0.672,-0.048 1.344,-0.048 0.072,0 0.36,0.024 0.288,0 0.648,0.048 0.36,0.024 0.6,0.096 0.264,0.072 0.264,0.192 0,0.096 -0.12,0.12 -0.096,0.024 -0.144,0.024 -0.312,0 -0.6,-0.048 -0.288,-0.048 -0.6,-0.048 -0.816,0 -1.656,0.12 -0.84,0.12 -1.656,0.288 -0.24,0.624 -0.48,1.416 -0.216,0.792 -0.216,1.488 0,0.384 0.144,0.744 0.144,0.336 0.6,0.336 0.648,0 1.224,-0.504 0.6,-0.528 1.104,-1.176 0.504,-0.672 0.84,-1.104 h 0.024 q 0.096,0 0.096,0.096 0.024,0.096 0.024,0.144 0,0.408 -0.192,0.768 -0.192,0.336 -0.48,0.624 -0.648,0.6 -1.488,1.104 -0.816,0.504 -1.752,0.504 z"
       style="font-family:'Moon Dance';-inkscape-font-specification:'Moon Dance';stroke:#074467;stroke-width:1"
       id="path4390" /><path
       d="m 218.52002,148.79592 q -0.192,0 -0.24,-0.144 0.096,-0.216 0.192,-0.432 0.096,-0.216 0.168,-0.456 0.432,-1.272 0.768,-2.568 0.36,-1.296 0.69601,-2.59201 l 0.192,-0.744 q 0,-0.072 -0.168,-0.048 -0.168,0 -0.192,-0.072 0.168,-0.432 0.288,-0.864 0.144,-0.456 0.312,-0.888 0.072,-0.192 0.456,-0.36 0.384,-0.168 0.576,-0.168 0.336,0 0.336,0.312 0,0.168 -0.168,0.696 -0.144,0.504 -0.384,1.2 -0.216,0.672 -0.48,1.392 -0.24,0.69601 -0.456,1.29601 -0.192,0.576 -0.288,0.888 0.432,-0.864 1.032,-1.87201 0.6,-1.008 1.32,-1.92 0.72,-0.912 1.536,-1.44 0.264,-0.168 0.48,-0.168 0.504,0 0.744,0.528 0.24,0.504 0.24,0.912 0,0.144 -0.072,0.456 -0.072,0.288 -0.216,0.552 -0.12,0.24 -0.312,0.24 -0.144,0 -0.192,-0.216 -0.048,-0.24 -0.096,-0.528 -0.048,-0.312 -0.168,-0.528 -0.12,-0.24 -0.384,-0.24 -0.384,0 -0.864,0.48 -0.48,0.456 -0.984,1.176 -0.504,0.72001 -0.984,1.53601 -0.456,0.792 -0.816,1.464 -0.336,0.672 -0.48001,1.032 0.024,0.072 0.024,0.216 0,0.264 -0.12001,0.624 -0.096,0.336 -0.216,0.6 0,0.144 -0.216,0.288 -0.192,0.144 -0.456,0.24 -0.264,0.12 -0.408,0.12 z"
       style="font-family:'Moon Dance';-inkscape-font-specification:'Moon Dance';stroke:#074467;stroke-width:1"
       id="path4392" /><path
       d="m 230.83203,143.05991 q -0.12,0 -0.12,-0.12 0,-0.072 0.024,-0.12 0.144,-0.384 0.216,-0.72 0.096,-0.36 0.096,-0.744 0,-0.144 -0.024,-0.384 0,-0.264 -0.096,-0.48 -0.072,-0.216 -0.288,-0.216 -0.096,0 -0.168,0.024 -0.072,0 -0.168,0 -0.24,0 -0.24,-0.192 0,-0.096 0.216,-0.168 0.24,-0.072 0.504,-0.12 0.264,-0.048 0.36,-0.048 0.6,0 0.744,0.456 0.168,0.432 0.168,0.912 0,0.456 -0.168,0.96 -0.144,0.504 -0.552,0.768 -0.096,0.072 -0.24,0.144 -0.144,0.048 -0.264,0.048 z m -3.576,5.47201 q -0.696,0 -0.98401,-0.336 -0.264,-0.336 -0.264,-0.984 0,-0.72 0.168,-1.44 0.16801,-0.72 0.40801,-1.392 l -0.216,0.072 q -0.12001,-0.072 -0.12001,-0.24 0,-0.216 0.19201,-0.408 0.216,-0.216 0.432,-0.24 0.144,-0.36001 0.408,-0.93601 0.264,-0.576 0.6,-1.152 0.36,-0.576 0.792,-0.96 0.432,-0.384 0.936,-0.384 0.216,0 0.216,0.192 0,0.072 -0.096,0.192 -0.096,0.096 -0.144,0.144 -0.312,0.288 -0.6,0.816 -0.288,0.504 -0.528,1.056 -0.24,0.528 -0.408,0.93601 0.672,-0.096 1.32,-0.14401 0.672,-0.048 1.344,-0.048 0.072,0 0.36,0.024 0.288,0 0.648,0.048 0.36,0.024 0.6,0.096 0.264,0.072 0.264,0.192 0,0.096 -0.12,0.12 -0.096,0.024 -0.144,0.024 -0.312,0 -0.6,-0.048 -0.288,-0.048 -0.6,-0.048 -0.816,0 -1.656,0.12 -0.84,0.12 -1.656,0.288 -0.24,0.624 -0.48,1.416 -0.216,0.792 -0.216,1.488 0,0.384 0.144,0.744 0.144,0.336 0.6,0.336 0.648,0 1.224,-0.504 0.6,-0.528 1.104,-1.176 0.504,-0.672 0.84,-1.104 h 0.024 q 0.096,0 0.096,0.096 0.024,0.096 0.024,0.144 0,0.408 -0.192,0.768 -0.192,0.336 -0.48,0.624 -0.648,0.6 -1.488,1.104 -0.816,0.504 -1.752,0.504 z"
       style="font-family:'Moon Dance';-inkscape-font-specification:'Moon Dance';stroke:#074467;stroke-width:1"
       id="path4394" /><path
       d="m 232.968,148.79592 q -0.192,0 -0.192,-0.144 l 0.312,-0.912 q 0.096,-0.288 0.144,-0.576 0.048,-0.312 0.12,-0.624 0.144,-0.6 0.288,-1.176 0.168,-0.576 0.336,-1.176 0.144,-0.48 0.264,-0.96001 0.144,-0.504 0.192,-1.008 0.048,-0.072 -0.144,-0.048 -0.192,0 -0.192,-0.096 0.192,-0.432 0.288,-0.888 0.12,-0.456 0.288,-0.888 0.072,-0.192 0.38401,-0.36 0.312,-0.168 0.504,-0.168 0.336,0 0.336,0.432 0,0.312 -0.168,1.032 -0.168,0.72 -0.408,1.584 -0.24,0.84001 -0.48001,1.56001 -0.216,0.72 -0.312,1.056 0.76801,-1.368 1.70401,-2.59201 0.96,-1.248 2.16,-2.256 0.216,-0.192 0.528,-0.192 0.648,0 0.648,0.552 0,0.312 -0.12,0.936 -0.12,0.624 -0.312,1.368 -0.192,0.72001 -0.36,1.36801 -0.168,0.624 -0.288,0.96 0.552,-0.552 1.176,-1.2 0.624,-0.672 1.176,-1.39201 0.552,-0.744 0.888,-1.416 0,-0.216 0.24001,-0.336 0.264,-0.12 0.432,-0.12 0.072,0 0.216,0.048 0.096,-0.048 0.144,-0.048 0.216,0 0.264,0.336 0.072,0.312 0.072,0.456 0,0.264 -0.072,0.744 -0.048,0.456 -0.336,0.6 -0.024,0.28801 -0.048,0.60001 0,0.288 0,0.576 0,0.264 0.024,0.768 0.048,0.504 0.168,1.032 0.12,0.504 0.36,0.864 0.24,0.36 0.624,0.36 0.432,0 0.744,-0.24 0.336,-0.24 0.552,-0.552 0.24,-0.312 0.384,-0.552 0.144,-0.24 0.216,-0.24 0.12,0 0.12,0.12 0,0.072 -0.048,0.216 -0.144,0.432 -0.504,0.912 -0.36,0.456 -0.816,0.792 -0.456,0.336 -0.96,0.336 -0.6,0 -1.008,-0.408 -0.384,-0.432 -0.62401,-1.056 -0.216,-0.648 -0.312,-1.296 -0.072,-0.648 -0.072,-1.104 0,-0.456 0.024,-0.888 0.048,-0.45601 0.096,-0.91201 -0.216,0.312 -0.456,0.6 -0.24,0.28801 -0.456,0.57601 l -1.92,2.4 q 0,0.36 -0.168,0.84 -0.144,0.456 -0.456,0.792 -0.288,0.336 -0.744,0.336 -0.168,0 -0.192,-0.12 0,-0.144 0.024,-0.24 -0.048,-0.048 -0.072,-0.12 0,-0.096 0,-0.168 0,-0.192 0.096,-0.672 0.12,-0.48 0.264,-1.032 0.168,-0.576 0.312,-1.056 0.144,-0.48 0.216,-0.696 0.144,-0.528 0.264,-1.08001 0.144,-0.552 0.144,-1.08 0,-0.096 -0.024,-0.24 -0.024,-0.144 -0.168,-0.144 -0.264,0 -0.648,0.36 -0.36,0.36 -0.768,0.864 -0.384,0.504 -0.696,0.96001 -0.312,0.456 -0.432,0.648 -0.264,0.384 -0.696,1.08 -0.43201,0.672 -0.76801,1.392 -0.336,0.72 -0.336,1.2 v 0.096 q 0,0.216 -0.384,0.456 -0.36,0.264 -0.576,0.264 z"
       style="font-family:'Moon Dance';-inkscape-font-specification:'Moon Dance';stroke:#074467;stroke-width:1"
       id="path4396" /><path
       d="m 246.792,148.60392 q -0.888,0 -1.2,-0.504 -0.312,-0.528 -0.312,-1.344 0,-0.864 0.264,-1.656 0.264,-0.792 0.576,-1.584 -0.168,-0.12 -0.312,-0.31201 -0.12,-0.192 -0.12,-0.552 0,-0.408 0.48,-1.032 0.48,-0.648 1.08,-1.128 0.264,-0.216 0.696,-0.456 0.432,-0.264 0.888,-0.432 0.456,-0.192 0.744,-0.192 1.00801,0 1.34401,0.816 0.336,0.816 0.24,1.944 0.096,-0.048 0.336,-0.144 0.264,-0.096 0.504,-0.168 0.24,-0.096 0.288,-0.096 0.12,0 0.24,0.12 0.12,0.12 0.12,0.24 0,0.072 -0.072,0.12 l -1.512,0.576 q -0.144,0.74401 -0.48,1.72801 -0.312,0.984 -0.86401,1.92 -0.528,0.912 -1.272,1.536 -0.72,0.6 -1.656,0.6 z m 1.152,-5.64001 q 0.6,0 1.152,-0.12 0.552,-0.144 1.20001,-0.36 0.024,-0.12 0.024,-0.264 0.024,-0.144 0.024,-0.264 0,-0.288 -0.072,-0.648 -0.048,-0.36 -0.24,-0.624 -0.168,-0.288 -0.52801,-0.288 -0.408,0 -0.792,0.312 -0.384,0.312 -0.72,0.744 -0.312,0.432 -0.552,0.84 -0.216,0.408 -0.312,0.6 0.432,0.072 0.816,0.072 z m -0.936,4.99201 q 0.672,0 1.176,-0.432 0.528,-0.456 0.912,-1.176 0.384,-0.72 0.648,-1.56 0.28801,-0.84 0.45601,-1.65601 -0.72001,0.24 -1.65601,0.48001 -0.912,0.216 -1.68,0.12 -0.24,0.648 -0.432,1.464 -0.168,0.816 -0.168,1.512 0,0.384 0.12,0.816 0.144,0.432 0.624,0.432 z"
       style="font-family:'Moon Dance';-inkscape-font-specification:'Moon Dance';stroke:#074467;stroke-width:1"
       id="path4398" /></g><g
     aria-label="in luna di miele"
     id="text1907"
     style="font-size:24px;fill:none;fill-opacity:0;stroke:#074467;stroke-width:1;stroke-linecap:round;stroke-linejoin:round;stroke-miterlimit:1078.7"
     transform="translate(-1.7141624,3.3563821)"><path
       d="m 33.13421,333.17189 q -0.096,0 -0.192001,-0.192 -0.072,-0.192 -0.12,-0.408 -0.024,-0.24 -0.024,-0.336 0,-0.048 0,-0.12 0.024,-0.096 0.096,-0.12 0.408001,-0.048 0.768001,-0.144 0.384001,-0.096 0.768002,-0.216 0.048,-0.024 0.168,-0.024 0.192,0 0.192,0.216 0,0.48 -0.456001,0.792 -0.264,0.168 -0.576,0.36 -0.288001,0.192 -0.624001,0.192 z m -2.352004,9.67201 q -0.36,0 -0.36,-0.384 0,-0.408 0.144,-1.056 0.144,-0.672 0.336001,-1.344 0.192,-0.672 0.288,-1.056 0.024,-0.096 0.144,-0.504 0.12,-0.432 0.264001,-0.936 0.144,-0.504 0.24,-0.88801 0.12,-0.408 0.12,-0.48 0,-0.12 -0.144,-0.216 -0.12,-0.096 -0.12,-0.216 0,-0.072 0.024,-0.144 0.024,-0.072 0.048,-0.12 0.072,-0.12 0.36,-0.312 0.288001,-0.192 0.600001,-0.336 0.336001,-0.168 0.456001,-0.168 0.072,0 0.096,0.024 0.024,0.048 0.024,0.168 0,0.216 -0.12,0.648 -0.096,0.432 -0.264001,0.96 -0.144,0.50401 -0.288,0.93601 -0.144,0.432 -0.216,0.648 -0.12,0.36 -0.336001,1.032 -0.216,0.672 -0.384,1.344 -0.168001,0.672 -0.168001,1.056 0,0.048 0.024,0.216 0.024,0.144 0.120001,0.144 0.12,0 0.432,-0.192 0.336001,-0.216 0.696001,-0.408 0.360001,-0.192 0.552001,-0.192 0.096,0 0.12,0.048 0,0.096 -0.312,0.336 -0.312001,0.216 -0.672001,0.456 -0.336001,0.216 -0.456001,0.336 -0.24,0.216 -0.576001,0.408 -0.336,0.192 -0.672001,0.192 z"
       style="font-family:'Moon Dance';-inkscape-font-specification:'Moon Dance';stroke-width:1"
       id="path4401" /><path
       d="m 34.670166,343.1079 q -0.192,0 -0.192,-0.144 l 0.312001,-0.912 q 0.12,-0.312 0.144,-0.6 0.048,-0.312 0.144,-0.624 0.144,-0.624 0.312,-1.248 0.168001,-0.624 0.360001,-1.224 0.072,-0.216 0.192,-0.624 0.12,-0.408 0.216001,-0.816 0.12,-0.43201 0.12,-0.64801 0,-0.12 -0.168001,-0.096 -0.144,0.024 -0.168,-0.048 0.168,-0.432 0.288001,-0.888 0.12,-0.456 0.288,-0.888 0.072,-0.192 0.384001,-0.36 0.312,-0.192 0.504,-0.192 0.336001,0 0.336001,0.432 0,0.384 -0.192,1.176 -0.192001,0.792 -0.504001,1.72801 -0.288001,0.936 -0.576001,1.824 -0.264,0.864 -0.456001,1.416 0.768001,-0.72 1.536003,-1.584 0.768001,-0.864 1.392002,-1.728 0.648,-0.88801 1.008001,-1.60801 0,-0.264 0.336,-0.36 0.360001,-0.096 0.552001,-0.048 0.096,-0.048 0.144,-0.048 0.216001,0 0.264001,0.336 0.072,0.312 0.072,0.456 0,0.264 -0.072,0.744 -0.048,0.45601 -0.336001,0.60001 -0.024,0.192 -0.024,0.408 0,0.192 0,0.384 0,0.288 0.024,0.96 0.048,0.648 0.168001,1.368 0.12,0.72 0.384,1.248 0.264,0.504 0.720001,0.504 0.432001,0 0.744001,-0.24 0.336001,-0.24 0.576001,-0.552 0.24,-0.312 0.384001,-0.552 0.144,-0.24 0.216,-0.24 0.12,0 0.12,0.144 0,0.336 -0.36,0.816 -0.336001,0.48 -0.576001,0.72 -0.264001,0.288 -0.624001,0.504 -0.360001,0.216 -0.768001,0.216 -0.720001,0 -1.128002,-0.504 -0.408,-0.528 -0.624001,-1.272 -0.192,-0.768 -0.264,-1.536 -0.048,-0.792 -0.048,-1.296 0,-0.456 0,-0.888 0.024,-0.432 0.048,-0.86401 -0.384001,0.67201 -0.888001,1.29601 -0.504001,0.624 -0.984002,1.224 -0.720001,0.816 -1.416002,1.776 -0.12,0.168 -0.24,0.408 -0.096,0.216 -0.264001,0.384 l -0.048,0.048 q -0.168,0.456 -0.216,0.696 -0.048,0.24 -0.480001,0.528 -0.144,0.096 -0.312,0.192 -0.168,0.096 -0.360001,0.096 z"
       style="font-family:'Moon Dance';-inkscape-font-specification:'Moon Dance';stroke-width:1"
       id="path4403" /><path
       d="m 50.606103,342.6519 q -0.216001,0 -0.384001,-0.12 -0.144,-0.12 -0.144,-0.36 0,-0.336 0.048,-0.84 0.048,-0.504 0.096,-0.864 0.192,-1.152 0.432001,-2.304 0.264,-1.176 0.576001,-2.30401 0.288,-1.104 0.672001,-2.328 0.384,-1.248 0.936001,-2.424 0.552001,-1.176 1.344002,-2.11201 0.816001,-0.96 1.944003,-1.464 0.288,-0.12 0.600001,-0.192 0.312,-0.096 0.624,-0.096 0.288001,0 0.672001,0.12 0.408001,0.12 0.696001,0.36 0.288001,0.216 0.288001,0.576 0,0.144 -0.072,0.216 -0.048,0.072 -0.384001,0.312 -0.312,0.216 -0.36,0.24 -0.048,-0.048 -0.048,-0.072 0,-0.072 0.072,-0.144 0.072,-0.072 0.072,-0.168 0,-0.24 -0.264001,-0.432 -0.264,-0.216 -0.6,-0.336 -0.336001,-0.144 -0.552001,-0.144 -0.792001,0 -1.464002,0.672 -0.648001,0.672 -1.176002,1.72801 -0.528001,1.032 -0.936001,2.208 -0.408001,1.152 -0.696001,2.184 -0.288001,1.032 -0.456001,1.656 -0.192,0.69601 -0.408001,1.56001 -0.216,0.864 -0.384,1.752 -0.144,0.864 -0.144,1.608 0,0.216 0.072,0.456 0.096,0.216 0.36,0.216 0.360001,0 0.744001,-0.24 0.408001,-0.24 0.768001,-0.552 0.384001,-0.336 0.648001,-0.576 0.288001,-0.24 0.384001,-0.24 0.048,0 0.048,0.048 0,0.168 -0.096,0.336 -0.096,0.168 -0.216,0.288 -0.312001,0.312 -0.888002,0.744 -0.576001,0.408 -1.224002,0.72 -0.648,0.312 -1.200001,0.312 z"
       style="font-family:'Moon Dance';-inkscape-font-specification:'Moon Dance';stroke-width:1"
       id="path4405" /><path
       d="m 59.36611,342.9159 q -0.192,0 -0.384001,-0.144 -0.168,-0.144 -0.168,-0.36 0,-0.744 0.168,-1.656 0.192001,-0.912 0.432001,-1.824 0.24,-0.936 0.408001,-1.68 -0.192001,0.36 -0.648001,1.032 -0.456001,0.672 -1.056002,1.464 -0.600001,0.768 -1.248002,1.488 -0.624001,0.696 -1.200001,1.152 -0.552001,0.456 -0.936002,0.456 -0.192,0 -0.288,-0.144 -0.072,-0.144 -0.072,-0.312 0,-0.288 0.168,-0.816 0.168,-0.552 0.384001,-1.176 0.24,-0.648 0.456,-1.224 0.240001,-0.576 0.336001,-0.96 l 0.384,-1.344 h -0.048 q -0.072,0 -0.168,-0.048 -0.072,-0.048 -0.072,-0.144 0,-0.024 0,-0.048 0.024,-0.024 0.024,-0.048 0.12,-0.48 0.168,-1.008 0.048,-0.552 0.288001,-0.936 0.264,-0.384 0.912001,-0.384 0.408,0 0.408,0.408 0,0.336 -0.192,1.104 -0.192,0.744 -0.480001,1.63201 -0.264,0.888 -0.528,1.68 -0.264001,0.768 -0.384001,1.176 -0.048,0.168 -0.192,0.6 -0.144,0.408 -0.144,0.576 l 0.024,0.048 q 0.024,0 0.072,-0.048 0.960001,-0.6 1.776002,-1.656 0.840002,-1.056 1.512003,-2.232 0.696001,-1.17601 1.200001,-2.13601 -0.024,-0.12 -0.024,-0.216 0,-0.096 0,-0.192 0,-0.528 0.432001,-0.72 0.456,-0.192 0.888001,-0.192 0.144,0 0.312001,0.048 0.168,0.048 0.168,0.24 0,0.096 -0.048,0.192 -0.024,0.072 -0.072,0.168 -0.432001,0.84 -0.768002,1.704 -0.312,0.86401 -0.6,1.77601 -0.120001,0.408 -0.312001,1.056 -0.192,0.624 -0.336,1.272 -0.12,0.624 -0.12,1.056 0,0.168 0.048,0.384 0.072,0.192 0.288,0.192 0.192,0 0.504001,-0.216 0.312,-0.24 0.648001,-0.552 0.36,-0.312 0.624001,-0.528 0.288,-0.24 0.384,-0.24 0.072,0 0.072,0.12 0,0.072 -0.048,0.24 -0.048,0.144 -0.192,0.264 -0.264001,0.24 -0.744001,0.648 -0.480001,0.384 -1.032002,0.696 -0.528,0.312 -0.984001,0.312 z"
       style="font-family:'Moon Dance';-inkscape-font-specification:'Moon Dance';stroke-width:1"
       id="path4407" /><path
       d="m 62.486078,343.1079 q -0.192,0 -0.192,-0.144 l 0.312,-0.912 q 0.120001,-0.312 0.144001,-0.6 0.048,-0.312 0.144,-0.624 0.144,-0.624 0.312,-1.248 0.168,-0.624 0.360001,-1.224 0.072,-0.216 0.192,-0.624 0.12,-0.408 0.216,-0.816 0.12,-0.43201 0.12,-0.64801 0,-0.12 -0.168,-0.096 -0.144,0.024 -0.168,-0.048 0.168,-0.432 0.288,-0.888 0.120001,-0.456 0.288001,-0.888 0.072,-0.192 0.384,-0.36 0.312001,-0.192 0.504001,-0.192 0.336001,0 0.336001,0.432 0,0.384 -0.192001,1.176 -0.192,0.792 -0.504,1.72801 -0.288001,0.936 -0.576001,1.824 -0.264001,0.864 -0.456001,1.416 0.768001,-0.72 1.536002,-1.584 0.768001,-0.864 1.392002,-1.728 0.648001,-0.88801 1.008002,-1.60801 0,-0.264 0.336,-0.36 0.360001,-0.096 0.552001,-0.048 0.096,-0.048 0.144,-0.048 0.216001,0 0.264001,0.336 0.072,0.312 0.072,0.456 0,0.264 -0.072,0.744 -0.048,0.45601 -0.336001,0.60001 -0.024,0.192 -0.024,0.408 0,0.192 0,0.384 0,0.288 0.024,0.96 0.048,0.648 0.168,1.368 0.120001,0.72 0.384001,1.248 0.264,0.504 0.720001,0.504 0.432001,0 0.744001,-0.24 0.336,-0.24 0.576001,-0.552 0.24,-0.312 0.384,-0.552 0.144001,-0.24 0.216001,-0.24 0.12,0 0.12,0.144 0,0.336 -0.360001,0.816 -0.336,0.48 -0.576001,0.72 -0.264,0.288 -0.624,0.504 -0.360001,0.216 -0.768001,0.216 -0.720002,0 -1.128002,-0.504 -0.408001,-0.528 -0.624001,-1.272 -0.192,-0.768 -0.264,-1.536 -0.048,-0.792 -0.048,-1.296 0,-0.456 0,-0.888 0.024,-0.432 0.048,-0.86401 -0.384001,0.67201 -0.888002,1.29601 -0.504,0.624 -0.984001,1.224 -0.720001,0.816 -1.416002,1.776 -0.12,0.168 -0.24,0.408 -0.096,0.216 -0.264001,0.384 l -0.048,0.048 q -0.168,0.456 -0.216,0.696 -0.048,0.24 -0.480001,0.528 -0.144,0.096 -0.312,0.192 -0.168001,0.096 -0.360001,0.096 z"
       style="font-family:'Moon Dance';-inkscape-font-specification:'Moon Dance';stroke-width:1"
       id="path4409" /><path
       d="m 78.422062,342.8439 q -0.672001,0 -1.008002,-0.48 -0.336,-0.48 -0.456,-1.104 -0.096,-0.648 -0.096,-1.152 0,-0.504 0.048,-0.984 0.072,-0.504 0.144,-0.984 -0.240001,0.312 -0.672001,0.888 -0.432001,0.552 -0.984002,1.224 -0.552,0.648 -1.128001,1.248 -0.576001,0.576 -1.128002,0.96 -0.528001,0.36 -0.912001,0.36 -0.336001,0 -0.432001,-0.312 -0.072,-0.312 -0.072,-0.552 0,-1.08 0.432001,-2.28 0.432,-1.2 0.888001,-2.16 0.12,-0.264 0.360001,-0.72001 0.24,-0.456 0.552,-0.936 0.336001,-0.48 0.696001,-0.792 0.360001,-0.312 0.720001,-0.264 0.264001,-0.168 0.504001,-0.288 0.264,-0.144 0.576001,-0.144 0.192,0 0.624001,0.12 0.456,0.12 0.648001,0.168 0.096,-0.192 0.288,-0.288 0.192,-0.096 0.384001,-0.096 0.192,0 0.264,0.024 0.096,-0.048 0.144,-0.048 0.144001,0 0.192001,0.216 0.048,0.192 0.048,0.312 0,0.312 -0.072,0.552 -0.072,0.24 -0.192001,0.528 -0.096,0.24 -0.168,0.456 -0.048,0.192 -0.264,0.36 -0.168001,0.86401 -0.264001,1.75201 -0.072,0.864 -0.072,1.752 0,0.312 0.024,0.744 0.048,0.432 0.216001,0.768 0.192,0.336 0.576,0.336 0.600001,0 1.056002,-0.432 0.480001,-0.456 0.792001,-0.864 0.048,-0.072 0.12,-0.144 0.072,-0.096 0.168,-0.144 l 0.072,0.144 q 0,0.24 -0.24,0.576 -0.24,0.336 -0.528001,0.648 -0.288,0.288 -0.48,0.432 -0.288001,0.24 -0.648001,0.432 -0.336001,0.168 -0.720001,0.168 z m -5.376008,-1.008 q 0.144,0 0.312001,-0.12 0.168,-0.12 0.264,-0.216 1.128001,-0.984 1.992003,-2.208 0.888001,-1.224 1.536002,-2.54401 0.072,-0.12 0.144,-0.264 0.072,-0.144 0.096,-0.288 0.048,-0.192 0.096,-0.408 0.048,-0.24 0.072,-0.432 -0.024,-0.12 -0.264001,-0.216 -0.24,-0.096 -0.528001,-0.144 -0.264,-0.072 -0.384,-0.072 -0.456001,0 -0.816001,0.384 -0.336001,0.36 -0.576001,0.696 -0.288001,0.432 -0.672001,1.12801 -0.360001,0.696 -0.720001,1.488 -0.336001,0.768 -0.576001,1.488 -0.216,0.72 -0.216,1.224 0,0.12 0.024,0.312 0.048,0.192 0.216001,0.192 z"
       style="font-family:'Moon Dance';-inkscape-font-specification:'Moon Dance';stroke-width:1"
       id="path4411" /><path
       d="m 87.134002,342.7959 q -0.456001,0 -0.576001,-0.408 -0.12,-0.432 -0.12,-0.792 0,-1.056 0.384,-2.136 0.408001,-1.104 0.864001,-2.016 0.216001,-0.432 0.552001,-1.00801 0.360001,-0.6 0.792001,-1.104 0.456001,-0.504 0.936002,-0.624 0.48,-0.12 0.672001,-0.312 0.192,-0.192 0.624,-0.192 0.360001,0 0.696001,0.096 0.360001,0.072 0.696001,0.168 0.312001,-1.032 0.720001,-2.04 0.432001,-1.008 0.528001,-2.064 -0.096,-0.072 -0.168,-0.144 -0.072,-0.096 -0.144,-0.192 0.192,-0.45601 0.312,-0.88801 0.144,-0.456 0.288001,-0.912 0.072,-0.192 0.36,-0.36 0.312001,-0.168 0.504001,-0.168 0.336,0 0.336,0.432 0,0.312 -0.144,0.864 -0.144,0.552 -0.336,1.10401 -0.168001,0.528 -0.288001,0.84 -0.336,0.96 -0.672001,1.92 -0.336,0.96 -0.600001,1.944 0.120001,0.024 0.264001,0.144 0.168,0.096 0.168,0.24 0,0.096 -0.12,0.12 -0.12,0 -0.168,0 -0.096,0 -0.168001,0 -0.072,-0.024 -0.144,-0.024 -0.144,0.408 -0.36,1.224 -0.216001,0.81601 -0.432001,1.75201 -0.192,0.936 -0.336,1.752 -0.120001,0.816 -0.120001,1.248 0,0.192 0.072,0.432 0.072,0.24 0.312,0.24 0.264,0 0.600001,-0.264 0.336,-0.264 0.672001,-0.6 0.336,-0.336 0.600001,-0.6 0.264,-0.264 0.36,-0.264 0.048,0 0.048,0.048 0,0.168 -0.096,0.336 -0.096,0.168 -0.216,0.288 -0.312001,0.312 -0.816001,0.744 -0.480001,0.408 -1.032002,0.744 -0.528001,0.312 -1.008001,0.312 -0.360001,0 -0.456001,-0.288 -0.072,-0.288 -0.072,-0.576 0,-0.504 0.072,-1.152 0.096,-0.648 0.24,-1.296 0.144001,-0.648 0.264001,-1.128 -0.168,0.336 -0.552001,0.888 -0.384001,0.552 -0.888001,1.2 -0.504001,0.624 -1.032002,1.2 -0.528001,0.552 -1.032001,0.912 -0.480001,0.36 -0.840001,0.36 z m 0.504,-0.96 q 0.144,0 0.312001,-0.12 0.168,-0.12 0.264,-0.216 1.128002,-0.984 1.992003,-2.208 0.888001,-1.224 1.536002,-2.54401 0.12,-0.24 0.264001,-0.624 0.168,-0.384 0.168,-0.648 0,-0.192 -0.12,-0.24 -0.216001,-0.12 -0.528001,-0.216 -0.288001,-0.096 -0.552001,-0.096 -0.456001,0 -0.816001,0.384 -0.336001,0.36 -0.576001,0.696 -0.288,0.432 -0.672001,1.12801 -0.36,0.696 -0.720001,1.488 -0.336,0.768 -0.576001,1.488 -0.216,0.72 -0.216,1.224 0,0.12 0.024,0.312 0.048,0.192 0.216,0.192 z"
       style="font-family:'Moon Dance';-inkscape-font-specification:'Moon Dance';stroke-width:1"
       id="path4413" /><path
       d="m 97.045983,333.17189 q -0.096,0 -0.192,-0.192 -0.072,-0.192 -0.12,-0.408 -0.024,-0.24 -0.024,-0.336 0,-0.048 0,-0.12 0.024,-0.096 0.096,-0.12 0.408001,-0.048 0.768001,-0.144 0.384001,-0.096 0.768001,-0.216 0.048,-0.024 0.168001,-0.024 0.192,0 0.192,0.216 0,0.48 -0.456001,0.792 -0.264,0.168 -0.576001,0.36 -0.288,0.192 -0.624001,0.192 z m -2.352003,9.67201 q -0.36,0 -0.36,-0.384 0,-0.408 0.144,-1.056 0.144,-0.672 0.336,-1.344 0.192,-0.672 0.288001,-1.056 0.024,-0.096 0.144,-0.504 0.12,-0.432 0.264,-0.936 0.144,-0.504 0.240001,-0.88801 0.12,-0.408 0.12,-0.48 0,-0.12 -0.144,-0.216 -0.120001,-0.096 -0.120001,-0.216 0,-0.072 0.024,-0.144 0.024,-0.072 0.048,-0.12 0.072,-0.12 0.360001,-0.312 0.288,-0.192 0.600001,-0.336 0.336,-0.168 0.456,-0.168 0.072,0 0.096,0.024 0.024,0.048 0.024,0.168 0,0.216 -0.120001,0.648 -0.096,0.432 -0.264,0.96 -0.144,0.50401 -0.288,0.93601 -0.144001,0.432 -0.216001,0.648 -0.12,0.36 -0.336,1.032 -0.216,0.672 -0.384001,1.344 -0.168,0.672 -0.168,1.056 0,0.048 0.024,0.216 0.024,0.144 0.12,0.144 0.12,0 0.432001,-0.192 0.336,-0.216 0.696001,-0.408 0.36,-0.192 0.552001,-0.192 0.096,0 0.12,0.048 0,0.096 -0.312001,0.336 -0.312,0.216 -0.672001,0.456 -0.336,0.216 -0.456,0.336 -0.240001,0.216 -0.576001,0.408 -0.336,0.192 -0.672,0.192 z"
       style="font-family:'Moon Dance';-inkscape-font-specification:'Moon Dance';stroke-width:1"
       id="path4415" /><path
       d="m 104.5819,343.1079 q -0.192,0 -0.192,-0.144 l 0.312,-0.912 q 0.096,-0.288 0.144,-0.576 0.048,-0.312 0.12,-0.624 0.144,-0.6 0.288,-1.176 0.168,-0.576 0.336,-1.176 0.14401,-0.48 0.26401,-0.96 0.144,-0.504 0.192,-1.00801 0.048,-0.072 -0.144,-0.048 -0.19201,0 -0.19201,-0.096 0.19201,-0.432 0.28801,-0.888 0.12,-0.456 0.288,-0.888 0.072,-0.192 0.384,-0.36 0.312,-0.168 0.504,-0.168 0.336,0 0.336,0.432 0,0.312 -0.168,1.032 -0.168,0.72 -0.408,1.58401 -0.24,0.84 -0.48,1.56 -0.216,0.72 -0.312,1.056 0.768,-1.368 1.704,-2.592 0.96,-1.24801 2.16,-2.25601 0.216,-0.192 0.528,-0.192 0.648,0 0.648,0.552 0,0.312 -0.12,0.936 -0.12,0.624 -0.312,1.36801 -0.192,0.72 -0.36,1.368 -0.168,0.624 -0.288,0.96 0.552,-0.552 1.176,-1.2 0.624,-0.672 1.176,-1.392 0.55201,-0.74401 0.88801,-1.41601 0,-0.216 0.24,-0.336 0.264,-0.12 0.432,-0.12 0.072,0 0.216,0.048 0.096,-0.048 0.144,-0.048 0.216,0 0.264,0.336 0.072,0.312 0.072,0.456 0,0.264 -0.072,0.74401 -0.048,0.456 -0.336,0.6 -0.024,0.288 -0.048,0.6 0,0.288 0,0.576 0,0.264 0.024,0.768 0.048,0.504 0.168,1.032 0.12,0.504 0.36,0.864 0.24,0.36 0.624,0.36 0.432,0 0.744,-0.24 0.336,-0.24 0.552,-0.552 0.24,-0.312 0.384,-0.552 0.144,-0.24 0.216,-0.24 0.12,0 0.12,0.12 0,0.072 -0.048,0.216 -0.144,0.432 -0.504,0.912 -0.36,0.456 -0.816,0.792 -0.456,0.336 -0.96,0.336 -0.6,0 -1.008,-0.408 -0.384,-0.432 -0.624,-1.056 -0.216,-0.648 -0.312,-1.296 -0.072,-0.648 -0.072,-1.104 0,-0.456 0.024,-0.888 0.048,-0.456 0.096,-0.912 -0.216,0.312 -0.456,0.6 -0.24001,0.288 -0.45601,0.576 l -1.92,2.4 q 0,0.36 -0.168,0.84 -0.144,0.456 -0.456,0.792 -0.288,0.336 -0.744,0.336 -0.168,0 -0.192,-0.12 0,-0.144 0.024,-0.24 -0.048,-0.048 -0.072,-0.12 0,-0.096 0,-0.168 0,-0.192 0.096,-0.672 0.12,-0.48 0.264,-1.032 0.168,-0.576 0.312,-1.056 0.144,-0.48 0.216,-0.696 0.144,-0.528 0.264,-1.08 0.144,-0.55201 0.144,-1.08001 0,-0.096 -0.024,-0.24 -0.024,-0.144 -0.168,-0.144 -0.264,0 -0.648,0.36 -0.36,0.36 -0.768,0.86401 -0.384,0.504 -0.696,0.96 -0.312,0.456 -0.432,0.648 -0.264,0.384 -0.696,1.08 -0.432,0.672 -0.768,1.392 -0.33601,0.72 -0.33601,1.2 v 0.096 q 0,0.216 -0.384,0.456 -0.36,0.264 -0.576,0.264 z"
       style="font-family:'Moon Dance';-inkscape-font-specification:'Moon Dance';stroke-width:1"
       id="path4417" /><path
       d="m 119.4139,333.17189 q -0.096,0 -0.192,-0.192 -0.072,-0.192 -0.12,-0.408 -0.024,-0.24 -0.024,-0.336 0,-0.048 0,-0.12 0.024,-0.096 0.096,-0.12 0.408,-0.048 0.768,-0.144 0.384,-0.096 0.76801,-0.216 0.048,-0.024 0.168,-0.024 0.192,0 0.192,0.216 0,0.48 -0.456,0.792 -0.26401,0.168 -0.57601,0.36 -0.288,0.192 -0.624,0.192 z m -2.352,9.67201 q -0.36,0 -0.36,-0.384 0,-0.408 0.144,-1.056 0.144,-0.672 0.336,-1.344 0.192,-0.672 0.288,-1.056 0.024,-0.096 0.144,-0.504 0.12,-0.432 0.264,-0.936 0.144,-0.504 0.24,-0.88801 0.12,-0.408 0.12,-0.48 0,-0.12 -0.144,-0.216 -0.12,-0.096 -0.12,-0.216 0,-0.072 0.024,-0.144 0.024,-0.072 0.048,-0.12 0.072,-0.12 0.36,-0.312 0.288,-0.192 0.6,-0.336 0.336,-0.168 0.456,-0.168 0.072,0 0.096,0.024 0.024,0.048 0.024,0.168 0,0.216 -0.12,0.648 -0.096,0.432 -0.264,0.96 -0.144,0.50401 -0.288,0.93601 -0.144,0.432 -0.216,0.648 -0.12,0.36 -0.336,1.032 -0.216,0.672 -0.384,1.344 -0.168,0.672 -0.168,1.056 0,0.048 0.024,0.216 0.024,0.144 0.12,0.144 0.12,0 0.432,-0.192 0.336,-0.216 0.696,-0.408 0.36,-0.192 0.552,-0.192 0.096,0 0.12,0.048 0,0.096 -0.312,0.336 -0.312,0.216 -0.672,0.456 -0.336,0.216 -0.456,0.336 -0.24,0.216 -0.576,0.408 -0.336,0.192 -0.672,0.192 z"
       style="font-family:'Moon Dance';-inkscape-font-specification:'Moon Dance';stroke-width:1"
       id="path4419" /><path
       d="m 126.37387,337.3719 q -0.12,0 -0.12,-0.12 0,-0.072 0.024,-0.12 0.144,-0.38401 0.216,-0.72001 0.096,-0.36 0.096,-0.744 0,-0.144 -0.024,-0.384 0,-0.264 -0.096,-0.48 -0.072,-0.216 -0.288,-0.216 -0.096,0 -0.168,0.024 -0.072,0 -0.168,0 -0.24,0 -0.24,-0.192 0,-0.096 0.216,-0.168 0.24,-0.072 0.504,-0.12 0.264,-0.048 0.36,-0.048 0.6,0 0.744,0.456 0.168,0.432 0.168,0.912 0,0.456 -0.168,0.96 -0.144,0.50401 -0.552,0.76801 -0.096,0.072 -0.24,0.144 -0.144,0.048 -0.264,0.048 z m -3.57601,5.472 q -0.696,0 -0.984,-0.336 -0.264,-0.336 -0.264,-0.984 0,-0.72 0.168,-1.44 0.168,-0.72 0.408,-1.392 l -0.216,0.072 q -0.12,-0.072 -0.12,-0.24 0,-0.216 0.192,-0.408 0.216,-0.216 0.432,-0.24 0.144,-0.36 0.408,-0.936 0.264,-0.57601 0.6,-1.15201 0.36001,-0.576 0.79201,-0.96 0.432,-0.384 0.936,-0.384 0.216,0 0.216,0.192 0,0.072 -0.096,0.192 -0.096,0.096 -0.144,0.144 -0.312,0.288 -0.6,0.816 -0.288,0.504 -0.528,1.056 -0.24,0.52801 -0.408,0.93601 0.672,-0.096 1.32,-0.144 0.672,-0.048 1.344,-0.048 0.072,0 0.36,0.024 0.288,0 0.648,0.048 0.36,0.024 0.6,0.096 0.264,0.072 0.264,0.192 0,0.096 -0.12,0.12 -0.096,0.024 -0.144,0.024 -0.312,0 -0.6,-0.048 -0.288,-0.048 -0.6,-0.048 -0.816,0 -1.656,0.12 -0.84,0.12 -1.65601,0.288 -0.24,0.624 -0.48,1.416 -0.216,0.792 -0.216,1.488 0,0.384 0.144,0.744 0.144,0.336 0.6,0.336 0.64801,0 1.22401,-0.504 0.6,-0.528 1.104,-1.176 0.504,-0.672 0.84,-1.104 h 0.024 q 0.096,0 0.096,0.096 0.024,0.096 0.024,0.144 0,0.408 -0.192,0.768 -0.192,0.336 -0.48,0.624 -0.648,0.6 -1.488,1.104 -0.816,0.504 -1.75201,0.504 z"
       style="font-family:'Moon Dance';-inkscape-font-specification:'Moon Dance';stroke-width:1"
       id="path4421" /><path
       d="m 129.03784,342.6519 q -0.216,0 -0.384,-0.12 -0.144,-0.12 -0.144,-0.36 0,-0.336 0.048,-0.84 0.048,-0.504 0.096,-0.864 0.192,-1.152 0.432,-2.304 0.264,-1.176 0.576,-2.30401 0.288,-1.104 0.672,-2.328 0.384,-1.248 0.936,-2.424 0.552,-1.176 1.344,-2.11201 0.816,-0.96 1.944,-1.464 0.28801,-0.12 0.60001,-0.192 0.312,-0.096 0.624,-0.096 0.288,0 0.672,0.12 0.408,0.12 0.696,0.36 0.288,0.216 0.288,0.576 0,0.144 -0.072,0.216 -0.048,0.072 -0.384,0.312 -0.312,0.216 -0.36,0.24 -0.048,-0.048 -0.048,-0.072 0,-0.072 0.072,-0.144 0.072,-0.072 0.072,-0.168 0,-0.24 -0.264,-0.432 -0.264,-0.216 -0.6,-0.336 -0.336,-0.144 -0.552,-0.144 -0.79201,0 -1.46401,0.672 -0.648,0.672 -1.176,1.72801 -0.528,1.032 -0.936,2.208 -0.408,1.152 -0.696,2.184 -0.288,1.032 -0.456,1.656 -0.192,0.69601 -0.408,1.56001 -0.216,0.864 -0.384,1.752 -0.144,0.864 -0.144,1.608 0,0.216 0.072,0.456 0.096,0.216 0.36,0.216 0.36,0 0.744,-0.24 0.408,-0.24 0.768,-0.552 0.384,-0.336 0.648,-0.576 0.288,-0.24 0.384,-0.24 0.048,0 0.048,0.048 0,0.168 -0.096,0.336 -0.096,0.168 -0.216,0.288 -0.312,0.312 -0.888,0.744 -0.576,0.408 -1.224,0.72 -0.648,0.312 -1.2,0.312 z"
       style="font-family:'Moon Dance';-inkscape-font-specification:'Moon Dance';stroke-width:1"
       id="path4423" /><path
       d="m 138.10985,337.3719 q -0.12,0 -0.12,-0.12 0,-0.072 0.024,-0.12 0.144,-0.38401 0.216,-0.72001 0.096,-0.36 0.096,-0.744 0,-0.144 -0.024,-0.384 0,-0.264 -0.096,-0.48 -0.072,-0.216 -0.288,-0.216 -0.096,0 -0.168,0.024 -0.072,0 -0.168,0 -0.24,0 -0.24,-0.192 0,-0.096 0.216,-0.168 0.24,-0.072 0.504,-0.12 0.264,-0.048 0.36,-0.048 0.6,0 0.744,0.456 0.168,0.432 0.168,0.912 0,0.456 -0.168,0.96 -0.144,0.50401 -0.552,0.76801 -0.096,0.072 -0.24,0.144 -0.144,0.048 -0.264,0.048 z m -3.57601,5.472 q -0.696,0 -0.984,-0.336 -0.264,-0.336 -0.264,-0.984 0,-0.72 0.168,-1.44 0.168,-0.72 0.408,-1.392 l -0.216,0.072 q -0.12,-0.072 -0.12,-0.24 0,-0.216 0.192,-0.408 0.216,-0.216 0.432,-0.24 0.144,-0.36 0.408,-0.936 0.264,-0.57601 0.6,-1.15201 0.36,-0.576 0.792,-0.96 0.432,-0.384 0.936,-0.384 0.216,0 0.216,0.192 0,0.072 -0.096,0.192 -0.096,0.096 -0.144,0.144 -0.312,0.288 -0.6,0.816 -0.288,0.504 -0.528,1.056 -0.24,0.52801 -0.408,0.93601 0.672,-0.096 1.32,-0.144 0.67201,-0.048 1.34401,-0.048 0.072,0 0.36,0.024 0.288,0 0.648,0.048 0.36,0.024 0.6,0.096 0.264,0.072 0.264,0.192 0,0.096 -0.12,0.12 -0.096,0.024 -0.144,0.024 -0.312,0 -0.6,-0.048 -0.288,-0.048 -0.6,-0.048 -0.816,0 -1.65601,0.12 -0.84,0.12 -1.656,0.288 -0.24,0.624 -0.48,1.416 -0.216,0.792 -0.216,1.488 0,0.384 0.144,0.744 0.144,0.336 0.6,0.336 0.648,0 1.224,-0.504 0.6,-0.528 1.10401,-1.176 0.504,-0.672 0.84,-1.104 h 0.024 q 0.096,0 0.096,0.096 0.024,0.096 0.024,0.144 0,0.408 -0.192,0.768 -0.192,0.336 -0.48,0.624 -0.64801,0.6 -1.48801,1.104 -0.816,0.504 -1.752,0.504 z"
       style="font-family:'Moon Dance';-inkscape-font-specification:'Moon Dance';stroke-width:1"
       id="path4425" /></g><g
     id="g4265"
     transform="rotate(-19.833972,171.9534,-32.440332)"><path
       d="m 450.21565,509.38378 c 2.463,-2.501 3.2,-6.227 1.873,-9.476 L 250.10765,5.4547844 c -1.302,-3.186 -4.345,-5.31600005 -7.785,-5.44800005 -3.44,-0.132 -6.638,1.75900005 -8.18,4.83700005 l -62.456,124.6769956 -87.556003,32.758 c -3.439,1.287 -5.699,4.57 -5.699,8.214 0,0.131 0.002,0.263 0.008,0.394 0.092,2.062 0.918,3.95 2.224,5.419 l -0.018,0.015 43.226003,48.644 -63.683003,127.134 c -0.618,1.233 -0.929,2.579 -0.929,3.929 0,1.064 0.194,2.13 0.584,3.144 0.883,2.302 2.695,4.125 4.991,5.024 l 375.935003,147.2 c 3.268,1.278 6.983,0.488 9.446,-2.012 z m -41.417,-69.053 -122.414,-167.204 -26.552,-197.470996 z m -61.441,-54.221 -86.863,-93.692 14.34,-5.365 z m -110.273,-347.965996 27.614,205.360996 -77.476,-105.824 z m -82.719,141.736996 -38.724,-10.659 57.245,-21.418 91.183,124.544 -16.47,6.162 -89.129,-96.135 c -1.11,-1.197 -2.531,-2.062 -4.105,-2.494 z m -40.919,6.933 25.959,7.146 -7.068,14.112 z m 40.761,16.769 93.427,100.772 -163.338003,38.794 z m -56.864003,154.5 163.993003,-38.949 150.15,161.953 z"
       id="path1416"
       style="fill:url(#linearGradient4094);fill-opacity:1;stroke:none;stroke-opacity:1"
       transform="matrix(0.0664064,0,0,0.0664064,32.201528,-42.528799)" /><path
       style="fill:#ffffff;fill-opacity:1;stroke:none;stroke-width:0.066;stroke-linecap:round;stroke-linejoin:round;stroke-miterlimit:1078.7;stroke-dasharray:none;stroke-opacity:1"
       d="m 45.923554,-27.01263 c -1.481779,-1.605516 -2.834716,-3.06696 -3.016678,-3.247654 l -0.330841,-0.303618 -1.283227,-0.358317 c -0.703067,-0.196318 -1.434047,-0.346716 -1.379836,-0.368066 1.099155,-0.432881 3.63916,-1.391887 3.758443,-1.387207 0.117097,0.0046 5.931308,8.108355 6.021679,8.221564 -0.169259,0.0773 -0.810751,0.30273 -1.04706,0.394746 -0.06521,-0.07345 -1.240701,-1.345932 -2.72248,-2.951448 z"
       id="path4238" /><path
       style="fill:#ffffff;fill-opacity:1;stroke:none;stroke-width:0.066;stroke-linecap:round;stroke-linejoin:round;stroke-miterlimit:1078.7;stroke-dasharray:none;stroke-opacity:1"
       d="m 47.176722,-29.95703 c -1.361548,-1.85963 -2.517491,-3.389099 -2.515517,-3.435664 0.0038,-0.08886 3.280297,-6.645162 3.286523,-6.576268 0.002,0.02185 0.387319,3.128357 0.874996,6.753955 0.487677,3.625598 0.89906,6.588859 0.901988,6.604974 0.02093,0.115155 0.05235,0.25048 0.03285,0.228471 -0.141962,-0.160265 -1.393234,-1.953411 -2.58084,-3.575468 z"
       id="path4240" /><path
       style="fill:#ffffff;fill-opacity:1;stroke:none;stroke-width:0.066;stroke-linecap:round;stroke-linejoin:round;stroke-miterlimit:1078.7;stroke-dasharray:none;stroke-opacity:1"
       d="m 55.126992,-19.123554 -3.872557,-5.289238 -0.835124,-6.159776 c -0.459318,-3.387877 -0.975485,-6.832151 -0.967929,-6.914142 0.0076,-0.08199 2.590804,6.216482 5.189045,12.578857 2.598242,6.362376 4.710516,11.581517 4.693943,11.59809 -0.01657,0.01657 -2.077471,-2.90471 -4.207378,-5.813791 z"
       id="path4242" /><path
       style="fill:#ffffff;fill-opacity:1;stroke:none;stroke-width:0.066;stroke-linecap:round;stroke-linejoin:round;stroke-miterlimit:1078.7;stroke-dasharray:none;stroke-opacity:1"
       d="m 51.941246,-20.498032 c -1.296309,-1.399321 -2.5128,-2.603006 -2.433083,-2.625307 0.06373,-0.01783 0.315964,-0.102435 0.531501,-0.171134 l 0.412349,-0.164267 0.364876,0.527977 c 0.267176,0.386603 0.568043,0.772857 0.859382,1.171774 0.544249,0.745215 1.094151,1.505445 1.602928,2.189296 1.112281,1.495029 1.977529,2.665136 1.963152,2.679514 -0.01656,0.01656 -2.004797,-2.208532 -3.301105,-3.607853 z"
       id="path4244" /><path
       style="fill:#ffffff;fill-opacity:1;stroke:none;stroke-width:0.066;stroke-linecap:round;stroke-linejoin:round;stroke-miterlimit:1078.7;stroke-dasharray:none;stroke-opacity:1"
       d="m 49.013061,-14.721403 c -5.588958,-2.191651 -10.420641,-3.985252 -10.316413,-4.013038 0.113448,-0.03024 0.261716,-0.08449 0.390123,-0.11707 1.451507,-0.368285 10.366332,-2.46265 10.449842,-2.46265 0.05314,0 2.119432,2.28842 4.623078,4.989956 1.629036,1.826791 3.909558,3.950365 5.388756,5.76392 -0.05042,-0.0039 -4.946429,-1.969466 -10.535386,-4.161118 z"
       id="path4246" /><path
       style="fill:#ffffff;fill-opacity:1;stroke:none;stroke-width:0.0657108;stroke-linecap:round;stroke-linejoin:round;stroke-miterlimit:1078.7;stroke-opacity:1"
       d="m 40.129394,-24.364747 c 1.253317,-2.507626 2.300965,-4.621887 2.307375,-4.629256 0.0064,-0.0074 0.840687,0.903118 1.833218,1.974931 0.992531,1.071812 2.366208,2.566869 3.06112,3.307499 l 1.296095,1.381367 -5.282908,1.247592 c -2.878192,0.679704 -5.506303,1.320242 -5.572034,1.337064 -0.08566,0.02192 0.723763,-1.351166 2.357134,-4.619197 z"
       id="path4248" /><path
       style="fill:#ffffff;fill-opacity:1;stroke:none;stroke-width:0.066;stroke-linecap:round;stroke-linejoin:round;stroke-miterlimit:1078.7;stroke-dasharray:none;stroke-opacity:1"
       d="m 40.406186,-29.387799 c -0.27642,-0.314698 -0.676487,-0.706235 -0.645416,-0.717816 0.05288,-0.01971 1.604584,0.427625 1.665918,0.47742 0.03653,0.02966 -0.394414,0.914547 -0.443345,0.910877 -0.02046,-0.0015 -0.300737,-0.355782 -0.577157,-0.670481 z"
       id="path4250" /></g></svg>
