<?xml version="1.0" encoding="UTF-8" standalone="no"?>
<svg
   viewBox="0 0 285.22533 370.52281"
   version="1.1"
   id="svg6"
   xml:space="preserve"
   sodipodi:docname="plane.svg"
   width="285.22534"
   height="370.5228"
   inkscape:version="1.2.2 (b0a84865, 2022-12-01)"
   inkscape:export-filename="plane.svg"
   inkscape:export-xdpi="96"
   inkscape:export-ydpi="96"
   xmlns:inkscape="http://www.inkscape.org/namespaces/inkscape"
   xmlns:sodipodi="http://sodipodi.sourceforge.net/DTD/sodipodi-0.dtd"
   xmlns:xlink="http://www.w3.org/1999/xlink"
   xmlns="http://www.w3.org/2000/svg"
   xmlns:svg="http://www.w3.org/2000/svg"
   xmlns:bx="https://boxy-svg.com"><sodipodi:namedview
   id="namedview5332"
   pagecolor="#ffffff"
   bordercolor="#000000"
   borderopacity="0.25"
   inkscape:showpageshadow="2"
   inkscape:pageopacity="0.0"
   inkscape:pagecheckerboard="0"
   inkscape:deskcolor="#d1d1d1"
   showgrid="false"
   inkscape:zoom="1.2033472"
   inkscape:cx="197.36614"
   inkscape:cy="199.02817"
   inkscape:window-width="1666"
   inkscape:window-height="1051"
   inkscape:window-x="0"
   inkscape:window-y="38"
   inkscape:window-maximized="1"
   inkscape:current-layer="svg6" />
<defs
   id="defs10">
  <linearGradient
   id="linearGradient4092">
    <stop
   style="stop-color: #000000; stop-opacity: 1"
   offset="0"
   id="stop4090" />
  </linearGradient>
  <linearGradient
   xlink:href="#linearGradient4092"
   id="linearGradient4094"
   x1="59.259647"
   y1="255.99971"
   x2="452.74023"
   y2="255.99971"
   gradientUnits="userSpaceOnUse" />
</defs>

<path
   style="display:inline;fill:none;fill-opacity:0;stroke:#000000;stroke-width:1;stroke-dasharray:none;stroke-opacity:1"
   d="M 63.582928,0.89543256 C 52.302801,69.864388 311.04416,69.417028 47.857505,154.78314 c -71.135364,23.63364 -47.39003987,94.47328 -6.55814,114.05097 40.83189,19.5777 86.734535,19.00987 119.245745,1.99301 32.51121,-17.01685 53.26724,-52.44623 48.92307,-75.15927 -4.34417,-22.71303 -33.78855,-32.70971 -56.18324,-31.19604 -22.39471,1.51366 -37.73973,14.53768 -39.69023,34.36005 -1.9505,19.82236 9.49351,46.44307 30.77771,64.55825 21.28419,18.1152 49.18992,15.72806 87.25579,21.90153 152.3299,28.77942 -75.56559,75.57406 -108.61069,80.77373 -19.18056,3.01807 -66.372008,3.37979 -77.35521,2.7645"
   class="dashed"
   bx:d="M 0 7.451 U 112.192 120.73 U 244.991 124.917 U 307.259 18.629 U 218.926 -11.361 U 172.891 27.711 U 207.223 107.573 U 300.596 136.402 U 416.306 72.633 U 441.09 36.968 U 460.989 33.043 1@7b3ec7d9"
   id="path3-4"
   sodipodi:nodetypes="ccsssssscsc" /><path
   style="display:inline;fill:#c4def4;fill-opacity:0;stroke:#c4def4;stroke-width:4.00001px;stroke-opacity:1"
   d="M 63.22924,0.32281901 C 51.949113,69.291776 310.69047,68.84441 47.503817,154.21053 c -71.135364,23.63364 -47.39004015,94.47328 -6.55814,114.05097 40.83189,19.5777 86.734533,19.00987 119.245743,1.99301 32.51121,-17.01685 53.26724,-52.44623 48.92307,-75.15927 -4.34417,-22.71303 -33.78855,-32.70971 -56.18324,-31.19604 -22.39471,1.51366 -37.73973,14.53768 -39.69023,34.36005 -1.9505,19.82236 9.49351,46.44307 30.77771,64.55825 21.28419,18.1152 49.18992,15.72806 87.25579,21.90153 152.3299,28.77942 -75.56559,75.57406 -108.61069,80.77373 -19.18056,3.01807 -66.372006,3.37979 -77.355208,2.7645"
   class="dashed"
   bx:d="M 0 7.451 U 112.192 120.73 U 244.991 124.917 U 307.259 18.629 U 218.926 -11.361 U 172.891 27.711 U 207.223 107.573 U 300.596 136.402 U 416.306 72.633 U 441.09 36.968 U 460.989 33.043 1@7b3ec7d9"
   id="path3"
   sodipodi:nodetypes="ccsssssscsc" />
<g
   aria-label="...e poi"
   id="text1849"
   style="font-size:24px;font-family:'Moon Dance';-inkscape-font-specification:'Moon Dance';fill:none;fill-opacity:0;stroke:#000000;stroke-width:1;stroke-linecap:round;stroke-linejoin:round;stroke-miterlimit:1078.7"
   transform="translate(0.71411107,-11.024351)">
  <path
   d="m 51.334046,102.77549 q -0.192,0 -0.36,-0.288 -0.144,-0.288 -0.144,-0.456 0,-0.432 0.432,-0.6 0.096,-0.12 0.384,-0.288 0.288,-0.168 0.576,-0.312 0.312,-0.144 0.456,-0.144 0.024,0 0.072,0.048 -0.072,0.096 -0.192,0.216 -0.096,0.096 -0.168,0.216 -0.144,0.216 -0.264,0.6 -0.12,0.384 -0.288,0.696 -0.168,0.312 -0.504,0.312 z"
   style="font-size:24px;stroke:#074467;stroke-width:1"
   id="path4369" />
  <path
   d="m 55.534028,102.77549 q -0.192,0 -0.36,-0.288 -0.144,-0.288 -0.144,-0.456 0,-0.432 0.432,-0.6 0.096,-0.12 0.384,-0.288 0.288,-0.168 0.576,-0.312 0.312,-0.144 0.456,-0.144 0.024,0 0.072,0.048 -0.072,0.096 -0.192,0.216 -0.096,0.096 -0.168,0.216 -0.144,0.216 -0.264,0.6 -0.12,0.384 -0.288,0.696 -0.168,0.312 -0.504,0.312 z"
   style="font-size:24px;stroke:#074467;stroke-width:1"
   id="path4371" />
  <path
   d="m 59.73401,102.77549 q -0.192,0 -0.36,-0.288 -0.144,-0.288 -0.144,-0.456 0,-0.432 0.432,-0.6 0.096,-0.12 0.384,-0.288 0.288,-0.168 0.576,-0.312 0.312,-0.144 0.456,-0.144 0.024,0 0.072,0.048 -0.072,0.096 -0.192,0.216 -0.096,0.096 -0.168,0.216 -0.144,0.216 -0.264,0.6 -0.12,0.384 -0.288,0.696 -0.168,0.312 -0.504,0.312 z"
   style="font-size:24px;stroke:#074467;stroke-width:1"
   id="path4373" />
  <path
   d="m 67.653991,97.111489 q -0.12,0 -0.12,-0.12 0,-0.072 0.024,-0.12 0.144,-0.384 0.216,-0.72 0.096,-0.36 0.096,-0.744 0,-0.144 -0.024,-0.384 0,-0.264 -0.096,-0.48 -0.072,-0.216 -0.288,-0.216 -0.096,0 -0.168,0.024 -0.072,0 -0.168,0 -0.24,0 -0.24,-0.192 0,-0.096 0.216,-0.168 0.24,-0.072 0.504,-0.12 0.264,-0.048 0.36,-0.048 0.6,0 0.744,0.456 0.168,0.432 0.168,0.912 0,0.456 -0.168,0.96 -0.144,0.504 -0.552,0.768 -0.096,0.072 -0.24,0.144 -0.144,0.048 -0.264,0.048 z m -3.576,5.472001 q -0.696,0 -0.984,-0.336 -0.264,-0.336 -0.264,-0.984 0,-0.72 0.168,-1.440001 0.168,-0.72 0.408,-1.392 l -0.216,0.072 q -0.12,-0.072 -0.12,-0.24 0,-0.216 0.192,-0.408 0.216,-0.216 0.432,-0.24 0.144,-0.36 0.408,-0.936 0.264,-0.576 0.6,-1.152 0.36,-0.576 0.792,-0.96 0.432,-0.384 0.936,-0.384 0.216,0 0.216,0.192 0,0.072 -0.096,0.192 -0.096,0.096 -0.144,0.144 -0.312,0.288 -0.6,0.816 -0.288,0.504 -0.528,1.056 -0.24,0.528 -0.408,0.936 0.672,-0.096 1.32,-0.144 0.672,-0.048 1.344,-0.048 0.072,0 0.36,0.024 0.288,0 0.648,0.048 0.36,0.024 0.6,0.096 0.264,0.072 0.264,0.192 0,0.096 -0.12,0.12 -0.096,0.024 -0.144,0.024 -0.312,0 -0.6,-0.048 -0.288,-0.048 -0.6,-0.048 -0.816,0 -1.656,0.12 -0.84,0.12 -1.656,0.288 -0.24,0.624 -0.48,1.416 -0.216,0.792001 -0.216,1.488001 0,0.384 0.144,0.744 0.144,0.336 0.6,0.336 0.648,0 1.224,-0.504 0.6,-0.528 1.104,-1.176 0.504,-0.672001 0.84,-1.104001 h 0.024 q 0.096,0 0.096,0.096 0.024,0.096 0.024,0.144 0,0.408 -0.192,0.768001 -0.192,0.336 -0.48,0.624 -0.648,0.6 -1.488,1.104 -0.816,0.504 -1.752,0.504 z"
   style="font-size:24px;stroke:#074467;stroke-width:1"
   id="path4375" />
  <path
   d="m 75.309913,112.01549 q -0.336,0 -0.624,-0.168 -0.288,-0.144 -0.528,-0.384 -0.288,-0.336 -0.36,-0.816 -0.096,-0.48 -0.096,-0.888 0,-0.912 0.216,-2.04 0.216,-1.128 0.576,-2.328 0.336,-1.176 0.72,-2.28 0.384,-1.08 0.696,-1.944 -0.144,-0.36 -0.144,-0.768 0,-0.504001 0.216,-0.696001 0.24,-0.216 0.648,-0.408 0.504,-1.272 1.056,-2.568 0.576,-1.296 1.128,-2.544 -0.192,-0.216 -0.432,-0.408 -0.24,-0.192 -0.48,-0.36 -0.144,-0.072 -0.144,-0.192 0,-0.216 0.216,-0.384 0.24,-0.192 0.432,-0.192 0.192,0 0.456,0.264 0.264,0.24 0.384,0.36 0.096,-0.216 0.24,-0.576 0.144,-0.36 0.264,-0.528 0.144,-0.192 0.432,-0.336 0.288,-0.168 0.528,-0.168 0.312,0 0.312,0.24 0,0.072 -0.144,0.384 -0.144,0.288 -0.336,0.648 -0.192,0.36 -0.36,0.672 -0.168,0.312 -0.216,0.432 0.576,0.648 1.152,1.512 0.6,0.84 1.008,1.776 0.408,0.912 0.408,1.8 0,0.912001 -0.48,1.704001 -0.48,0.792 -1.272,1.272 -0.768,0.48 -1.704,0.48 -0.624,0 -1.32,-0.12 -0.672,-0.12 -1.2,-0.504 -0.288,0.792 -0.672,1.8 -0.36,1.032 -0.672,2.136 -0.336,1.128 -0.552,2.184 -0.216,1.056 -0.216,1.896 0,0.264 0.048,0.624 0.048,0.384 0.24,0.648 0.168,0.288 0.528,0.288 0.36,0 0.552,-0.264 0.192,-0.24 0.288,-0.24 0.024,0 0.024,0.048 0,0.096 -0.216,0.288 -0.192,0.216 -0.264,0.336 0.024,0.024 0.024,0.096 0,0.096 -0.048,0.192 -0.072,0.024 -0.168,0.024 -0.072,0 -0.144,0 z m 3.936,-9.984 q 0.936,0 1.656,-0.48 0.72,-0.504 0.72,-1.536 0,-1.008001 -0.336,-1.920001 -0.312,-0.912 -0.816,-1.704 -0.48,-0.816 -0.984,-1.464 -0.432,0.888 -0.864,1.896 -0.408,1.008 -0.792,1.944 0.048,0 0.072,0 0.024,-0.024 0.048,-0.024 0.168,0 0.168,0.168 0,0.312 -0.192,0.408 -0.192,0.096 -0.408,0.216 -0.168,0.384 -0.336,0.768001 -0.144,0.36 -0.288,0.768 l 0.024,0.024 q 0.528,0.528 1.08,0.744 0.552,0.192 1.248,0.192 z"
   style="font-size:24px;stroke:#074467;stroke-width:1"
   id="path4377" />
  <path
   d="m 85.005907,102.65549 q -0.888,0 -1.2,-0.504 -0.312,-0.528 -0.312,-1.344 0,-0.864001 0.264,-1.656001 0.264,-0.792 0.576,-1.584 -0.168,-0.12 -0.312,-0.312 -0.12,-0.192 -0.12,-0.552 0,-0.408 0.48,-1.032 0.48,-0.648 1.08,-1.128 0.264,-0.216 0.696,-0.456 0.432,-0.264 0.888,-0.432 0.456,-0.192 0.744,-0.192 1.008,0 1.344,0.816 0.336,0.816 0.24,1.944 0.096,-0.048 0.336,-0.144 0.264,-0.096 0.504,-0.168 0.24,-0.096 0.288,-0.096 0.12,0 0.24,0.12 0.12,0.12 0.12,0.24 0,0.072 -0.072,0.12 l -1.512,0.576 q -0.144,0.744 -0.48,1.728 -0.312,0.984 -0.864,1.920001 -0.528,0.912 -1.272,1.536 -0.72,0.6 -1.656,0.6 z m 1.152,-5.640001 q 0.6,0 1.152,-0.12 0.552,-0.144 1.2,-0.36 0.024,-0.12 0.024,-0.264 0.024,-0.144 0.024,-0.264 0,-0.288 -0.072,-0.648 -0.048,-0.36 -0.24,-0.624 -0.168,-0.288 -0.528,-0.288 -0.408,0 -0.792,0.312 -0.384,0.312 -0.72,0.744 -0.312,0.432 -0.552,0.84 -0.216,0.408 -0.312,0.6 0.432,0.072 0.816,0.072 z m -0.936,4.992001 q 0.672,0 1.176,-0.432 0.528,-0.456 0.912,-1.176 0.384,-0.720001 0.648,-1.560001 0.288,-0.84 0.456,-1.656 -0.72,0.24 -1.656,0.48 -0.912,0.216 -1.68,0.12 -0.24,0.648 -0.432,1.464 -0.168,0.816001 -0.168,1.512001 0,0.384 0.12,0.816 0.144,0.432 0.624,0.432 z"
   style="font-size:24px;stroke:#074467;stroke-width:1"
   id="path4379" />
  <path
   d="m 93.333868,92.911489 q -0.096,0 -0.192,-0.192 -0.072,-0.192 -0.12,-0.408 -0.024,-0.24 -0.024,-0.336 0,-0.048 0,-0.12 0.024,-0.096 0.096,-0.12 0.408,-0.048 0.768,-0.144 0.384,-0.096 0.768,-0.216 0.048,-0.024 0.168,-0.024 0.192,0 0.192,0.216 0,0.48 -0.456,0.792 -0.264,0.168 -0.576,0.36 -0.288,0.192 -0.624,0.192 z m -2.352,9.672001 q -0.36,0 -0.36,-0.384 0,-0.408 0.144,-1.056 0.144,-0.672 0.336,-1.344001 0.192,-0.672 0.288,-1.056 0.024,-0.096 0.144,-0.504 0.12,-0.432 0.264,-0.936 0.144,-0.504 0.24,-0.888 0.12,-0.408 0.12,-0.48 0,-0.12 -0.144,-0.216 -0.12,-0.096 -0.12,-0.216 0,-0.072 0.024,-0.144 0.024,-0.072 0.048,-0.12 0.072,-0.12 0.36,-0.312 0.288,-0.192 0.6,-0.336 0.336,-0.168 0.456,-0.168 0.072,0 0.096,0.024 0.024,0.048 0.024,0.168 0,0.216 -0.12,0.648 -0.096,0.432 -0.264,0.96 -0.144,0.504 -0.288,0.936 -0.144,0.432 -0.216,0.648 -0.12,0.36 -0.336,1.032 -0.216,0.672 -0.384,1.344001 -0.168,0.672 -0.168,1.056 0,0.048 0.024,0.216 0.024,0.144 0.12,0.144 0.12,0 0.432,-0.192 0.336,-0.216 0.696,-0.408 0.36,-0.192 0.552,-0.192 0.096,0 0.12,0.048 0,0.096 -0.312,0.336 -0.312,0.216 -0.672,0.456 -0.336,0.216 -0.456,0.336 -0.24,0.216 -0.576,0.408 -0.336,0.192 -0.672,0.192 z"
   style="font-size:24px;stroke:#074467;stroke-width:1"
   id="path4381" />
</g>
<g
   aria-label="voleremo "
   id="text1903"
   style="font-size:24px;fill:none;fill-opacity:0;stroke:#000000;stroke-width:1;stroke-linecap:round;stroke-linejoin:round;stroke-miterlimit:1078.7"
   transform="translate(0.71411107,-11.024351)">
  <path
   d="m 193.36807,148.65192 q -0.096,0 -0.216,-0.048 -0.096,-0.024 -0.096,-0.12 0,-0.192 0.12,-0.36 0.144,-0.168 0.24,-0.288 0.024,-0.024 0.024,-0.216 0,-0.6 -0.024,-1.488 0,-0.912 -0.048,-1.776 -0.024,-0.888 -0.096,-1.41601 -0.168,0 -0.312,-0.36 -0.144,-0.36 -0.24,-0.768 -0.072,-0.432 -0.072,-0.576 0,-0.24 0.24,-0.6 0.264,-0.384 0.576,-0.552 0.12,-0.072 0.24,-0.096 0.144,-0.024 0.24,-0.024 0.072,0 0.12,0.144 0.144,0.6 0.192,1.848 0.048,1.224 0.048,2.49601 0,1.104 0,1.728 0,0.624 -0.024,1.176 1.248,-1.056 2.04,-2.4 0.79201,-1.344 1.22401,-2.90401 0.048,-0.12 0.048,-0.264 0.024,-0.144 0.048,-0.264 -0.096,-0.336 -0.216,-0.696 -0.096,-0.384 -0.096,-0.696 0,-0.288 0.144,-0.576 0.144,-0.288 0.456,-0.288 0.048,0 0.12,0 0.072,0 0.12,0.024 0.192,0.072 0.264,0.456 0.072,0.384 0.072,0.816 0.024,0.432 0.048,0.624 0.048,0.384 0.288,0.744 0.264,0.336 0.504,0.576 0.24,0.216 0.24,0.288 0,0.096 -0.096,0.168 -0.072,0.072 -0.168,0.072 -0.24,0 -0.576,-0.312 -0.336,-0.312 -0.504,-0.48 -0.288,1.008 -0.984,2.11201 -0.69601,1.08 -1.53601,2.064 -0.84,0.96 -1.656,1.632 -0.072,0.144 -0.288,0.312 -0.192,0.168 -0.312,0.288 z"
   style="font-family:'Moon Dance';-inkscape-font-specification:'Moon Dance';stroke:#074467;stroke-width:1"
   id="path4384" />
  <path
   d="m 201.28807,148.60392 q -0.888,0 -1.2,-0.504 -0.312,-0.528 -0.312,-1.344 0,-0.864 0.264,-1.656 0.264,-0.792 0.576,-1.584 -0.168,-0.12 -0.312,-0.31201 -0.12,-0.192 -0.12,-0.552 0,-0.408 0.48,-1.032 0.48,-0.648 1.08001,-1.128 0.264,-0.216 0.696,-0.456 0.432,-0.264 0.888,-0.432 0.456,-0.192 0.744,-0.192 1.008,0 1.344,0.816 0.336,0.816 0.24,1.944 0.096,-0.048 0.336,-0.144 0.264,-0.096 0.504,-0.168 0.24,-0.096 0.288,-0.096 0.12,0 0.24,0.12 0.12,0.12 0.12,0.24 0,0.072 -0.072,0.12 l -1.512,0.576 q -0.144,0.74401 -0.48,1.72801 -0.312,0.984 -0.864,1.92 -0.528,0.912 -1.272,1.536 -0.72,0.6 -1.65601,0.6 z m 1.15201,-5.64001 q 0.6,0 1.152,-0.12 0.552,-0.144 1.2,-0.36 0.024,-0.12 0.024,-0.264 0.024,-0.144 0.024,-0.264 0,-0.288 -0.072,-0.648 -0.048,-0.36 -0.24,-0.624 -0.168,-0.288 -0.528,-0.288 -0.408,0 -0.792,0.312 -0.384,0.312 -0.72,0.744 -0.312,0.432 -0.552,0.84 -0.216,0.408 -0.312,0.6 0.432,0.072 0.816,0.072 z m -0.936,4.99201 q 0.672,0 1.176,-0.432 0.528,-0.456 0.912,-1.176 0.384,-0.72 0.648,-1.56 0.288,-0.84 0.456,-1.65601 -0.72,0.24 -1.656,0.48001 -0.912,0.216 -1.68,0.12 -0.24001,0.648 -0.43201,1.464 -0.168,0.816 -0.168,1.512 0,0.384 0.12,0.816 0.144,0.432 0.62401,0.432 z"
   style="font-family:'Moon Dance';-inkscape-font-specification:'Moon Dance';stroke:#074467;stroke-width:1"
   id="path4386" />
  <path
   d="m 207.26404,148.33992 q -0.216,0 -0.384,-0.12 -0.144,-0.12 -0.144,-0.36 0,-0.336 0.048,-0.84 0.048,-0.504 0.096,-0.864 0.192,-1.152 0.432,-2.304 0.26401,-1.17601 0.57601,-2.30401 0.288,-1.104 0.672,-2.328 0.384,-1.248 0.936,-2.424 0.552,-1.17601 1.344,-2.11201 0.816,-0.96 1.944,-1.464 0.288,-0.12 0.6,-0.192 0.312,-0.096 0.624,-0.096 0.288,0 0.67201,0.12 0.408,0.12 0.696,0.36 0.288,0.216 0.288,0.576 0,0.144 -0.072,0.216 -0.048,0.072 -0.384,0.312 -0.312,0.216 -0.36,0.24 -0.048,-0.048 -0.048,-0.072 0,-0.072 0.072,-0.144 0.072,-0.072 0.072,-0.168 0,-0.24 -0.264,-0.432 -0.26401,-0.216 -0.60001,-0.336 -0.336,-0.144 -0.552,-0.144 -0.792,0 -1.464,0.672 -0.648,0.672 -1.176,1.728 -0.528,1.03201 -0.936,2.20801 -0.408,1.152 -0.696,2.184 -0.288,1.032 -0.456,1.656 -0.192,0.696 -0.408,1.56001 -0.216,0.864 -0.384,1.752 -0.144,0.864 -0.144,1.608 0,0.216 0.072,0.456 0.096,0.216 0.36,0.216 0.36,0 0.744,-0.24 0.408,-0.24 0.768,-0.552 0.384,-0.336 0.648,-0.576 0.288,-0.24 0.384,-0.24 0.048,0 0.048,0.048 0,0.168 -0.096,0.336 -0.096,0.168 -0.216,0.288 -0.312,0.312 -0.888,0.744 -0.576,0.408 -1.224,0.72 -0.648,0.312 -1.20001,0.312 z"
   style="font-family:'Moon Dance';-inkscape-font-specification:'Moon Dance';stroke:#074467;stroke-width:1"
   id="path4388" />
  <path
   d="m 216.33605,143.05991 q -0.12,0 -0.12,-0.12 0,-0.072 0.024,-0.12 0.144,-0.384 0.216,-0.72 0.096,-0.36 0.096,-0.744 0,-0.144 -0.024,-0.384 0,-0.264 -0.096,-0.48 -0.072,-0.216 -0.288,-0.216 -0.096,0 -0.168,0.024 -0.072,0 -0.168,0 -0.24,0 -0.24,-0.192 0,-0.096 0.216,-0.168 0.24,-0.072 0.504,-0.12 0.264,-0.048 0.36,-0.048 0.6,0 0.744,0.456 0.168,0.432 0.168,0.912 0,0.456 -0.168,0.96 -0.144,0.504 -0.552,0.768 -0.096,0.072 -0.24,0.144 -0.144,0.048 -0.264,0.048 z m -3.576,5.47201 q -0.696,0 -0.984,-0.336 -0.264,-0.336 -0.264,-0.984 0,-0.72 0.168,-1.44 0.168,-0.72 0.408,-1.392 l -0.216,0.072 q -0.12,-0.072 -0.12,-0.24 0,-0.216 0.192,-0.408 0.216,-0.216 0.432,-0.24 0.144,-0.36001 0.408,-0.93601 0.264,-0.576 0.6,-1.152 0.36,-0.576 0.792,-0.96 0.432,-0.384 0.936,-0.384 0.216,0 0.216,0.192 0,0.072 -0.096,0.192 -0.096,0.096 -0.144,0.144 -0.312,0.288 -0.6,0.816 -0.288,0.504 -0.528,1.056 -0.24,0.528 -0.408,0.93601 0.672,-0.096 1.32,-0.14401 0.672,-0.048 1.344,-0.048 0.072,0 0.36,0.024 0.288,0 0.648,0.048 0.36,0.024 0.6,0.096 0.264,0.072 0.264,0.192 0,0.096 -0.12,0.12 -0.096,0.024 -0.144,0.024 -0.312,0 -0.6,-0.048 -0.288,-0.048 -0.6,-0.048 -0.816,0 -1.656,0.12 -0.84,0.12 -1.656,0.288 -0.24,0.624 -0.48,1.416 -0.216,0.792 -0.216,1.488 0,0.384 0.144,0.744 0.144,0.336 0.6,0.336 0.648,0 1.224,-0.504 0.6,-0.528 1.104,-1.176 0.504,-0.672 0.84,-1.104 h 0.024 q 0.096,0 0.096,0.096 0.024,0.096 0.024,0.144 0,0.408 -0.192,0.768 -0.192,0.336 -0.48,0.624 -0.648,0.6 -1.488,1.104 -0.816,0.504 -1.752,0.504 z"
   style="font-family:'Moon Dance';-inkscape-font-specification:'Moon Dance';stroke:#074467;stroke-width:1"
   id="path4390" />
  <path
   d="m 218.52002,148.79592 q -0.192,0 -0.24,-0.144 0.096,-0.216 0.192,-0.432 0.096,-0.216 0.168,-0.456 0.432,-1.272 0.768,-2.568 0.36,-1.296 0.69601,-2.59201 l 0.192,-0.744 q 0,-0.072 -0.168,-0.048 -0.168,0 -0.192,-0.072 0.168,-0.432 0.288,-0.864 0.144,-0.456 0.312,-0.888 0.072,-0.192 0.456,-0.36 0.384,-0.168 0.576,-0.168 0.336,0 0.336,0.312 0,0.168 -0.168,0.696 -0.144,0.504 -0.384,1.2 -0.216,0.672 -0.48,1.392 -0.24,0.69601 -0.456,1.29601 -0.192,0.576 -0.288,0.888 0.432,-0.864 1.032,-1.87201 0.6,-1.008 1.32,-1.92 0.72,-0.912 1.536,-1.44 0.264,-0.168 0.48,-0.168 0.504,0 0.744,0.528 0.24,0.504 0.24,0.912 0,0.144 -0.072,0.456 -0.072,0.288 -0.216,0.552 -0.12,0.24 -0.312,0.24 -0.144,0 -0.192,-0.216 -0.048,-0.24 -0.096,-0.528 -0.048,-0.312 -0.168,-0.528 -0.12,-0.24 -0.384,-0.24 -0.384,0 -0.864,0.48 -0.48,0.456 -0.984,1.176 -0.504,0.72001 -0.984,1.53601 -0.456,0.792 -0.816,1.464 -0.336,0.672 -0.48001,1.032 0.024,0.072 0.024,0.216 0,0.264 -0.12001,0.624 -0.096,0.336 -0.216,0.6 0,0.144 -0.216,0.288 -0.192,0.144 -0.456,0.24 -0.264,0.12 -0.408,0.12 z"
   style="font-family:'Moon Dance';-inkscape-font-specification:'Moon Dance';stroke:#074467;stroke-width:1"
   id="path4392" />
  <path
   d="m 230.83203,143.05991 q -0.12,0 -0.12,-0.12 0,-0.072 0.024,-0.12 0.144,-0.384 0.216,-0.72 0.096,-0.36 0.096,-0.744 0,-0.144 -0.024,-0.384 0,-0.264 -0.096,-0.48 -0.072,-0.216 -0.288,-0.216 -0.096,0 -0.168,0.024 -0.072,0 -0.168,0 -0.24,0 -0.24,-0.192 0,-0.096 0.216,-0.168 0.24,-0.072 0.504,-0.12 0.264,-0.048 0.36,-0.048 0.6,0 0.744,0.456 0.168,0.432 0.168,0.912 0,0.456 -0.168,0.96 -0.144,0.504 -0.552,0.768 -0.096,0.072 -0.24,0.144 -0.144,0.048 -0.264,0.048 z m -3.576,5.47201 q -0.696,0 -0.98401,-0.336 -0.264,-0.336 -0.264,-0.984 0,-0.72 0.168,-1.44 0.16801,-0.72 0.40801,-1.392 l -0.216,0.072 q -0.12001,-0.072 -0.12001,-0.24 0,-0.216 0.19201,-0.408 0.216,-0.216 0.432,-0.24 0.144,-0.36001 0.408,-0.93601 0.264,-0.576 0.6,-1.152 0.36,-0.576 0.792,-0.96 0.432,-0.384 0.936,-0.384 0.216,0 0.216,0.192 0,0.072 -0.096,0.192 -0.096,0.096 -0.144,0.144 -0.312,0.288 -0.6,0.816 -0.288,0.504 -0.528,1.056 -0.24,0.528 -0.408,0.93601 0.672,-0.096 1.32,-0.14401 0.672,-0.048 1.344,-0.048 0.072,0 0.36,0.024 0.288,0 0.648,0.048 0.36,0.024 0.6,0.096 0.264,0.072 0.264,0.192 0,0.096 -0.12,0.12 -0.096,0.024 -0.144,0.024 -0.312,0 -0.6,-0.048 -0.288,-0.048 -0.6,-0.048 -0.816,0 -1.656,0.12 -0.84,0.12 -1.656,0.288 -0.24,0.624 -0.48,1.416 -0.216,0.792 -0.216,1.488 0,0.384 0.144,0.744 0.144,0.336 0.6,0.336 0.648,0 1.224,-0.504 0.6,-0.528 1.104,-1.176 0.504,-0.672 0.84,-1.104 h 0.024 q 0.096,0 0.096,0.096 0.024,0.096 0.024,0.144 0,0.408 -0.192,0.768 -0.192,0.336 -0.48,0.624 -0.648,0.6 -1.488,1.104 -0.816,0.504 -1.752,0.504 z"
   style="font-family:'Moon Dance';-inkscape-font-specification:'Moon Dance';stroke:#074467;stroke-width:1"
   id="path4394" />
  <path
   d="m 232.968,148.79592 q -0.192,0 -0.192,-0.144 l 0.312,-0.912 q 0.096,-0.288 0.144,-0.576 0.048,-0.312 0.12,-0.624 0.144,-0.6 0.288,-1.176 0.168,-0.576 0.336,-1.176 0.144,-0.48 0.264,-0.96001 0.144,-0.504 0.192,-1.008 0.048,-0.072 -0.144,-0.048 -0.192,0 -0.192,-0.096 0.192,-0.432 0.288,-0.888 0.12,-0.456 0.288,-0.888 0.072,-0.192 0.38401,-0.36 0.312,-0.168 0.504,-0.168 0.336,0 0.336,0.432 0,0.312 -0.168,1.032 -0.168,0.72 -0.408,1.584 -0.24,0.84001 -0.48001,1.56001 -0.216,0.72 -0.312,1.056 0.76801,-1.368 1.70401,-2.59201 0.96,-1.248 2.16,-2.256 0.216,-0.192 0.528,-0.192 0.648,0 0.648,0.552 0,0.312 -0.12,0.936 -0.12,0.624 -0.312,1.368 -0.192,0.72001 -0.36,1.36801 -0.168,0.624 -0.288,0.96 0.552,-0.552 1.176,-1.2 0.624,-0.672 1.176,-1.39201 0.552,-0.744 0.888,-1.416 0,-0.216 0.24001,-0.336 0.264,-0.12 0.432,-0.12 0.072,0 0.216,0.048 0.096,-0.048 0.144,-0.048 0.216,0 0.264,0.336 0.072,0.312 0.072,0.456 0,0.264 -0.072,0.744 -0.048,0.456 -0.336,0.6 -0.024,0.28801 -0.048,0.60001 0,0.288 0,0.576 0,0.264 0.024,0.768 0.048,0.504 0.168,1.032 0.12,0.504 0.36,0.864 0.24,0.36 0.624,0.36 0.432,0 0.744,-0.24 0.336,-0.24 0.552,-0.552 0.24,-0.312 0.384,-0.552 0.144,-0.24 0.216,-0.24 0.12,0 0.12,0.12 0,0.072 -0.048,0.216 -0.144,0.432 -0.504,0.912 -0.36,0.456 -0.816,0.792 -0.456,0.336 -0.96,0.336 -0.6,0 -1.008,-0.408 -0.384,-0.432 -0.62401,-1.056 -0.216,-0.648 -0.312,-1.296 -0.072,-0.648 -0.072,-1.104 0,-0.456 0.024,-0.888 0.048,-0.45601 0.096,-0.91201 -0.216,0.312 -0.456,0.6 -0.24,0.28801 -0.456,0.57601 l -1.92,2.4 q 0,0.36 -0.168,0.84 -0.144,0.456 -0.456,0.792 -0.288,0.336 -0.744,0.336 -0.168,0 -0.192,-0.12 0,-0.144 0.024,-0.24 -0.048,-0.048 -0.072,-0.12 0,-0.096 0,-0.168 0,-0.192 0.096,-0.672 0.12,-0.48 0.264,-1.032 0.168,-0.576 0.312,-1.056 0.144,-0.48 0.216,-0.696 0.144,-0.528 0.264,-1.08001 0.144,-0.552 0.144,-1.08 0,-0.096 -0.024,-0.24 -0.024,-0.144 -0.168,-0.144 -0.264,0 -0.648,0.36 -0.36,0.36 -0.768,0.864 -0.384,0.504 -0.696,0.96001 -0.312,0.456 -0.432,0.648 -0.264,0.384 -0.696,1.08 -0.43201,0.672 -0.76801,1.392 -0.336,0.72 -0.336,1.2 v 0.096 q 0,0.216 -0.384,0.456 -0.36,0.264 -0.576,0.264 z"
   style="font-family:'Moon Dance';-inkscape-font-specification:'Moon Dance';stroke:#074467;stroke-width:1"
   id="path4396" />
  <path
   d="m 246.792,148.60392 q -0.888,0 -1.2,-0.504 -0.312,-0.528 -0.312,-1.344 0,-0.864 0.264,-1.656 0.264,-0.792 0.576,-1.584 -0.168,-0.12 -0.312,-0.31201 -0.12,-0.192 -0.12,-0.552 0,-0.408 0.48,-1.032 0.48,-0.648 1.08,-1.128 0.264,-0.216 0.696,-0.456 0.432,-0.264 0.888,-0.432 0.456,-0.192 0.744,-0.192 1.00801,0 1.34401,0.816 0.336,0.816 0.24,1.944 0.096,-0.048 0.336,-0.144 0.264,-0.096 0.504,-0.168 0.24,-0.096 0.288,-0.096 0.12,0 0.24,0.12 0.12,0.12 0.12,0.24 0,0.072 -0.072,0.12 l -1.512,0.576 q -0.144,0.74401 -0.48,1.72801 -0.312,0.984 -0.86401,1.92 -0.528,0.912 -1.272,1.536 -0.72,0.6 -1.656,0.6 z m 1.152,-5.64001 q 0.6,0 1.152,-0.12 0.552,-0.144 1.20001,-0.36 0.024,-0.12 0.024,-0.264 0.024,-0.144 0.024,-0.264 0,-0.288 -0.072,-0.648 -0.048,-0.36 -0.24,-0.624 -0.168,-0.288 -0.52801,-0.288 -0.408,0 -0.792,0.312 -0.384,0.312 -0.72,0.744 -0.312,0.432 -0.552,0.84 -0.216,0.408 -0.312,0.6 0.432,0.072 0.816,0.072 z m -0.936,4.99201 q 0.672,0 1.176,-0.432 0.528,-0.456 0.912,-1.176 0.384,-0.72 0.648,-1.56 0.28801,-0.84 0.45601,-1.65601 -0.72001,0.24 -1.65601,0.48001 -0.912,0.216 -1.68,0.12 -0.24,0.648 -0.432,1.464 -0.168,0.816 -0.168,1.512 0,0.384 0.12,0.816 0.144,0.432 0.624,0.432 z"
   style="font-family:'Moon Dance';-inkscape-font-specification:'Moon Dance';stroke:#074467;stroke-width:1"
   id="path4398" />
</g>
<g
   aria-label="in luna di miele"
   id="text1907"
   style="font-size:24px;fill:none;fill-opacity:0;stroke:#074467;stroke-width:1;stroke-linecap:round;stroke-linejoin:round;stroke-miterlimit:1078.7"
   transform="translate(0.71411107,-11.024351)">
  <path
   d="m 33.13421,333.17189 q -0.096,0 -0.192001,-0.192 -0.072,-0.192 -0.12,-0.408 -0.024,-0.24 -0.024,-0.336 0,-0.048 0,-0.12 0.024,-0.096 0.096,-0.12 0.408001,-0.048 0.768001,-0.144 0.384001,-0.096 0.768002,-0.216 0.048,-0.024 0.168,-0.024 0.192,0 0.192,0.216 0,0.48 -0.456001,0.792 -0.264,0.168 -0.576,0.36 -0.288001,0.192 -0.624001,0.192 z m -2.352004,9.67201 q -0.36,0 -0.36,-0.384 0,-0.408 0.144,-1.056 0.144,-0.672 0.336001,-1.344 0.192,-0.672 0.288,-1.056 0.024,-0.096 0.144,-0.504 0.12,-0.432 0.264001,-0.936 0.144,-0.504 0.24,-0.88801 0.12,-0.408 0.12,-0.48 0,-0.12 -0.144,-0.216 -0.12,-0.096 -0.12,-0.216 0,-0.072 0.024,-0.144 0.024,-0.072 0.048,-0.12 0.072,-0.12 0.36,-0.312 0.288001,-0.192 0.600001,-0.336 0.336001,-0.168 0.456001,-0.168 0.072,0 0.096,0.024 0.024,0.048 0.024,0.168 0,0.216 -0.12,0.648 -0.096,0.432 -0.264001,0.96 -0.144,0.50401 -0.288,0.93601 -0.144,0.432 -0.216,0.648 -0.12,0.36 -0.336001,1.032 -0.216,0.672 -0.384,1.344 -0.168001,0.672 -0.168001,1.056 0,0.048 0.024,0.216 0.024,0.144 0.120001,0.144 0.12,0 0.432,-0.192 0.336001,-0.216 0.696001,-0.408 0.360001,-0.192 0.552001,-0.192 0.096,0 0.12,0.048 0,0.096 -0.312,0.336 -0.312001,0.216 -0.672001,0.456 -0.336001,0.216 -0.456001,0.336 -0.24,0.216 -0.576001,0.408 -0.336,0.192 -0.672001,0.192 z"
   style="font-family:'Moon Dance';-inkscape-font-specification:'Moon Dance';stroke-width:1"
   id="path4401" />
  <path
   d="m 34.670166,343.1079 q -0.192,0 -0.192,-0.144 l 0.312001,-0.912 q 0.12,-0.312 0.144,-0.6 0.048,-0.312 0.144,-0.624 0.144,-0.624 0.312,-1.248 0.168001,-0.624 0.360001,-1.224 0.072,-0.216 0.192,-0.624 0.12,-0.408 0.216001,-0.816 0.12,-0.43201 0.12,-0.64801 0,-0.12 -0.168001,-0.096 -0.144,0.024 -0.168,-0.048 0.168,-0.432 0.288001,-0.888 0.12,-0.456 0.288,-0.888 0.072,-0.192 0.384001,-0.36 0.312,-0.192 0.504,-0.192 0.336001,0 0.336001,0.432 0,0.384 -0.192,1.176 -0.192001,0.792 -0.504001,1.72801 -0.288001,0.936 -0.576001,1.824 -0.264,0.864 -0.456001,1.416 0.768001,-0.72 1.536003,-1.584 0.768001,-0.864 1.392002,-1.728 0.648,-0.88801 1.008001,-1.60801 0,-0.264 0.336,-0.36 0.360001,-0.096 0.552001,-0.048 0.096,-0.048 0.144,-0.048 0.216001,0 0.264001,0.336 0.072,0.312 0.072,0.456 0,0.264 -0.072,0.744 -0.048,0.45601 -0.336001,0.60001 -0.024,0.192 -0.024,0.408 0,0.192 0,0.384 0,0.288 0.024,0.96 0.048,0.648 0.168001,1.368 0.12,0.72 0.384,1.248 0.264,0.504 0.720001,0.504 0.432001,0 0.744001,-0.24 0.336001,-0.24 0.576001,-0.552 0.24,-0.312 0.384001,-0.552 0.144,-0.24 0.216,-0.24 0.12,0 0.12,0.144 0,0.336 -0.36,0.816 -0.336001,0.48 -0.576001,0.72 -0.264001,0.288 -0.624001,0.504 -0.360001,0.216 -0.768001,0.216 -0.720001,0 -1.128002,-0.504 -0.408,-0.528 -0.624001,-1.272 -0.192,-0.768 -0.264,-1.536 -0.048,-0.792 -0.048,-1.296 0,-0.456 0,-0.888 0.024,-0.432 0.048,-0.86401 -0.384001,0.67201 -0.888001,1.29601 -0.504001,0.624 -0.984002,1.224 -0.720001,0.816 -1.416002,1.776 -0.12,0.168 -0.24,0.408 -0.096,0.216 -0.264001,0.384 l -0.048,0.048 q -0.168,0.456 -0.216,0.696 -0.048,0.24 -0.480001,0.528 -0.144,0.096 -0.312,0.192 -0.168,0.096 -0.360001,0.096 z"
   style="font-family:'Moon Dance';-inkscape-font-specification:'Moon Dance';stroke-width:1"
   id="path4403" />
  <path
   d="m 50.606103,342.6519 q -0.216001,0 -0.384001,-0.12 -0.144,-0.12 -0.144,-0.36 0,-0.336 0.048,-0.84 0.048,-0.504 0.096,-0.864 0.192,-1.152 0.432001,-2.304 0.264,-1.176 0.576001,-2.30401 0.288,-1.104 0.672001,-2.328 0.384,-1.248 0.936001,-2.424 0.552001,-1.176 1.344002,-2.11201 0.816001,-0.96 1.944003,-1.464 0.288,-0.12 0.600001,-0.192 0.312,-0.096 0.624,-0.096 0.288001,0 0.672001,0.12 0.408001,0.12 0.696001,0.36 0.288001,0.216 0.288001,0.576 0,0.144 -0.072,0.216 -0.048,0.072 -0.384001,0.312 -0.312,0.216 -0.36,0.24 -0.048,-0.048 -0.048,-0.072 0,-0.072 0.072,-0.144 0.072,-0.072 0.072,-0.168 0,-0.24 -0.264001,-0.432 -0.264,-0.216 -0.6,-0.336 -0.336001,-0.144 -0.552001,-0.144 -0.792001,0 -1.464002,0.672 -0.648001,0.672 -1.176002,1.72801 -0.528001,1.032 -0.936001,2.208 -0.408001,1.152 -0.696001,2.184 -0.288001,1.032 -0.456001,1.656 -0.192,0.69601 -0.408001,1.56001 -0.216,0.864 -0.384,1.752 -0.144,0.864 -0.144,1.608 0,0.216 0.072,0.456 0.096,0.216 0.36,0.216 0.360001,0 0.744001,-0.24 0.408001,-0.24 0.768001,-0.552 0.384001,-0.336 0.648001,-0.576 0.288001,-0.24 0.384001,-0.24 0.048,0 0.048,0.048 0,0.168 -0.096,0.336 -0.096,0.168 -0.216,0.288 -0.312001,0.312 -0.888002,0.744 -0.576001,0.408 -1.224002,0.72 -0.648,0.312 -1.200001,0.312 z"
   style="font-family:'Moon Dance';-inkscape-font-specification:'Moon Dance';stroke-width:1"
   id="path4405" />
  <path
   d="m 59.36611,342.9159 q -0.192,0 -0.384001,-0.144 -0.168,-0.144 -0.168,-0.36 0,-0.744 0.168,-1.656 0.192001,-0.912 0.432001,-1.824 0.24,-0.936 0.408001,-1.68 -0.192001,0.36 -0.648001,1.032 -0.456001,0.672 -1.056002,1.464 -0.600001,0.768 -1.248002,1.488 -0.624001,0.696 -1.200001,1.152 -0.552001,0.456 -0.936002,0.456 -0.192,0 -0.288,-0.144 -0.072,-0.144 -0.072,-0.312 0,-0.288 0.168,-0.816 0.168,-0.552 0.384001,-1.176 0.24,-0.648 0.456,-1.224 0.240001,-0.576 0.336001,-0.96 l 0.384,-1.344 h -0.048 q -0.072,0 -0.168,-0.048 -0.072,-0.048 -0.072,-0.144 0,-0.024 0,-0.048 0.024,-0.024 0.024,-0.048 0.12,-0.48 0.168,-1.008 0.048,-0.552 0.288001,-0.936 0.264,-0.384 0.912001,-0.384 0.408,0 0.408,0.408 0,0.336 -0.192,1.104 -0.192,0.744 -0.480001,1.63201 -0.264,0.888 -0.528,1.68 -0.264001,0.768 -0.384001,1.176 -0.048,0.168 -0.192,0.6 -0.144,0.408 -0.144,0.576 l 0.024,0.048 q 0.024,0 0.072,-0.048 0.960001,-0.6 1.776002,-1.656 0.840002,-1.056 1.512003,-2.232 0.696001,-1.17601 1.200001,-2.13601 -0.024,-0.12 -0.024,-0.216 0,-0.096 0,-0.192 0,-0.528 0.432001,-0.72 0.456,-0.192 0.888001,-0.192 0.144,0 0.312001,0.048 0.168,0.048 0.168,0.24 0,0.096 -0.048,0.192 -0.024,0.072 -0.072,0.168 -0.432001,0.84 -0.768002,1.704 -0.312,0.86401 -0.6,1.77601 -0.120001,0.408 -0.312001,1.056 -0.192,0.624 -0.336,1.272 -0.12,0.624 -0.12,1.056 0,0.168 0.048,0.384 0.072,0.192 0.288,0.192 0.192,0 0.504001,-0.216 0.312,-0.24 0.648001,-0.552 0.36,-0.312 0.624001,-0.528 0.288,-0.24 0.384,-0.24 0.072,0 0.072,0.12 0,0.072 -0.048,0.24 -0.048,0.144 -0.192,0.264 -0.264001,0.24 -0.744001,0.648 -0.480001,0.384 -1.032002,0.696 -0.528,0.312 -0.984001,0.312 z"
   style="font-family:'Moon Dance';-inkscape-font-specification:'Moon Dance';stroke-width:1"
   id="path4407" />
  <path
   d="m 62.486078,343.1079 q -0.192,0 -0.192,-0.144 l 0.312,-0.912 q 0.120001,-0.312 0.144001,-0.6 0.048,-0.312 0.144,-0.624 0.144,-0.624 0.312,-1.248 0.168,-0.624 0.360001,-1.224 0.072,-0.216 0.192,-0.624 0.12,-0.408 0.216,-0.816 0.12,-0.43201 0.12,-0.64801 0,-0.12 -0.168,-0.096 -0.144,0.024 -0.168,-0.048 0.168,-0.432 0.288,-0.888 0.120001,-0.456 0.288001,-0.888 0.072,-0.192 0.384,-0.36 0.312001,-0.192 0.504001,-0.192 0.336001,0 0.336001,0.432 0,0.384 -0.192001,1.176 -0.192,0.792 -0.504,1.72801 -0.288001,0.936 -0.576001,1.824 -0.264001,0.864 -0.456001,1.416 0.768001,-0.72 1.536002,-1.584 0.768001,-0.864 1.392002,-1.728 0.648001,-0.88801 1.008002,-1.60801 0,-0.264 0.336,-0.36 0.360001,-0.096 0.552001,-0.048 0.096,-0.048 0.144,-0.048 0.216001,0 0.264001,0.336 0.072,0.312 0.072,0.456 0,0.264 -0.072,0.744 -0.048,0.45601 -0.336001,0.60001 -0.024,0.192 -0.024,0.408 0,0.192 0,0.384 0,0.288 0.024,0.96 0.048,0.648 0.168,1.368 0.120001,0.72 0.384001,1.248 0.264,0.504 0.720001,0.504 0.432001,0 0.744001,-0.24 0.336,-0.24 0.576001,-0.552 0.24,-0.312 0.384,-0.552 0.144001,-0.24 0.216001,-0.24 0.12,0 0.12,0.144 0,0.336 -0.360001,0.816 -0.336,0.48 -0.576001,0.72 -0.264,0.288 -0.624,0.504 -0.360001,0.216 -0.768001,0.216 -0.720002,0 -1.128002,-0.504 -0.408001,-0.528 -0.624001,-1.272 -0.192,-0.768 -0.264,-1.536 -0.048,-0.792 -0.048,-1.296 0,-0.456 0,-0.888 0.024,-0.432 0.048,-0.86401 -0.384001,0.67201 -0.888002,1.29601 -0.504,0.624 -0.984001,1.224 -0.720001,0.816 -1.416002,1.776 -0.12,0.168 -0.24,0.408 -0.096,0.216 -0.264001,0.384 l -0.048,0.048 q -0.168,0.456 -0.216,0.696 -0.048,0.24 -0.480001,0.528 -0.144,0.096 -0.312,0.192 -0.168001,0.096 -0.360001,0.096 z"
   style="font-family:'Moon Dance';-inkscape-font-specification:'Moon Dance';stroke-width:1"
   id="path4409" />
  <path
   d="m 78.422062,342.8439 q -0.672001,0 -1.008002,-0.48 -0.336,-0.48 -0.456,-1.104 -0.096,-0.648 -0.096,-1.152 0,-0.504 0.048,-0.984 0.072,-0.504 0.144,-0.984 -0.240001,0.312 -0.672001,0.888 -0.432001,0.552 -0.984002,1.224 -0.552,0.648 -1.128001,1.248 -0.576001,0.576 -1.128002,0.96 -0.528001,0.36 -0.912001,0.36 -0.336001,0 -0.432001,-0.312 -0.072,-0.312 -0.072,-0.552 0,-1.08 0.432001,-2.28 0.432,-1.2 0.888001,-2.16 0.12,-0.264 0.360001,-0.72001 0.24,-0.456 0.552,-0.936 0.336001,-0.48 0.696001,-0.792 0.360001,-0.312 0.720001,-0.264 0.264001,-0.168 0.504001,-0.288 0.264,-0.144 0.576001,-0.144 0.192,0 0.624001,0.12 0.456,0.12 0.648001,0.168 0.096,-0.192 0.288,-0.288 0.192,-0.096 0.384001,-0.096 0.192,0 0.264,0.024 0.096,-0.048 0.144,-0.048 0.144001,0 0.192001,0.216 0.048,0.192 0.048,0.312 0,0.312 -0.072,0.552 -0.072,0.24 -0.192001,0.528 -0.096,0.24 -0.168,0.456 -0.048,0.192 -0.264,0.36 -0.168001,0.86401 -0.264001,1.75201 -0.072,0.864 -0.072,1.752 0,0.312 0.024,0.744 0.048,0.432 0.216001,0.768 0.192,0.336 0.576,0.336 0.600001,0 1.056002,-0.432 0.480001,-0.456 0.792001,-0.864 0.048,-0.072 0.12,-0.144 0.072,-0.096 0.168,-0.144 l 0.072,0.144 q 0,0.24 -0.24,0.576 -0.24,0.336 -0.528001,0.648 -0.288,0.288 -0.48,0.432 -0.288001,0.24 -0.648001,0.432 -0.336001,0.168 -0.720001,0.168 z m -5.376008,-1.008 q 0.144,0 0.312001,-0.12 0.168,-0.12 0.264,-0.216 1.128001,-0.984 1.992003,-2.208 0.888001,-1.224 1.536002,-2.54401 0.072,-0.12 0.144,-0.264 0.072,-0.144 0.096,-0.288 0.048,-0.192 0.096,-0.408 0.048,-0.24 0.072,-0.432 -0.024,-0.12 -0.264001,-0.216 -0.24,-0.096 -0.528001,-0.144 -0.264,-0.072 -0.384,-0.072 -0.456001,0 -0.816001,0.384 -0.336001,0.36 -0.576001,0.696 -0.288001,0.432 -0.672001,1.12801 -0.360001,0.696 -0.720001,1.488 -0.336001,0.768 -0.576001,1.488 -0.216,0.72 -0.216,1.224 0,0.12 0.024,0.312 0.048,0.192 0.216001,0.192 z"
   style="font-family:'Moon Dance';-inkscape-font-specification:'Moon Dance';stroke-width:1"
   id="path4411" />
  <path
   d="m 87.134002,342.7959 q -0.456001,0 -0.576001,-0.408 -0.12,-0.432 -0.12,-0.792 0,-1.056 0.384,-2.136 0.408001,-1.104 0.864001,-2.016 0.216001,-0.432 0.552001,-1.00801 0.360001,-0.6 0.792001,-1.104 0.456001,-0.504 0.936002,-0.624 0.48,-0.12 0.672001,-0.312 0.192,-0.192 0.624,-0.192 0.360001,0 0.696001,0.096 0.360001,0.072 0.696001,0.168 0.312001,-1.032 0.720001,-2.04 0.432001,-1.008 0.528001,-2.064 -0.096,-0.072 -0.168,-0.144 -0.072,-0.096 -0.144,-0.192 0.192,-0.45601 0.312,-0.88801 0.144,-0.456 0.288001,-0.912 0.072,-0.192 0.36,-0.36 0.312001,-0.168 0.504001,-0.168 0.336,0 0.336,0.432 0,0.312 -0.144,0.864 -0.144,0.552 -0.336,1.10401 -0.168001,0.528 -0.288001,0.84 -0.336,0.96 -0.672001,1.92 -0.336,0.96 -0.600001,1.944 0.120001,0.024 0.264001,0.144 0.168,0.096 0.168,0.24 0,0.096 -0.12,0.12 -0.12,0 -0.168,0 -0.096,0 -0.168001,0 -0.072,-0.024 -0.144,-0.024 -0.144,0.408 -0.36,1.224 -0.216001,0.81601 -0.432001,1.75201 -0.192,0.936 -0.336,1.752 -0.120001,0.816 -0.120001,1.248 0,0.192 0.072,0.432 0.072,0.24 0.312,0.24 0.264,0 0.600001,-0.264 0.336,-0.264 0.672001,-0.6 0.336,-0.336 0.600001,-0.6 0.264,-0.264 0.36,-0.264 0.048,0 0.048,0.048 0,0.168 -0.096,0.336 -0.096,0.168 -0.216,0.288 -0.312001,0.312 -0.816001,0.744 -0.480001,0.408 -1.032002,0.744 -0.528001,0.312 -1.008001,0.312 -0.360001,0 -0.456001,-0.288 -0.072,-0.288 -0.072,-0.576 0,-0.504 0.072,-1.152 0.096,-0.648 0.24,-1.296 0.144001,-0.648 0.264001,-1.128 -0.168,0.336 -0.552001,0.888 -0.384001,0.552 -0.888001,1.2 -0.504001,0.624 -1.032002,1.2 -0.528001,0.552 -1.032001,0.912 -0.480001,0.36 -0.840001,0.36 z m 0.504,-0.96 q 0.144,0 0.312001,-0.12 0.168,-0.12 0.264,-0.216 1.128002,-0.984 1.992003,-2.208 0.888001,-1.224 1.536002,-2.54401 0.12,-0.24 0.264001,-0.624 0.168,-0.384 0.168,-0.648 0,-0.192 -0.12,-0.24 -0.216001,-0.12 -0.528001,-0.216 -0.288001,-0.096 -0.552001,-0.096 -0.456001,0 -0.816001,0.384 -0.336001,0.36 -0.576001,0.696 -0.288,0.432 -0.672001,1.12801 -0.36,0.696 -0.720001,1.488 -0.336,0.768 -0.576001,1.488 -0.216,0.72 -0.216,1.224 0,0.12 0.024,0.312 0.048,0.192 0.216,0.192 z"
   style="font-family:'Moon Dance';-inkscape-font-specification:'Moon Dance';stroke-width:1"
   id="path4413" />
  <path
   d="m 97.045983,333.17189 q -0.096,0 -0.192,-0.192 -0.072,-0.192 -0.12,-0.408 -0.024,-0.24 -0.024,-0.336 0,-0.048 0,-0.12 0.024,-0.096 0.096,-0.12 0.408001,-0.048 0.768001,-0.144 0.384001,-0.096 0.768001,-0.216 0.048,-0.024 0.168001,-0.024 0.192,0 0.192,0.216 0,0.48 -0.456001,0.792 -0.264,0.168 -0.576001,0.36 -0.288,0.192 -0.624001,0.192 z m -2.352003,9.67201 q -0.36,0 -0.36,-0.384 0,-0.408 0.144,-1.056 0.144,-0.672 0.336,-1.344 0.192,-0.672 0.288001,-1.056 0.024,-0.096 0.144,-0.504 0.12,-0.432 0.264,-0.936 0.144,-0.504 0.240001,-0.88801 0.12,-0.408 0.12,-0.48 0,-0.12 -0.144,-0.216 -0.120001,-0.096 -0.120001,-0.216 0,-0.072 0.024,-0.144 0.024,-0.072 0.048,-0.12 0.072,-0.12 0.360001,-0.312 0.288,-0.192 0.600001,-0.336 0.336,-0.168 0.456,-0.168 0.072,0 0.096,0.024 0.024,0.048 0.024,0.168 0,0.216 -0.120001,0.648 -0.096,0.432 -0.264,0.96 -0.144,0.50401 -0.288,0.93601 -0.144001,0.432 -0.216001,0.648 -0.12,0.36 -0.336,1.032 -0.216,0.672 -0.384001,1.344 -0.168,0.672 -0.168,1.056 0,0.048 0.024,0.216 0.024,0.144 0.12,0.144 0.12,0 0.432001,-0.192 0.336,-0.216 0.696001,-0.408 0.36,-0.192 0.552001,-0.192 0.096,0 0.12,0.048 0,0.096 -0.312001,0.336 -0.312,0.216 -0.672001,0.456 -0.336,0.216 -0.456,0.336 -0.240001,0.216 -0.576001,0.408 -0.336,0.192 -0.672,0.192 z"
   style="font-family:'Moon Dance';-inkscape-font-specification:'Moon Dance';stroke-width:1"
   id="path4415" />
  <path
   d="m 104.5819,343.1079 q -0.192,0 -0.192,-0.144 l 0.312,-0.912 q 0.096,-0.288 0.144,-0.576 0.048,-0.312 0.12,-0.624 0.144,-0.6 0.288,-1.176 0.168,-0.576 0.336,-1.176 0.14401,-0.48 0.26401,-0.96 0.144,-0.504 0.192,-1.00801 0.048,-0.072 -0.144,-0.048 -0.19201,0 -0.19201,-0.096 0.19201,-0.432 0.28801,-0.888 0.12,-0.456 0.288,-0.888 0.072,-0.192 0.384,-0.36 0.312,-0.168 0.504,-0.168 0.336,0 0.336,0.432 0,0.312 -0.168,1.032 -0.168,0.72 -0.408,1.58401 -0.24,0.84 -0.48,1.56 -0.216,0.72 -0.312,1.056 0.768,-1.368 1.704,-2.592 0.96,-1.24801 2.16,-2.25601 0.216,-0.192 0.528,-0.192 0.648,0 0.648,0.552 0,0.312 -0.12,0.936 -0.12,0.624 -0.312,1.36801 -0.192,0.72 -0.36,1.368 -0.168,0.624 -0.288,0.96 0.552,-0.552 1.176,-1.2 0.624,-0.672 1.176,-1.392 0.55201,-0.74401 0.88801,-1.41601 0,-0.216 0.24,-0.336 0.264,-0.12 0.432,-0.12 0.072,0 0.216,0.048 0.096,-0.048 0.144,-0.048 0.216,0 0.264,0.336 0.072,0.312 0.072,0.456 0,0.264 -0.072,0.74401 -0.048,0.456 -0.336,0.6 -0.024,0.288 -0.048,0.6 0,0.288 0,0.576 0,0.264 0.024,0.768 0.048,0.504 0.168,1.032 0.12,0.504 0.36,0.864 0.24,0.36 0.624,0.36 0.432,0 0.744,-0.24 0.336,-0.24 0.552,-0.552 0.24,-0.312 0.384,-0.552 0.144,-0.24 0.216,-0.24 0.12,0 0.12,0.12 0,0.072 -0.048,0.216 -0.144,0.432 -0.504,0.912 -0.36,0.456 -0.816,0.792 -0.456,0.336 -0.96,0.336 -0.6,0 -1.008,-0.408 -0.384,-0.432 -0.624,-1.056 -0.216,-0.648 -0.312,-1.296 -0.072,-0.648 -0.072,-1.104 0,-0.456 0.024,-0.888 0.048,-0.456 0.096,-0.912 -0.216,0.312 -0.456,0.6 -0.24001,0.288 -0.45601,0.576 l -1.92,2.4 q 0,0.36 -0.168,0.84 -0.144,0.456 -0.456,0.792 -0.288,0.336 -0.744,0.336 -0.168,0 -0.192,-0.12 0,-0.144 0.024,-0.24 -0.048,-0.048 -0.072,-0.12 0,-0.096 0,-0.168 0,-0.192 0.096,-0.672 0.12,-0.48 0.264,-1.032 0.168,-0.576 0.312,-1.056 0.144,-0.48 0.216,-0.696 0.144,-0.528 0.264,-1.08 0.144,-0.55201 0.144,-1.08001 0,-0.096 -0.024,-0.24 -0.024,-0.144 -0.168,-0.144 -0.264,0 -0.648,0.36 -0.36,0.36 -0.768,0.86401 -0.384,0.504 -0.696,0.96 -0.312,0.456 -0.432,0.648 -0.264,0.384 -0.696,1.08 -0.432,0.672 -0.768,1.392 -0.33601,0.72 -0.33601,1.2 v 0.096 q 0,0.216 -0.384,0.456 -0.36,0.264 -0.576,0.264 z"
   style="font-family:'Moon Dance';-inkscape-font-specification:'Moon Dance';stroke-width:1"
   id="path4417" />
  <path
   d="m 119.4139,333.17189 q -0.096,0 -0.192,-0.192 -0.072,-0.192 -0.12,-0.408 -0.024,-0.24 -0.024,-0.336 0,-0.048 0,-0.12 0.024,-0.096 0.096,-0.12 0.408,-0.048 0.768,-0.144 0.384,-0.096 0.76801,-0.216 0.048,-0.024 0.168,-0.024 0.192,0 0.192,0.216 0,0.48 -0.456,0.792 -0.26401,0.168 -0.57601,0.36 -0.288,0.192 -0.624,0.192 z m -2.352,9.67201 q -0.36,0 -0.36,-0.384 0,-0.408 0.144,-1.056 0.144,-0.672 0.336,-1.344 0.192,-0.672 0.288,-1.056 0.024,-0.096 0.144,-0.504 0.12,-0.432 0.264,-0.936 0.144,-0.504 0.24,-0.88801 0.12,-0.408 0.12,-0.48 0,-0.12 -0.144,-0.216 -0.12,-0.096 -0.12,-0.216 0,-0.072 0.024,-0.144 0.024,-0.072 0.048,-0.12 0.072,-0.12 0.36,-0.312 0.288,-0.192 0.6,-0.336 0.336,-0.168 0.456,-0.168 0.072,0 0.096,0.024 0.024,0.048 0.024,0.168 0,0.216 -0.12,0.648 -0.096,0.432 -0.264,0.96 -0.144,0.50401 -0.288,0.93601 -0.144,0.432 -0.216,0.648 -0.12,0.36 -0.336,1.032 -0.216,0.672 -0.384,1.344 -0.168,0.672 -0.168,1.056 0,0.048 0.024,0.216 0.024,0.144 0.12,0.144 0.12,0 0.432,-0.192 0.336,-0.216 0.696,-0.408 0.36,-0.192 0.552,-0.192 0.096,0 0.12,0.048 0,0.096 -0.312,0.336 -0.312,0.216 -0.672,0.456 -0.336,0.216 -0.456,0.336 -0.24,0.216 -0.576,0.408 -0.336,0.192 -0.672,0.192 z"
   style="font-family:'Moon Dance';-inkscape-font-specification:'Moon Dance';stroke-width:1"
   id="path4419" />
  <path
   d="m 126.37387,337.3719 q -0.12,0 -0.12,-0.12 0,-0.072 0.024,-0.12 0.144,-0.38401 0.216,-0.72001 0.096,-0.36 0.096,-0.744 0,-0.144 -0.024,-0.384 0,-0.264 -0.096,-0.48 -0.072,-0.216 -0.288,-0.216 -0.096,0 -0.168,0.024 -0.072,0 -0.168,0 -0.24,0 -0.24,-0.192 0,-0.096 0.216,-0.168 0.24,-0.072 0.504,-0.12 0.264,-0.048 0.36,-0.048 0.6,0 0.744,0.456 0.168,0.432 0.168,0.912 0,0.456 -0.168,0.96 -0.144,0.50401 -0.552,0.76801 -0.096,0.072 -0.24,0.144 -0.144,0.048 -0.264,0.048 z m -3.57601,5.472 q -0.696,0 -0.984,-0.336 -0.264,-0.336 -0.264,-0.984 0,-0.72 0.168,-1.44 0.168,-0.72 0.408,-1.392 l -0.216,0.072 q -0.12,-0.072 -0.12,-0.24 0,-0.216 0.192,-0.408 0.216,-0.216 0.432,-0.24 0.144,-0.36 0.408,-0.936 0.264,-0.57601 0.6,-1.15201 0.36001,-0.576 0.79201,-0.96 0.432,-0.384 0.936,-0.384 0.216,0 0.216,0.192 0,0.072 -0.096,0.192 -0.096,0.096 -0.144,0.144 -0.312,0.288 -0.6,0.816 -0.288,0.504 -0.528,1.056 -0.24,0.52801 -0.408,0.93601 0.672,-0.096 1.32,-0.144 0.672,-0.048 1.344,-0.048 0.072,0 0.36,0.024 0.288,0 0.648,0.048 0.36,0.024 0.6,0.096 0.264,0.072 0.264,0.192 0,0.096 -0.12,0.12 -0.096,0.024 -0.144,0.024 -0.312,0 -0.6,-0.048 -0.288,-0.048 -0.6,-0.048 -0.816,0 -1.656,0.12 -0.84,0.12 -1.65601,0.288 -0.24,0.624 -0.48,1.416 -0.216,0.792 -0.216,1.488 0,0.384 0.144,0.744 0.144,0.336 0.6,0.336 0.64801,0 1.22401,-0.504 0.6,-0.528 1.104,-1.176 0.504,-0.672 0.84,-1.104 h 0.024 q 0.096,0 0.096,0.096 0.024,0.096 0.024,0.144 0,0.408 -0.192,0.768 -0.192,0.336 -0.48,0.624 -0.648,0.6 -1.488,1.104 -0.816,0.504 -1.75201,0.504 z"
   style="font-family:'Moon Dance';-inkscape-font-specification:'Moon Dance';stroke-width:1"
   id="path4421" />
  <path
   d="m 129.03784,342.6519 q -0.216,0 -0.384,-0.12 -0.144,-0.12 -0.144,-0.36 0,-0.336 0.048,-0.84 0.048,-0.504 0.096,-0.864 0.192,-1.152 0.432,-2.304 0.264,-1.176 0.576,-2.30401 0.288,-1.104 0.672,-2.328 0.384,-1.248 0.936,-2.424 0.552,-1.176 1.344,-2.11201 0.816,-0.96 1.944,-1.464 0.28801,-0.12 0.60001,-0.192 0.312,-0.096 0.624,-0.096 0.288,0 0.672,0.12 0.408,0.12 0.696,0.36 0.288,0.216 0.288,0.576 0,0.144 -0.072,0.216 -0.048,0.072 -0.384,0.312 -0.312,0.216 -0.36,0.24 -0.048,-0.048 -0.048,-0.072 0,-0.072 0.072,-0.144 0.072,-0.072 0.072,-0.168 0,-0.24 -0.264,-0.432 -0.264,-0.216 -0.6,-0.336 -0.336,-0.144 -0.552,-0.144 -0.79201,0 -1.46401,0.672 -0.648,0.672 -1.176,1.72801 -0.528,1.032 -0.936,2.208 -0.408,1.152 -0.696,2.184 -0.288,1.032 -0.456,1.656 -0.192,0.69601 -0.408,1.56001 -0.216,0.864 -0.384,1.752 -0.144,0.864 -0.144,1.608 0,0.216 0.072,0.456 0.096,0.216 0.36,0.216 0.36,0 0.744,-0.24 0.408,-0.24 0.768,-0.552 0.384,-0.336 0.648,-0.576 0.288,-0.24 0.384,-0.24 0.048,0 0.048,0.048 0,0.168 -0.096,0.336 -0.096,0.168 -0.216,0.288 -0.312,0.312 -0.888,0.744 -0.576,0.408 -1.224,0.72 -0.648,0.312 -1.2,0.312 z"
   style="font-family:'Moon Dance';-inkscape-font-specification:'Moon Dance';stroke-width:1"
   id="path4423" />
  <path
   d="m 138.10985,337.3719 q -0.12,0 -0.12,-0.12 0,-0.072 0.024,-0.12 0.144,-0.38401 0.216,-0.72001 0.096,-0.36 0.096,-0.744 0,-0.144 -0.024,-0.384 0,-0.264 -0.096,-0.48 -0.072,-0.216 -0.288,-0.216 -0.096,0 -0.168,0.024 -0.072,0 -0.168,0 -0.24,0 -0.24,-0.192 0,-0.096 0.216,-0.168 0.24,-0.072 0.504,-0.12 0.264,-0.048 0.36,-0.048 0.6,0 0.744,0.456 0.168,0.432 0.168,0.912 0,0.456 -0.168,0.96 -0.144,0.50401 -0.552,0.76801 -0.096,0.072 -0.24,0.144 -0.144,0.048 -0.264,0.048 z m -3.57601,5.472 q -0.696,0 -0.984,-0.336 -0.264,-0.336 -0.264,-0.984 0,-0.72 0.168,-1.44 0.168,-0.72 0.408,-1.392 l -0.216,0.072 q -0.12,-0.072 -0.12,-0.24 0,-0.216 0.192,-0.408 0.216,-0.216 0.432,-0.24 0.144,-0.36 0.408,-0.936 0.264,-0.57601 0.6,-1.15201 0.36,-0.576 0.792,-0.96 0.432,-0.384 0.936,-0.384 0.216,0 0.216,0.192 0,0.072 -0.096,0.192 -0.096,0.096 -0.144,0.144 -0.312,0.288 -0.6,0.816 -0.288,0.504 -0.528,1.056 -0.24,0.52801 -0.408,0.93601 0.672,-0.096 1.32,-0.144 0.67201,-0.048 1.34401,-0.048 0.072,0 0.36,0.024 0.288,0 0.648,0.048 0.36,0.024 0.6,0.096 0.264,0.072 0.264,0.192 0,0.096 -0.12,0.12 -0.096,0.024 -0.144,0.024 -0.312,0 -0.6,-0.048 -0.288,-0.048 -0.6,-0.048 -0.816,0 -1.65601,0.12 -0.84,0.12 -1.656,0.288 -0.24,0.624 -0.48,1.416 -0.216,0.792 -0.216,1.488 0,0.384 0.144,0.744 0.144,0.336 0.6,0.336 0.648,0 1.224,-0.504 0.6,-0.528 1.10401,-1.176 0.504,-0.672 0.84,-1.104 h 0.024 q 0.096,0 0.096,0.096 0.024,0.096 0.024,0.144 0,0.408 -0.192,0.768 -0.192,0.336 -0.48,0.624 -0.64801,0.6 -1.48801,1.104 -0.816,0.504 -1.752,0.504 z"
   style="font-family:'Moon Dance';-inkscape-font-specification:'Moon Dance';stroke-width:1"
   id="path4425" />
</g>

<path
   id="plane"
   d="M 72.923793,16.335432 H 67.866489 L 61.12341,26.450045 h -3.371538 l 2.528664,-10.114613 h -5.900199 l -1.685778,3.371525 h -3.371527 l 1.685749,-5.900186 -1.685749,-5.9001944 h 3.371527 l 1.685778,3.3715444 h 5.900199 L 57.751872,1.1634989 h 3.371538 l 6.743079,10.1146221 h 5.057304 c 5.057315,0 5.057315,5.057311 0,5.057311 z"
   fill="#ffffff"
   stroke="#000000"
   stroke-width="1.5"
   inkscape:transform-center-x="-0.10296025"
   inkscape:transform-center-y="-4.6661642"
   style="fill:#ffffff;fill-opacity:1;stroke-width:2.27564;stroke-dasharray:none" /></svg>
