<?xml version="1.0" encoding="UTF-8" standalone="no"?>
<svg
   viewBox="0 0 285.40212 413.36916"
   version="1.1"
   id="svg6"
   sodipodi:docname="temp.svg"
   width="285.40213"
   height="413.36917"
   inkscape:version="1.2.2 (b0a84865, 2022-12-01)"
   xmlns:inkscape="http://www.inkscape.org/namespaces/inkscape"
   xmlns:sodipodi="http://sodipodi.sourceforge.net/DTD/sodipodi-0.dtd"
   xmlns="http://www.w3.org/2000/svg"
   xmlns:svg="http://www.w3.org/2000/svg"
   xmlns:bx="https://boxy-svg.com">
  <defs
     id="defs10" />
  <sodipodi:namedview
     id="namedview8"
     pagecolor="#ffffff"
     bordercolor="#000000"
     borderopacity="0.25"
     inkscape:showpageshadow="2"
     inkscape:pageopacity="0.0"
     inkscape:pagecheckerboard="0"
     inkscape:deskcolor="#d1d1d1"
     showgrid="false"
     inkscape:zoom="1.8063759"
     inkscape:cx="191.82054"
     inkscape:cy="206.7676"
     inkscape:window-width="1666"
     inkscape:window-height="1051"
     inkscape:window-x="0"
     inkscape:window-y="38"
     inkscape:window-maximized="1"
     inkscape:current-layer="svg6" />
  <path
     style="fill:none;fill-opacity:0;stroke:#000000;stroke-width:1;stroke-dasharray:none;stroke-opacity:1"
     d="m 62.730692,10.76535 c -11.28011,68.968857 247.460868,68.521492 -15.7254,153.8875 -71.13526,23.6336 -45.7537201,92.50964 -4.92189,112.08731 40.83183,19.57767 85.098168,20.97333 117.609328,3.9565 32.51117,-17.01683 53.26717,-52.44616 48.923,-75.15916 -4.34416,-22.713 -33.7885,-32.70967 -56.18316,-31.196 -22.39467,1.51366 -37.73967,14.53766 -39.69017,34.36 -1.9505,19.82233 9.4935,46.44299 30.77767,64.55816 21.28416,18.11517 49.18985,15.72803 87.25566,21.9015 167.81625,31.70522 -119.09733,51.31429 -99.83235,117.06418"
     class="dashed"
     bx:d="M 0 7.451 U 112.192 120.73 U 244.991 124.917 U 307.259 18.629 U 218.926 -11.361 U 172.891 27.711 U 207.223 107.573 U 300.596 136.402 U 416.306 72.633 U 441.09 36.968 U 460.989 33.043 1@7b3ec7d9"
     id="path3-7"
     sodipodi:nodetypes="ccsssssscc" />
  <path
     style="fill:#c4def4;fill-opacity:0;stroke:#c4def4;stroke-width:4px;stroke-opacity:1"
     d="m 62.514982,11.34682 c -11.28011,68.968856 247.460868,68.521491 -15.7254,153.8875 -71.13526,23.6336 -45.7537301,92.50965 -4.92189,112.08731 40.83183,19.57767 85.098168,20.97333 117.609328,3.9565 32.51117,-17.01683 53.26717,-52.44616 48.923,-75.15916 -4.34416,-22.713 -33.7885,-32.70967 -56.18316,-31.196 -22.39467,1.51366 -37.73967,14.53766 -39.69017,34.36 -1.9505,19.82233 9.4935,46.443 30.77767,64.55816 21.28416,18.11517 49.18985,15.72803 87.25566,21.9015 167.81625,31.70522 -119.09733,51.31429 -99.83235,117.06418"
     class="dashed"
     bx:d="M 0 7.451 U 112.192 120.73 U 244.991 124.917 U 307.259 18.629 U 218.926 -11.361 U 172.891 27.711 U 207.223 107.573 U 300.596 136.402 U 416.306 72.633 U 441.09 36.968 U 460.989 33.043 1@7b3ec7d9"
     id="path3"
     sodipodi:nodetypes="ccsssssscc" />
  <path
     id="plane"
     d="m 75.497952,18.75 h -6 l -8,12 h -4 l 3,-12 h -7 l -2,4 h -4 l 2,-7 -2,-7 h 4 l 2,4 h 7 l -3,-12 h 4 l 8,12 h 6 c 6,0 6,6 0,6 z"
     fill="#ffffff"
     stroke="#000000"
     stroke-width="1.5"
     inkscape:transform-center-x="-0.12214874"
     inkscape:transform-center-y="-5.5359462" />
  <text
     xml:space="preserve"
     style="font-size:24px;fill:none;fill-opacity:0;stroke:#000000;stroke-width:1;stroke-linecap:round;stroke-linejoin:round;stroke-miterlimit:1078.7;stroke-dasharray:none;stroke-opacity:1;-inkscape-font-specification:Montserrat-Italic;font-family:Montserrat-Italic;font-weight:normal;font-style:normal;font-stretch:normal;font-variant:normal"
     x="28.786921"
     y="99.093437"
     id="text1849"><tspan
       sodipodi:role="line"
       id="tspan1847"
       x="28.786921"
       y="99.093437"
       style="font-size:24px;-inkscape-font-specification:Montserrat-Italic;font-family:Montserrat-Italic;font-weight:normal;font-style:normal;font-stretch:normal;font-variant:normal">...e poi</tspan></text>
  <text
     xml:space="preserve"
     style="font-size:24px;fill:none;fill-opacity:0;stroke:#000000;stroke-width:1;stroke-linecap:round;stroke-linejoin:round;stroke-miterlimit:1078.7;stroke-dasharray:none;stroke-opacity:1"
     x="156.66727"
     y="153.89932"
     id="text1903"><tspan
       sodipodi:role="line"
       id="tspan1901"
       x="156.66727"
       y="153.89932">voleremo </tspan></text>
  <text
     xml:space="preserve"
     style="font-size:24px;fill:none;fill-opacity:0;stroke:#000000;stroke-width:1;stroke-linecap:round;stroke-linejoin:round;stroke-miterlimit:1078.7;stroke-dasharray:none;stroke-opacity:1"
     x="23.804567"
     y="333.26395"
     id="text1907"><tspan
       sodipodi:role="line"
       id="tspan1905"
       x="23.804567"
       y="333.26395">in luna di miele</tspan></text>
</svg>
