<svg
xmlns="http://www.w3.org/2000/svg"
xmlns:svg="http://www.w3.org/2000/svg"
version="1.1"
id="svg12381"
viewBox="0 0 1605.604 284.9892"
>
<defs id="defs12385" />
<g id="g12387" transform="translate(1.4139925,-220.07689)">
  <g id="g12508" transform="translate(2.3516922,14.110167)">
    <path
      style="display: inline; fill: #99cffb"
      d="m 15,489.07383 c -1.925,-1.01078 -6.1201988,-2.54915 -9.25,-3.63843 l -12.5016913,-4.35104 c -0.092269,-25.30499 -1.9754563,-63.38611 2.0656204,-86.26164 4.82750674,-27.32731 41.0788019,-72.22374 103.9029349,-85.24681 22.422736,-4.64809 20.287586,-27.73362 48.440096,-30.59485 40.22227,-4.08791 86.18938,-8.17472 136.46681,-7.74101 124.39323,1.07305 275.17145,15.43351 430.60883,20.83552 191.95242,6.67104 391.6335,1.75079 548.882,-13.25583 108.1092,-10.31713 208.4926,-3.50388 272.2296,30.98606 29.1888,15.79488 39.9631,-9.05541 62.332,15.8376 11.5656,12.87061 7.2882,136.04404 3.2741,162.3566 -1.0308,0 -7.1679,-0.71573 -9.5746,-1.5905 -2.4625,-0.89509 -9.1852,-1.8255 -15.3757,-2.12798 -11.6501,-0.56924 -13.5,-1.21421 -13.5,-4.70686 0,-1.19925 -1.8274,-5.95924 -4.0608,-10.57775 -7.6004,-15.71651 -24.1607,-28.43236 -43.9392,-33.73866 -9.0751,-2.43472 -31.9218,-2.36432 -41,0.12633 -11.9388,3.27549 -22.4168,9.18921 -31.4769,17.76526 -4.5612,4.31759 -8.4951,7.85016 -8.7419,7.85016 -0.2468,0 -2.1059,-2.40602 -4.1312,-5.34671 -7.6965,-11.17496 -20.9954,-22.29487 -35.15,-29.39069 -26.295,-13.18193 -61.9889,-14.79241 -89.8713,-4.05492 -15.5215,5.97734 -31.1357,16.7491 -39.6287,27.33865 -1.925,2.4002 -4.1325,4.27168 -4.9055,4.15884 -0.773,-0.11285 -2.1762,-2.45517 -3.1181,-5.20517 -4.5343,-13.23819 -16.7464,-27.0713 -31.0743,-35.19895 -20.5255,-11.64332 -50.1,-13.58158 -72.5423,-4.75428 -11.1985,4.40472 -17.37,8.40695 -26.4447,17.14944 l -8.5849,8.27061 -7.7531,-1.48341 c -21.3181,-4.07883 -45.965,0.64909 -63.0234,12.08953 -3.7467,2.51276 -7.1767,4.19929 -7.6223,3.74785 -0.4457,-0.45143 -2.7208,-4.64382 -5.0559,-9.31642 -4.9087,-9.82271 -15.5947,-21.24736 -25.1223,-26.85898 -32.11809,-18.91705 -75.1721,-15.04082 -100.33813,9.03362 -3.34671,3.20154 -6.56863,5.82099 -7.15982,5.82099 -0.59119,0 -5.2343,-1.35923 -10.31803,-3.02051 -29.06859,-9.49918 -61.52988,-7.54562 -87.84841,5.28681 -15.75703,7.68284 -30.55987,20.59478 -38.66481,33.72582 -2.2348,3.62067 -4.5735,6.21118 -5.82828,6.45583 -1.15264,0.22474 -6.14572,1.15584 -11.09572,2.06912 -10.14716,1.87216 -20.57529,5.87852 -28.58617,10.98245 -2.97761,1.89711 -5.74218,3.46081 -6.14351,3.47488 -0.40132,0.0141 -1.63165,-1.74243 -2.73407,-3.90335 -5.5399,-10.85909 -18.14802,-22.022 -32.19597,-28.50549 C 665.86386,447.57661 660.427,446.5466 642,446.58624 c -15.17782,0.0327 -17.14106,0.24996 -24.5,2.71186 -4.4,1.472 -8.29601,2.68211 -8.65779,2.68913 -0.36179,0.007 -3.13043,-3.69973 -6.15254,-8.23723 -17.65349,-26.50556 -46.29065,-41.72722 -81.7673,-43.4622 -25.07882,-1.22647 -51.84225,6.70517 -70.5021,20.89407 -3.12333,2.37497 -6.25792,4.74205 -6.96575,5.26017 -0.90374,0.66153 -2.44024,-0.0999 -5.15982,-2.55683 C 412.687,400.75019 370.82064,395.40482 338,411.07989 c -18.13904,8.66317 -30.90848,21.67864 -37.55313,38.27667 -1.46668,3.66369 -2.98787,6.85976 -3.38043,7.10238 -0.39255,0.24261 -3.6056,-0.51483 -7.14009,-1.6832 -5.16918,-1.70873 -8.96951,-2.13589 -19.42635,-2.1835 -11.65851,-0.0531 -13.79371,0.22012 -20.69167,2.64763 -4.23041,1.48876 -9.9798,4.11474 -12.77642,5.83551 l -5.08475,3.12868 -7.35564,-6.98713 c -13.92376,-13.22621 -28.33725,-19.11753 -48.83026,-19.95869 -8.1191,-0.33326 -15.00934,-0.0788 -19,0.70157 -8.67189,1.69587 -20.43815,6.38095 -27.4057,10.91238 -6.41784,4.17392 -15.54885,13.13347 -18.67264,18.322 -1.09466,1.81819 -2.60712,4.31924 -3.36102,5.55788 l -1.37072,2.25208 -6.225591,-3.14347 C 90.069496,466.98507 81.733997,464.93277 71,464.78811 c -18.47873,-0.24903 -31.048283,4.88711 -43.651038,17.8366 -4.483071,4.60641 -8.308071,8.3554 -8.5,8.33109 C 18.657033,490.9315 16.925,490.08461 15,489.07383 Z"
      id="path12514"
    />
    <path
      style="display: inline; fill: #6abbfa"
      d="m 1.0080793,398.24021 c 5.6632393,-25.1104 25.6652317,-51.3267 51.4917907,-64.47733 14.047232,-7.15271 35.834649,-12.76367 49.56055,-12.76367 7.37183,0 9.92102,-1.3613 9.96093,-5.32031 0.0723,-7.17323 9.72129,-20.23137 19.83204,-26.83985 9.29976,-6.0784 18.02929,-8.83884 30.16601,-9.53711 17.91666,-1.03082 35.75729,5.43699 47.5625,17.24219 3.55074,3.55074 7.01018,6.43566 7.6875,6.41016 0.67731,-0.0255 2.58047,-1.80309 4.23047,-3.94922 3.68893,-4.79813 13.31246,-12.71939 19.95898,-16.42969 12.55086,-7.00628 31.33016,-11.21164 45.54102,-10.19727 15.52421,1.10813 30.06781,5.57774 42.5,13.0625 7.02386,4.2287 18.40806,14.87104 22.00586,20.57032 2.95811,4.68595 4.04375,4.82058 12.64258,1.58398 3.51288,-1.32224 11.04504,-3.40019 16.73828,-4.61914 8.88857,-1.90309 12.41924,-2.14652 24.98242,-1.72461 27.79715,0.93351 49.90988,9.17131 68.45117,25.50391 2.10061,1.85038 4.44909,3.22517 5.22071,3.05468 0.77162,-0.17048 3.56049,-2.99408 6.19726,-6.27539 10.71187,-13.33025 30.04842,-25.0441 49.76172,-30.14453 14.29048,-3.69737 34.97637,-4.35733 49.05664,-1.5664 20.80865,4.12458 39.33894,13.30207 52.81836,26.16211 10.70711,10.21512 18.20566,21.07738 21.52344,31.18359 2.00035,6.09322 3.08555,6.35031 10.25,2.42383 8.21054,-4.4998 21.9923,-9.0555 33.35156,-11.02539 10.4066,-1.80468 32.37622,-2.06672 41.06641,-0.49024 32.64614,5.92234 59.88079,22.58837 75.93359,46.4668 3.12471,4.64798 6.10407,8.71097 6.61914,9.0293 1.20531,0.74492 19.68421,-3.44482 20.41602,-4.62891 1.14554,-1.85351 11.44297,-8.06224 19.55273,-11.78906 10.67395,-4.90519 16.19477,-6.66356 27.41211,-8.72656 10.92766,-2.00973 32.94977,-1.48237 44.5,1.06445 10.51802,2.31922 25.94358,9.06883 36.24609,15.86133 9.11787,6.01145 9.77561,6.10255 13.17188,1.82031 3.18404,-4.01466 15.96686,-13.69458 23.77346,-18.00391 35.4783,-19.58446 85.7898,-16.77775 116.7011,6.51172 3.5161,2.64912 7.2068,5.41959 8.2012,6.15625 2.9294,2.17009 3.9063,0.46686 3.9063,-6.81055 0,-36.30224 26.8042,-70.20665 67.3105,-85.14257 14.2119,-5.24038 23.8711,-7.06535 40.1895,-7.59375 16.6381,-0.53876 27.6607,0.79008 42.7207,5.15429 9.2379,2.67703 25.8017,10.40734 33.1894,15.49024 2.4481,1.68435 4.9865,3.0625 5.6426,3.0625 0.656,0 3.9505,-1.94251 7.3203,-4.31836 14.3071,-10.08692 30.7086,-16.99899 49.1113,-20.69531 9.5626,-1.9207 13.121,-2.13912 27.5,-1.69336 17.2064,0.53341 25.6669,1.91162 39.0157,6.35937 31.2023,10.39647 55.2324,32.37147 65.5625,59.95313 1.4205,3.79278 2.8912,7.21288 3.2675,7.60156 0.3762,0.38868 3.9016,-1.21914 7.834,-3.57227 17.1603,-10.26871 51.276,-13.4932 73.19,-13.61775 -1.0102,-36.57519 8.7914,-55.27211 -37.2427,-48.51703 l -2.7891,-7.96485 c -9.1293,-26.06987 -35.197,-42.49745 -67.4863,-42.52734 -20.9934,-0.0194 -39.486,7.4001 -53.584,21.49805 l -6.5371,6.53711 -5.3008,-6.77149 c -20.097,-25.67312 -49.16,-39.27148 -83.9317,-39.27148 -30.1879,0 -56.3402,10.37327 -76.2617,30.24609 -4.8274,4.81556 -8.9338,8.75391 -9.1269,8.75391 -0.1931,0 -1.3745,-2.73427 -2.625,-6.07813 -8.0474,-21.51855 -29.7564,-38.66048 -55.1289,-43.52929 -12.6712,-2.4315 -31.6824,-1.49851 -42.8418,2.10156 -15.1378,4.88354 -27.7253,12.68595 -35.9121,22.26367 l -3.9395,4.61133 -7.8242,-1.19141 c -23.4629,-3.57146 -47.3363,1.07195 -63.9317,12.4336 -3.5261,2.41415 -6.7452,4.38593 -7.1523,4.38086 -0.4072,-0.005 -2.5164,-3.94257 -4.6875,-8.75 -3.3406,-7.39709 -5.2795,-10.08657 -12.6094,-17.48633 -7.6465,-7.71947 -9.9073,-9.33912 -19.3047,-13.82813 -32.80782,-15.67199 -70.14942,-10.50655 -96.20699,13.3086 l -5.53125,5.05664 -9.19922,-3.09571 c -14.84864,-4.9946 -19.68074,-5.68865 -39.20117,-5.64062 -15.51004,0.0382 -19.24498,0.36654 -27,2.37305 -11.36725,2.94113 -26.51847,9.61602 -35.48633,15.63281 -8.33161,5.5899 -22.363,20.0029 -26.51367,27.23633 -1.69834,2.95972 -3.86777,5.40523 -5,5.63476 -1.1,0.223 -6.0258,1.13875 -10.94531,2.03711 -9.7013,1.77158 -20.55035,5.87346 -27.94727,10.56445 -2.57196,1.63108 -5.32233,2.96485 -6.11133,2.96485 -0.789,0 -3.08295,-2.58751 -5.09765,-5.75 -8.62955,-13.54595 -24.21352,-24.72037 -42.39844,-30.4043 -6.63198,-2.07291 -9.46751,-2.3457 -24.5,-2.3457 -16.82639,0 -21.49048,0.72253 -32.86133,5.08594 -0.96576,0.37059 -3.21647,-2.19858 -6.96875,-7.95508 -8.81095,-13.5172 -19.83944,-23.41645 -34.55664,-31.01758 -12.16224,-6.28154 -20.75359,-9.11877 -33.85156,-11.17774 -29.5211,-4.64064 -62.05734,2.92197 -83.47461,19.4004 -3.69256,2.84103 -7.42588,5.16406 -8.29492,5.16406 -0.86903,0 -4.37121,-2.32261 -7.78321,-5.16211 -7.50904,-6.24909 -21.35637,-13.08536 -32.20898,-15.90235 -11.4735,-2.97814 -29.52058,-3.64603 -40.82617,-1.50976 -17.60019,3.32568 -32.53453,10.48444 -44.9707,21.55664 -5.92264,5.27304 -13.97155,17.3058 -16.8418,25.17773 -1.18379,3.24665 -2.42321,6.06533 -2.75586,6.26563 -0.33265,0.20031 -3.30547,-0.55132 -6.60547,-1.66992 -4.76821,-1.61629 -8.77152,-2.05625 -19.5,-2.14453 -15.7469,-0.12958 -21.60203,1.23722 -32.30664,7.53906 l -6.80664,4.00781 -7.69336,-7.3418 c -8.10858,-7.73858 -19.13588,-14.27986 -28.92578,-17.1582 -2.87802,-0.84617 -9.74874,-2.06348 -15.26758,-2.70508 -8.58,-0.99748 -11.5053,-0.92052 -20.1875,0.53125 -18.01463,3.01226 -30.07568,8.97817 -41.31641,20.4375 -5.65507,5.76505 -11.49609,13.50127 -11.49609,15.22852 0,1.58324 -2.76965,0.85998 -10.173828,-2.65625 -7.760209,-3.68531 -19.808873,-6.50581 -27.664062,-6.47656 -7.816794,0.0291 -18.237721,2.73769 -26.833985,6.97461 -6.646898,3.2761 -9.558899,5.52149 -15.595703,12.01953 -4.08247,4.39438 -7.605658,7.97571 -7.828125,7.95898 -0.222467,-0.0167 -1.304298,-0.57922 -2.404297,-1.25 -1.099999,-0.67077 -5.150004,-2.36204 -8.9999997,-3.75781 L -4.676895,290.37801 c 2.8836032,0.75316 -2.3246841,142.14273 5.6849743,107.8622 z"
      id="path12512"
    />
  </g>
</g>
</svg>