<svg xmlns="http://www.w3.org/2000/svg" xmlns:bx="https://boxy-svg.com" xml:space="preserve" viewBox="0 0 285.2 370.5"><path bx:d="M 0 7.451 U 112.192 120.73 U 244.991 124.917 U 307.259 18.629 U 218.926 -11.361 U 172.891 27.711 U 207.223 107.573 U 300.596 136.402 U 416.306 72.633 U 441.09 36.968 U 460.989 33.043 1@7b3ec7d9" d="M63.6.9C52.3 69.9 311 69.4 47.9 154.8c-71.2 23.6-47.4 94.5-6.6 114 40.8 19.6 86.7 19 119.2 2 32.6-17 53.3-52.4 49-75.1-4.4-22.7-33.8-32.7-56.2-31.2-22.4 1.5-37.8 14.5-39.7 34.3-2 19.9 9.5 46.5 30.8 64.6 21.3 18.1 49.2 15.7 87.2 21.9C384 314 156.1 360.9 123 366a595 595 0 0 1-77.3 2.7" class="path" style="display:inline;fill:none;fill-opacity:0;stroke:#000;stroke-width:1;stroke-opacity:1"/><path bx:d="M 0 7.451 U 112.192 120.73 U 244.991 124.917 U 307.259 18.629 U 218.926 -11.361 U 172.891 27.711 U 207.223 107.573 U 300.596 136.402 U 416.306 72.633 U 441.09 36.968 U 460.989 33.043 1@7b3ec7d9" fill="none" d="M63.2.3c-11.3 69 247.5 68.5-15.7 154-71.1 23.5-47.4 94.4-6.6 114 40.9 19.5 86.8 19 119.3 2s53.3-52.5 49-75.2c-4.4-22.7-33.9-32.7-56.3-31.2-22.4 1.5-37.7 14.5-39.7 34.4-2 19.8 9.5 46.4 30.8 64.5s49.2 15.7 87.3 22c152.3 28.7-75.6 75.5-108.6 80.7a595 595 0 0 1-77.4 2.8" class="dashed" style="display:inline;fill:#c4def4;fill-opacity:0;stroke:#c4def4;stroke-width:4.00001px;stroke-opacity:1"/><g aria-label="...e poi" style="font-size:24px;font-family:&quot;Moon Dance&quot;;-inkscape-font-specification:&quot;Moon Dance&quot;;fill:none;fill-opacity:0;stroke:#000;stroke-width:1;stroke-linecap:round;stroke-linejoin:round;stroke-miterlimit:1078.7"><path d="M51.3 102.8q-.2 0-.3-.3l-.2-.5q0-.4.5-.6l.3-.3.6-.3.5-.1q0 0 0 0l-.1.3-.2.2-.3.6q0 .4-.3.7-.1.3-.5.3zM55.5 102.8q-.2 0-.3-.3l-.2-.5q0-.4.5-.6l.3-.3.6-.3.5-.1q0 0 0 0l-.1.3-.2.2-.3.6q0 .4-.3.7-.1.3-.5.3zM59.7 102.8q-.2 0-.3-.3l-.2-.5q0-.4.5-.6l.3-.3.6-.3.5-.1q0 0 0 0l-.1.3-.2.2-.3.6q0 .4-.3.7-.1.3-.5.3zM67.7 97.1l-.2-.1v-.1l.3-.7V94.5q-.1-.2-.3-.2H67l-.2-.1.2-.2.5-.1h.4q.6 0 .7.4.2.4.2.9l-.2 1q-.1.5-.5.7l-.3.2h-.2zm-3.6 5.5q-.7 0-1-.4-.3-.3-.3-1l.2-1.4.4-1.4-.2.1-.1-.2q0-.3.2-.4.2-.3.4-.3l.4-1 .6-1 .8-1q.4-.4 1-.4l.1.2v.2l-.2.1-.6.8-.5 1-.4 1 1.3-.1H68.5l.6.1q.3 0 .3.2l-.1.1h-3l-1.7.3-.5 1.5-.2 1.4.2.8q.1.3.6.3.6 0 1.2-.5t1.1-1.2l.8-1h.2v.2l-.2.8-.5.6q-.6.6-1.5 1-.8.6-1.7.6zM75.3 112l-.6-.2-.5-.3q-.3-.4-.4-.9l-.1-.8.2-2 .6-2.4.7-2.3.7-2-.1-.7q0-.5.2-.7l.6-.4 1-2.6 1.2-2.5-.4-.4-.5-.4-.1-.2.2-.4.4-.2q.2 0 .5.3l.3.4.3-.6.2-.5.5-.4.5-.1q.3 0 .3.2l-.1.4-.4.6-.3.7-.2.4 1.1 1.6q.6.8 1 1.7.4 1 .4 1.8 0 1-.4 1.7-.5.8-1.3 1.3t-1.7.5l-1.3-.1-1.2-.5-.7 1.8-.7 2.1-.5 2.2q-.3 1-.3 1.9v.6l.3.6q.2.3.6.3.3 0 .5-.2l.3-.3q0 0 0 0l-.2.4-.3.3V112H75.3zm4-10q.9 0 1.6-.4.7-.6.7-1.6t-.3-1.9q-.3-1-.8-1.7l-1-1.5-.9 2-.8 1.9h.1q0 0 0 0l.2.1q0 .3-.2.4l-.4.2-.3.8-.3.8h0q.5.5 1.1.7.5.2 1.2.2zM85 102.7q-.9 0-1.2-.5-.3-.6-.3-1.4 0-.9.3-1.6l.5-1.6-.3-.3-.1-.6q0-.4.5-1l1-1.2.8-.4.8-.4.8-.2q1 0 1.3.8.4.8.3 2l.3-.2.5-.2h.5l.2.3-.1.1-1.5.6-.5 1.7q-.3 1-.9 2-.5.8-1.2 1.5-.8.6-1.7.6zm1.2-5.7 1.1-.1 1.2-.4v-1.1q0-.4-.3-.7-.1-.3-.5-.3t-.8.4l-.7.7-.5.8-.4.6.9.1zm-1 5q.7 0 1.2-.4l1-1.2.6-1.6.4-1.6-1.6.5q-1 .2-1.7 0l-.5 1.5-.1 1.6.1.8q.1.4.6.4zM93.3 93l-.2-.3v-.4L93 92V91.7l.9-.1.7-.2h.2q.2 0 .2.2 0 .4-.5.8l-.5.3q-.3.2-.7.2zm-2.3 9.6q-.4 0-.4-.4l.2-1 .3-1.4.3-1 .1-.6.3-.9.2-.9.2-.5-.2-.2-.1-.2V95.2l.4-.3.6-.3.5-.2q0 0 0 0l.1.2-.1.7-.3 1-.3.9-.2.6-.3 1-.4 1.4-.2 1v.3l.2.1.4-.2.7-.4.5-.2h.2q0 .2-.3.4l-.7.4-.5.4-.5.4-.7.2z" style="font-size:24px;stroke:#074467;stroke-width:1" transform="translate(.7 -11)"/></g><g aria-label="voleremo" style="font-size:24px;fill:none;fill-opacity:0;stroke:#000;stroke-width:1;stroke-linecap:round;stroke-linejoin:round;stroke-miterlimit:1078.7"><path d="m193.4 148.7-.2-.1-.1-.1v-.4l.3-.3v-3.4l-.1-1.5q-.2 0-.3-.3l-.3-.8v-.6l.2-.6.6-.5.2-.1h.2l.2.1.2 1.9v5.4q1.2-1.1 2-2.4.8-1.4 1.2-3v-.2l.1-.3-.2-.7v-1.2q.2-.3.5-.3H198.2q.2 0 .2.4l.1.9v.6l.3.7.5.6.3.3-.1.2h-.2l-.6-.3-.5-.5q-.2 1-1 2.2-.6 1-1.5 2-.8 1-1.6 1.7l-.3.3-.3.3zM201.3 148.6q-.9 0-1.2-.5-.3-.5-.3-1.3 0-1 .2-1.7l.6-1.6-.3-.3-.1-.5q0-.5.5-1 .4-.7 1-1.2l.7-.5 1-.4.7-.2q1 0 1.3.8.4.8.3 2l.3-.2.5-.1.3-.1h.2l.1.3v.1l-1.5.6-.5 1.7q-.3 1-.9 2-.5.9-1.3 1.5-.7.6-1.6.6zm1.1-5.6 1.2-.2 1.2-.3v-1.2q0-.4-.3-.6-.1-.3-.5-.3t-.8.3q-.4.3-.7.8l-.6.8-.3.6h.8zm-.9 5q.7 0 1.2-.5.5-.4.9-1.2.4-.7.6-1.5l.5-1.7-1.7.5q-.9.2-1.6.1l-.5 1.5-.1 1.5v.8q.2.5.7.5zM207.3 148.3h-.4l-.2-.4v-.9l.2-.8.4-2.3.6-2.4.7-2.3q.3-1.2.9-2.4.5-1.2 1.3-2.1.9-1 2-1.5l.6-.2H214.7l.7.4q.3.2.3.6l-.1.2-.4.3-.4.3V134.5l.1-.1q0-.3-.2-.5l-.6-.3-.6-.1q-.8 0-1.4.6-.7.7-1.2 1.8l-1 2.2-.6 2.2-.5 1.6-.4 1.6-.4 1.7-.1 1.6v.5q.1.2.4.2.4 0 .7-.2l.8-.6.7-.6.3-.2q0 0 0 0v.4l-.2.3-1 .7-1.1.7q-.7.3-1.2.3zM216.3 143q0 0 0 0v-.2q0-.4.2-.7v-1.6q-.1-.2-.4-.2H215.8q-.2 0-.2-.2l.2-.2h.5l.3-.1q.6 0 .8.4l.2 1-.2.9q-.2.5-.6.8l-.2.1h-.3zm-3.5 5.5q-.7 0-1-.3-.3-.3-.3-1l.2-1.4.4-1.4h-.2l-.1-.2.1-.4.5-.2.4-1 .6-1.1q.3-.6.8-1 .4-.4 1-.4l.1.2v.2l-.2.2q-.3.2-.6.8l-.5 1-.4 1 1.3-.2H217.2l.6.1.3.2-.1.2h-.8l-.6-.1-1.6.1-1.7.3-.5 1.4-.2 1.5q0 .4.2.7.1.4.6.4.6 0 1.2-.5l1-1.2 1-1.1h0q0 0 0 0v.2l-.1.8-.5.6q-.6.6-1.5 1.1-.8.5-1.7.5zM218.5 148.8l-.2-.1q0-.3.2-.5l.1-.4.8-2.6.7-2.6.2-.7q0-.1-.2 0l-.2-.2.3-.8.3-1 .5-.3.6-.1q.3 0 .3.3l-.2.7-.3 1.2-.5 1.4-.5 1.3-.3.8 1-1.8 1.4-2q.7-.9 1.5-1.4l.5-.2q.5 0 .7.6.3.5.3.9v.4l-.3.6q-.1.2-.3.2-.2 0-.2-.2l-.1-.5q0-.3-.2-.5-.1-.3-.4-.3-.3 0-.8.5l-1 1.2-1 1.5-.8 1.5-.5 1v.8l-.3.6q0 .2-.2.3l-.5.3-.4.1zM230.8 143q0 0 0 0v-.2q0-.4.2-.7v-1.6q-.1-.2-.4-.2H230.3q-.2 0-.2-.2l.2-.2h.5l.3-.1q.6 0 .8.4l.2 1-.2.9q-.2.5-.6.8l-.2.1h-.3zm-3.5 5.5q-.7 0-1-.3-.3-.3-.3-1l.2-1.4.4-1.4h-.2q-.2 0-.2-.2l.2-.4.5-.2.4-1 .6-1.1q.3-.6.8-1 .4-.4 1-.4l.1.2v.2l-.2.2q-.3.2-.6.8l-.5 1-.5 1 1.4-.2H231.7l.6.1.3.2-.1.2h-.8l-.6-.1-1.6.1-1.7.3-.5 1.4-.2 1.5q0 .4.2.7.1.4.6.4.6 0 1.2-.5l1-1.2 1-1.1h0q0 0 0 0v.2l-.1.8-.5.6-1.5 1.1q-.8.5-1.7.5zM233 148.8l-.2-.1.3-1 .1-.5.2-.7.2-1.1.4-1.2.2-1 .2-1h-.1l-.2-.1.3-1 .3-.8q0-.2.4-.4l.5-.1q.3 0 .3.4l-.2 1-.4 1.6-.5 1.6-.3 1 1.7-2.6q1-1.2 2.2-2.2.2-.2.5-.2.7 0 .7.5l-.2 1q0 .6-.3 1.4l-.3 1.3-.3 1 1.2-1.2 1.1-1.4 1-1.4.2-.4h.8q.2 0 .2.3l.1.4v.8q-.1.4-.4.6V145.2l.1 1 .4.9q.2.4.6.4.4 0 .8-.3l.5-.5.4-.6.2-.2h.1v.3l-.5 1-.8.7q-.5.3-1 .3-.6 0-1-.4t-.6-1l-.3-1.3-.1-1.1v-1l.1-.8-.4.6-.5.6-2 2.4v.8l-.5.8q-.3.3-.8.3l-.2-.1v-1.2l.3-1 .3-1 .3-.8.2-1 .2-1.1v-.3l-.2-.1q-.3 0-.7.3l-.7.9-.7 1-.5.6-.7 1-.7 1.5q-.4.7-.4 1.2v0q0 .3-.4.5-.3.3-.5.3z" style="font-family:&quot;Moon Dance&quot;;-inkscape-font-specification:&quot;Moon Dance&quot;;stroke:#074467;stroke-width:1" transform="translate(.7 -11)"/><path d="M246.8 148.6q-.9 0-1.2-.5-.3-.5-.3-1.3 0-1 .2-1.7l.6-1.6-.3-.3-.1-.5q0-.5.5-1 .4-.7 1-1.2l.7-.5 1-.4.7-.2q1 0 1.3.8.4.8.3 2l.3-.2.5-.1.3-.1h.2l.1.3v.1l-1.5.6-.5 1.7q-.3 1-.9 2-.5.9-1.3 1.5-.7.6-1.6.6zm1.1-5.6 1.2-.2 1.2-.3v-1.2q0-.4-.3-.6-.1-.3-.5-.3t-.8.3q-.4.3-.7.8l-.6.8-.3.6h.8zm-.9 5q.7 0 1.2-.5.5-.4.9-1.2.4-.7.6-1.5l.5-1.7-1.7.5q-.9.2-1.6.1l-.5 1.5-.1 1.5v.8q.2.5.7.5z" style="font-family:&quot;Moon Dance&quot;;-inkscape-font-specification:&quot;Moon Dance&quot;;stroke:#074467;stroke-width:1" transform="translate(.7 -11)"/></g><g aria-label="in luna di miele" style="font-size:24px;fill:none;fill-opacity:0;stroke:#074467;stroke-width:1;stroke-linecap:round;stroke-linejoin:round;stroke-miterlimit:1078.7"><path d="m33.1 333.2-.2-.2v-.4l-.1-.4q0 0 0 0v-.2l.9-.1.7-.3h.2q.2 0 .2.2 0 .5-.5.8l-.5.4q-.3.2-.7.2zm-2.3 9.6q-.4 0-.4-.3l.2-1.1.3-1.3.3-1.1.1-.5.3-1 .2-.8.2-.5-.2-.2-.1-.2V335.5l.4-.3.6-.3.5-.2q0 0 0 0l.1.2-.1.6-.3 1-.3 1-.2.6-.3 1-.4 1.3-.2 1.1v.2q0 .2.2.2l.4-.2.7-.4.6-.2q0 0 0 0l-.2.4-.7.4-.5.3-.5.5-.7.1zM34.7 343.1l-.2-.1.3-1 .1-.5q0-.4.2-.7l.3-1.2.4-1.2.1-.7.3-.8v-.7h-.3l.3-1 .3-.9.4-.3.5-.2q.3 0 .3.4l-.1 1.2-.6 1.7-.5 1.9-.5 1.4 1.6-1.6 1.3-1.7 1-1.6q0-.3.4-.4h.5l.2-.1q.2 0 .2.3l.1.5v.7q-.1.5-.4.6v1.8l.2 1.4q.1.7.4 1.2.2.5.7.5.4 0 .7-.2l.6-.6.4-.5.2-.3.1.2q0 .3-.3.8l-.6.7-.6.5-.8.2q-.7 0-1.1-.5-.4-.5-.7-1.3l-.2-1.5v-3l-1 1.3-.9 1.2-1.4 1.8-.2.4-.3.3v.1l-.3.7q0 .2-.5.5l-.3.2-.3.1zM50.6 342.7l-.4-.2-.1-.3v-.9l.1-.8.5-2.3.5-2.3.7-2.4 1-2.4q.5-1.2 1.3-2.1.8-1 2-1.5l.5-.2H58l.7.4q.3.2.3.6v.2l-.4.3-.4.3v-.4q0-.3-.2-.4-.2-.3-.6-.4l-.5-.1q-.8 0-1.5.6-.6.7-1.2 1.8l-1 2.2-.6 2.2-.5 1.6-.4 1.6-.3 1.7-.2 1.6v.5l.4.2.8-.2.8-.6.6-.6.4-.2q0 0 0 0v.4l-.3.3-.9.7-1.2.7q-.6.4-1.2.4z" style="font-family:&quot;Moon Dance&quot;;-inkscape-font-specification:&quot;Moon Dance&quot;;stroke-width:1" transform="translate(.7 -11)"/><path d="m59.4 343-.4-.2-.2-.4.2-1.6.4-1.9.4-1.6-.6 1-1 1.4-1.3 1.5-1.2 1.2q-.6.4-1 .4l-.3-.1v-.3l.1-.8.4-1.2.5-1.2.3-1 .4-1.3h0-.2v-.2q0 0 0 0v-.1l.1-1q0-.6.3-1 .3-.3 1-.3.3 0 .3.4l-.2 1-.5 1.7-.5 1.7-.4 1.2-.2.6-.1.5h0q0 0 0 0 1-.6 1.9-1.6.8-1 1.5-2.3l1.2-2.1v-.4q0-.5.4-.7.4-.2.9-.2h.3q.2 0 .2.3v.2l-.2.1-.7 1.7-.6 1.8-.3 1-.4 1.3-.1 1.1v.4q.1.2.3.2l.5-.2.7-.6.6-.5.4-.3v.4l-.2.3-.7.6-1 .7q-.6.3-1 .3zM62.5 343.1l-.2-.1.3-1 .2-.5v-.7l.4-1.2.4-1.2.2-.7.2-.8v-.7h-.2l.2-1 .3-.9.4-.3.5-.2q.4 0 .4.4l-.2 1.2-.5 1.7-.6 1.9-.5 1.4 1.6-1.6 1.4-1.7 1-1.6q0-.3.3-.4h.6l.1-.1q.2 0 .3.3v1.2q0 .5-.4.6v1.8l.2 1.4q.1.7.4 1.2.2.5.7.5.4 0 .7-.2l.6-.6.4-.5.2-.3.1.2q0 .3-.3.8l-.6.7-.6.5-.8.2q-.7 0-1.1-.5-.4-.5-.6-1.3l-.3-1.5v-3l-.9 1.3-1 1.2-1.4 1.8-.2.4-.3.3v.1l-.3.7q0 .2-.4.5l-.4.2-.3.1z" style="font-family:&quot;Moon Dance&quot;;-inkscape-font-specification:&quot;Moon Dance&quot;;stroke-width:1" transform="translate(.7 -11)"/><path d="M78.4 342.8q-.6 0-1-.4-.3-.5-.4-1.1l-.1-1.2v-1l.2-1-.7 1-1 1.2-1.1 1.2-1.2 1q-.5.3-.9.3-.3 0-.4-.3v-.5q0-1.1.4-2.3l.8-2.2.4-.7.6-1 .7-.7q.3-.3.7-.3l.5-.3.6-.1h.6l.6.3.3-.3.4-.1h.4q.2 0 .2.2v.8l-.2.6-.2.4-.2.4-.3 1.7v2.5q0 .5.2.8.1.3.5.3.6 0 1-.4l.9-.9.1-.1.2-.2v.2l-.2.6-.5.6-.5.4-.7.5-.7.1zm-5.4-1h.4l.2-.3q1.2-1 2-2.2.9-1.2 1.6-2.6v-.2l.2-.3v-.4l.2-.4q0-.2-.3-.3l-.5-.1h-.4q-.5 0-.8.3l-.6.7-.7 1.1-.7 1.5-.6 1.5-.2 1.2v.3q0 .2.2.2zM87.1 342.8q-.4 0-.5-.4l-.2-.8q0-1 .4-2.1l.9-2 .5-1 .8-1.2q.5-.5 1-.6l.6-.3q.2-.2.7-.2l.7.1.7.2.7-2q.4-1 .5-2.1l-.2-.2-.1-.2.3-.9.3-.9q0-.2.4-.3l.5-.2q.3 0 .3.4l-.2.9-.3 1.1-.3.8-.6 2-.6 1.9.2.1q.2.1.2.3l-.1.1h-.5l-.4 1.2-.4 1.8-.3 1.7-.2 1.3.1.4q0 .2.3.2l.6-.2.7-.6.6-.6.4-.3q0 0 0 0l-.1.4q0 .2-.2.3l-.8.7-1 .8q-.6.3-1 .3t-.5-.3l-.1-.6v-1.1l.3-1.3.3-1.2-.6 1-.9 1.1-1 1.2-1 1q-.5.3-.9.3zm.5-1h.4l.2-.3q1.1-1 2-2.2.9-1.2 1.5-2.6l.3-.6.2-.6-.1-.3-.6-.2H91q-.5 0-.8.3l-.6.7-.7 1.1-.7 1.5-.6 1.5-.2 1.2v.3q0 .2.2.2zM97 333.2l-.1-.2-.2-.4v-.4q0 0 0 0l.1-.2.8-.1.7-.3h.2q.2 0 .2.2 0 .5-.5.8l-.5.4q-.3.2-.7.2zm-2.3 9.6q-.4 0-.4-.3l.2-1.1.3-1.3.3-1.1.1-.5.3-1 .2-.8.2-.5-.2-.2v-.5l.3-.3.6-.3.5-.2q0 0 0 0l.1.2-.1.6-.3 1-.3 1-.2.6-.3 1-.4 1.3-.2 1.1v.2q0 .2.2.2l.4-.2.7-.4.6-.2q0 0 0 0l-.2.4-.7.4-.5.3-.5.5-.7.1zM104.6 343.1l-.2-.1.3-1 .1-.5.2-.6.3-1.2.3-1.2.3-1 .1-1h-.1l-.2-.1.3-.9.3-.9q0-.2.4-.3l.5-.2q.3 0 .3.4l-.2 1-.4 1.6-.4 1.6-.4 1 1.7-2.5q1-1.3 2.2-2.3.2-.2.5-.2.7 0 .7.6l-.1.9-.4 1.4-.3 1.3-.3 1 1.2-1.2 1.2-1.4.8-1.4q0-.2.3-.4h.8q.2 0 .2.3l.1.4v.8q-.1.4-.4.6V339.5l.1 1 .4.9q.2.4.6.4.5 0 .8-.3l.5-.5.4-.6.2-.2.1.1v.2l-.5 1-.8.7q-.5.4-1 .4-.6 0-1-.5-.4-.4-.6-1l-.3-1.3-.1-1.1v-.9l.1-1-.4.7-.5.6-2 2.4v.8l-.5.8q-.3.3-.8.3h-.2V341l.3-1 .4-1 .2-.8.2-1 .2-1.1v-.3l-.2-.1q-.3 0-.7.3l-.7 1-.7.9-.5.6-.7 1.1-.7 1.4q-.4.7-.4 1.2v0q0 .3-.3.5l-.6.3z" style="font-family:&quot;Moon Dance&quot;;-inkscape-font-specification:&quot;Moon Dance&quot;;stroke-width:1" transform="translate(.7 -11)"/><path d="m119.4 333.2-.2-.2-.1-.4v-.4q0 0 0 0v-.2l.8-.1.8-.3h.2q.2 0 .2.2 0 .5-.5.8l-.6.4-.6.2zm-2.3 9.6q-.4 0-.4-.3l.1-1.1.4-1.3.3-1.1.1-.5.3-1 .2-.8.1-.5-.1-.2-.1-.2V335.5l.4-.3.6-.3.5-.2q0 0 0 0v.8l-.3 1-.3 1-.2.6-.3 1-.4 1.3-.2 1.1v.2l.1.2.5-.2.7-.4.5-.2h.1l-.3.4-.6.4-.5.3q-.2.3-.6.5l-.6.1zM126.4 337.4l-.1-.1v-.2l.2-.7v-1.6q-.1-.2-.3-.2h-.4q-.2 0-.2-.2l.2-.1.5-.2h.4q.6 0 .7.4l.2 1-.2 1q-.1.4-.5.7l-.3.1h-.2zm-3.6 5.4q-.7 0-1-.3-.3-.3-.3-1l.2-1.4.4-1.4h-.2l-.1-.2.2-.4.4-.2.4-1 .6-1.1.8-1q.4-.4 1-.4.2 0 .2.2l-.1.2-.2.2-.6.8-.5 1-.4 1 1.3-.2h2.4l.6.2.2.1v.2h-.8l-.6-.1-1.7.1-1.7.3-.4 1.4-.2 1.5.1.8q.1.3.6.3.6 0 1.2-.5t1.1-1.2l.9-1.1h0v.1l.1.1q0 .5-.2.8l-.5.6q-.6.6-1.5 1.1-.8.5-1.7.5zM129 342.7q-.2 0-.3-.2-.2 0-.2-.3v-.9l.2-.8q.1-1.2.4-2.3.2-1.2.6-2.3l.6-2.4 1-2.4q.5-1.2 1.3-2.1.8-1 2-1.5l.6-.2H136.5l.6.4q.3.2.3.6v.2l-.4.3-.4.3v-.2l.1-.2q0-.3-.2-.4l-.6-.4-.6-.1q-.8 0-1.5.6-.6.7-1.1 1.8-.6 1-1 2.2l-.7 2.2-.4 1.6-.4 1.6q-.3.8-.4 1.7l-.2 1.6.1.5q.1.2.4.2l.7-.2.8-.6.6-.6.4-.2q0 0 0 0v.4l-.3.3-.8.7-1.3.7q-.6.4-1.2.4zM138.1 337.4l-.1-.1v-.2l.2-.7.1-.7v-.9l-.4-.2H137.6q-.3 0-.3-.2l.3-.1.5-.2h.3q.6 0 .8.4l.1 1-.1 1q-.2.4-.6.7l-.2.1h-.3zm-3.6 5.4q-.7 0-1-.3-.2-.3-.2-1l.2-1.4.4-1.4h-.3v-.2l.1-.4.4-.2.5-1 .6-1.1.7-1q.5-.4 1-.4.2 0 .2.2v.2l-.2.2q-.4.3-.6.8l-.6 1-.4 1 1.3-.2h2.4q.4 0 .6.2l.3.1-.2.2h-.7l-.6-.1-1.7.1-1.6.3-.5 1.4-.2 1.5.1.8q.2.3.6.3.7 0 1.3-.5.6-.5 1-1.2l.9-1.1h0l.1.1v.1l-.1.8-.5.6-1.5 1.1q-.8.5-1.8.5z" style="font-family:&quot;Moon Dance&quot;;-inkscape-font-specification:&quot;Moon Dance&quot;;stroke-width:1" transform="translate(.7 -11)"/></g><path fill="#fff" stroke="#000" stroke-width="1.5" d="M73 16.3h-5.1L61 26.5h-3.3l2.5-10.2h-6l-1.6 3.4h-3.4l1.7-5.9L49.3 8h3.4l1.7 3.4h5.9L57.8 1.2H61l6.8 10h5c5 0 5 5.1 0 5.1z" style="fill:#fff;fill-opacity:1;stroke-width:2.27564;stroke-dasharray:none"/></svg>