<?xml version="1.0" encoding="UTF-8" standalone="no"?>
<!-- Uploaded to: SVG Repo, www.svgrepo.com, Generator: SVG Repo Mixer Tools -->

<svg
   height="26.667318"
   width="40"
   version="1.1"
   id="Layer_1"
   viewBox="0 0 25.5992 17.06655"
   xml:space="preserve"
   xmlns="http://www.w3.org/2000/svg"
   xmlns:svg="http://www.w3.org/2000/svg"><defs
   id="defs16805" />
<g
   id="g16786"
   transform="matrix(0.05,0,0,0.05,0,-4.26635)">
	<path
   style="fill:#ed5564"
   d="m 362.644,213.323 c -23.514,0 -42.654,19.14 -42.654,42.671 0,23.531 19.141,42.669 42.654,42.669 23.531,0 42.686,-19.139 42.686,-42.669 0,-23.53 -19.154,-42.671 -42.686,-42.671 z"
   id="path16782" />
	<path
   style="fill:#ed5564"
   d="m 469.328,213.323 c -23.529,0 -42.686,19.14 -42.686,42.671 0,23.531 19.156,42.669 42.686,42.669 23.516,0 42.656,-19.139 42.656,-42.669 0,-23.53 -19.14,-42.671 -42.656,-42.671 z"
   id="path16784" />
</g>
<path
   style="fill:#ffce54;stroke-width:0.05"
   d="M 16.24405,4.835 15.9839,4.3694 C 15.6011,3.6866 15.1245,3.0577 14.5667,2.49995 12.9551,0.8875 10.8122,0 8.53255,0 6.2537,0 4.1108,0.8875 2.49915,2.49995 0.8875,4.11155 0,6.2537 0,8.5333 c 0,2.27955 0.8875,4.42175 2.49915,6.03335 1.61165,1.6116 3.75455,2.4999 6.0334,2.4999 2.2796,0 4.4225,-0.8883 6.03415,-2.4999 0.5578,-0.5578 1.0344,-1.1867 1.4172,-1.86945 l 0.26015,-0.4656 -6.6178,-3.6983 z"
   id="path16788" />
<g
   style="opacity:0.2"
   id="g16792"
   transform="matrix(0.05,0,0,0.05,0,-4.26635)">
	<path
   style="fill:#ffffff"
   d="m 191.994,405.315 c -45.592,0 -88.435,-17.748 -120.684,-49.982 -32.218,-32.232 -49.967,-75.09 -49.967,-120.667 0,-40.529 14.031,-78.888 39.78,-109.543 -3.844,3.219 -7.562,6.609 -11.14,10.203 C 17.75,167.558 0,210.401 0,255.993 c 0,45.591 17.75,88.435 49.983,120.667 32.233,32.232 75.091,49.998 120.668,49.998 45.592,0 88.45,-17.766 120.683,-49.998 3.578,-3.562 6.984,-7.281 10.219,-11.141 -30.67,25.767 -69.029,39.796 -109.559,39.796 z"
   id="path16790" />
</g>
<path
   style="fill:#434a54;stroke-width:0.05"
   d="m 9.82,5.0209 c -0.4156,0.4164 -1.0914,0.4164 -1.50775,0 -0.41715,-0.4164 -0.41715,-1.09215 0,-1.50855 0.4164,-0.4164 1.09215,-0.4164 1.50775,0 0.4172,0.41645 0.4172,1.09215 0,1.50855 z"
   id="path16794" />
<g
   id="g16800"
   transform="matrix(0.05,0,0,0.05,0,-4.26635)">
	<path
   style="opacity:0.2;fill:#ffffff;enable-background:new"
   d="m 359.519,252.868 c -4.156,4.171 -10.906,4.171 -15.062,0 -4.186,-4.172 -4.186,-10.922 0,-15.078 4.156,-4.171 10.906,-4.171 15.062,0 4.188,4.157 4.188,10.907 0,15.078 z"
   id="path16796" />
	<path
   style="opacity:0.2;fill:#ffffff;enable-background:new"
   d="m 466.203,252.868 c -4.17,4.171 -10.936,4.171 -15.092,0 -4.156,-4.172 -4.156,-10.922 0,-15.078 4.156,-4.171 10.922,-4.171 15.092,0 4.156,4.157 4.156,10.907 0,15.078 z"
   id="path16798" />
</g>
</svg>
