<?xml version="1.0" encoding="UTF-8" standalone="no"?>
<!-- Uploaded to: SVG Repo, www.svgrepo.com, Generator: SVG Repo Mixer Tools -->

<svg
   fill="#000000"
   width="24.000002"
   height="16.29752"
   viewBox="0 0 1.9200001 1.3038016"
   version="1.1"
   id="svg13458"
   xmlns="http://www.w3.org/2000/svg"
   xmlns:svg="http://www.w3.org/2000/svg">
  <defs
     id="defs13462" />
  <g
     id="Ring"
     transform="matrix(0.03859685,0,0,0.03859685,-0.27446461,-0.582589)">
    <path
       d="m 39.93,15.13 a 16.85,16.85 0 0 0 -7.89,2 A 16.89,16.89 0 1 0 32,46.86 16.87,16.87 0 1 0 40,15.13 Z M 24.07,46.87 a 14.93,14.93 0 1 1 11.58,-5.59 10.15,10.15 0 0 1 -2.24,-1.4 12.29,12.29 0 1 0 -5.65,3.77 18,18 0 0 0 2.23,2 14.88,14.88 0 0 1 -5.92,1.22 z M 37.65,22 a 10.3,10.3 0 0 1 2.28,-0.27 10.23,10.23 0 1 1 0,20.46 10,10 0 0 1 -2.27,-0.19 16.8,16.8 0 0 0 0,-19.93 z M 32,25.57 a 10.21,10.21 0 0 1 0,12.89 10.15,10.15 0 0 1 0,-12.89 z M 26.34,22 a 16.8,16.8 0 0 0 0,19.93 9.74,9.74 0 0 1 -2.28,0.27 10.23,10.23 0 1 1 0,-20.46 10,10 0 0 1 2.28,0.26 z m 13.59,24.87 a 14.84,14.84 0 0 1 -11.58,-24.15 10.13,10.13 0 0 1 2.26,1.42 12.27,12.27 0 1 0 5.63,-3.78 16.65,16.65 0 0 0 -2.23,-2 14.85,14.85 0 1 1 5.92,28.47 z"
       id="path13455" />
  </g>
</svg>
