<?xml version="1.0" encoding="UTF-8" standalone="no"?>
<!-- Uploaded to: SVG Repo, www.svgrepo.com, Generator: SVG Repo Mixer Tools -->

<svg
   fill="#000000"
   width="24.000002"
   height="16.29752"
   viewBox="0 0 1.9200001 1.3038016"
   version="1.1"
   id="svg13458"
   xmlns="http://www.w3.org/2000/svg"
   xmlns:svg="http://www.w3.org/2000/svg">
  <defs
     id="defs13462" />
  <g
     id="Ring"
     transform="matrix(0.03859685,0,0,0.03859685,-0.27446461,-0.582589)">
    <path
       d="m 39.93,15.13 a 16.85,16.85 0 0 0 -7.89,2 A 16.89,16.89 0 1 0 32,46.86 16.87,16.87 0 1 0 40,15.13 Z M 24.07,46.87 a 14.93,14.93 0 1 1 11.58,-5.59 10.15,10.15 0 0 1 -2.24,-1.4 12.29,12.29 0 1 0 -5.65,3.77 18,18 0 0 0 2.23,2 14.88,14.88 0 0 1 -5.92,1.22 z M 37.65,22 a 10.3,10.3 0 0 1 2.28,-0.27 10.23,10.23 0 1 1 0,20.46 10,10 0 0 1 -2.27,-0.19 16.8,16.8 0 0 0 0,-19.93 z M 32,25.57 a 10.21,10.21 0 0 1 0,12.89 10.15,10.15 0 0 1 0,-12.89 z M 26.34,22 a 16.8,16.8 0 0 0 0,19.93 9.74,9.74 0 0 1 -2.28,0.27 10.23,10.23 0 1 1 0,-20.46 10,10 0 0 1 2.28,0.26 z m 13.59,24.87 a 14.84,14.84 0 0 1 -11.58,-24.15 10.13,10.13 0 0 1 2.26,1.42 12.27,12.27 0 1 0 5.63,-3.78 16.65,16.65 0 0 0 -2.23,-2 14.85,14.85 0 1 1 5.92,28.47 z"
       id="path13455" />
  </g>
  <path
     style="fill:#ffd700;stroke:#ffd700;stroke-width:0.229;stroke-linecap:round;stroke-linejoin:round;stroke-miterlimit:1078.7;stroke-opacity:1;fill-opacity:1;stroke-dasharray:none"
     d="M 15.061339,15.267795 C 12.26092,14.904427 10.013912,13.120756 9.1000769,10.535754 8.3344268,8.369929 8.6670344,5.9568142 9.9895882,4.0822255 l 0.2621168,-0.371525 0.153997,0.076165 c 0.0847,0.04189 0.318663,0.1855426 0.519921,0.319227 l 0.365924,0.2430625 -0.300312,0.4354163 c -0.494059,0.7163239 -0.771402,1.366706 -0.9617,2.2552283 -0.1141317,0.5328941 -0.1169404,1.6772934 -0.0055,2.236923 0.300602,1.5094234 1.168895,2.8704074 2.384538,3.7375834 1.51058,1.07757 3.569632,1.387747 5.319817,0.801381 1.817627,-0.608961 3.228905,-2.031206 3.793003,-3.822479 C 21.79272,9.1316501 21.868936,8.0086781 21.715724,7.1300892 21.29923,4.7417395 19.435476,2.8404608 17.028038,2.3480224 16.192958,2.1772079 15.036683,2.2168002 14.289034,2.4418093 L 14.059205,2.5109777 13.698256,2.1632998 C 13.499734,1.9720769 13.265273,1.7605808 13.177232,1.6933084 L 13.017158,1.570995 13.536406,1.3992649 c 0.899887,-0.2976183 1.218494,-0.3456895 2.29117,-0.3456895 1.07696,0 1.466157,0.058567 2.294347,0.3452575 2.509293,0.8686304 4.273657,2.9415857 4.750849,5.5817855 0.109044,0.6033185 0.107396,1.7266281 -0.0035,2.3578907 -0.245565,1.3983639 -0.904443,2.6985279 -1.885489,3.7206369 -1.210153,1.260807 -2.722996,2.00213 -4.471931,2.191333 -0.445889,0.04824 -1.147684,0.05661 -1.450554,0.01732 z"
     id="path13750"
     transform="scale(0.08)" />
  <path
     style="fill:#ffd700;stroke:#ffd700;stroke-width:0.2;stroke-linecap:round;stroke-linejoin:round;stroke-miterlimit:1078.7;fill-opacity:1;stroke-opacity:1;stroke-dasharray:none"
     d="M 7.1128742,15.227901 C 5.571915,14.977108 4.2905631,14.344802 3.1977886,13.29593 1.3945201,11.565109 0.62255088,9.0978763 1.1243399,6.669136 1.4298732,5.1903049 2.3044108,3.698281 3.4368563,2.7238173 5.3080252,1.1136857 7.8155252,0.56227033 10.167225,1.2437661 c 2.212493,0.6411554 4.083037,2.452181 4.796191,4.643582 0.255191,0.7841575 0.330966,1.2787791 0.334289,2.1820816 0.0046,1.2475238 -0.207326,2.1989243 -0.716827,3.2182163 -0.256407,0.512957 -0.719874,1.230538 -0.819456,1.268751 -0.06435,0.02469 -0.683211,-0.321026 -0.915615,-0.511495 l -0.108381,-0.08883 0.269279,-0.374933 C 14.031863,10.153756 14.364087,8.3224482 13.910907,6.5969379 13.336493,4.4098289 11.60016,2.7743343 9.3385091,2.2900875 9.0259684,2.2231688 8.7368405,2.2040165 8.0933746,2.2076081 7.318468,2.2119335 7.212757,2.2234502 6.6908023,2.3604137 4.7370056,2.8730997 3.2133085,4.2709223 2.5460557,6.162758 2.1521969,7.2794502 2.1085376,8.5228675 2.4216837,9.7048727 c 0.1519576,0.5735813 0.6058129,1.5019133 0.9716045,1.9873553 0.9396251,1.246977 2.3597406,2.095262 3.8797601,2.317518 0.5655425,0.08269 1.7915394,0.03496 2.279874,-0.08876 l 0.3820273,-0.09679 0.4081544,0.363852 c 0.651027,0.580366 0.609929,0.534609 0.527878,0.587705 -0.12151,0.07863 -0.814047,0.287034 -1.2930239,0.389107 -0.6070433,0.129365 -1.8606046,0.161425 -2.4650839,0.06304 z"
     id="path13752"
     transform="scale(0.08)" />
</svg>
